<?xml version="1.0" encoding="UTF-8" standalone="no"?>
<svg
   xmlns:dc="http://purl.org/dc/elements/1.1/"
   xmlns:cc="http://creativecommons.org/ns#"
   xmlns:rdf="http://www.w3.org/1999/02/22-rdf-syntax-ns#"
   xmlns:svg="http://www.w3.org/2000/svg"
   xmlns="http://www.w3.org/2000/svg"
   viewBox="0 0 1866.6667 1306.6667"
   height="1306.6667"
   width="1866.6667"
   xml:space="preserve"
   id="svg2"
   version="1.1"><metadata
     id="metadata8"><rdf:RDF><cc:Work
         rdf:about=""><dc:format>image/svg+xml</dc:format><dc:type
           rdf:resource="http://purl.org/dc/dcmitype/StillImage" /></cc:Work></rdf:RDF></metadata><defs
     id="defs6"><clipPath
       id="clipPath24"
       clipPathUnits="userSpaceOnUse"><path
         id="path22"
         d="M 0,980 H 1400 V 0 H 0 Z" /></clipPath></defs><g
     transform="matrix(1.3333333,0,0,-1.3333333,0,1306.6667)"
     id="g10"><path
       id="path12"
       style="fill:#f5c47b;fill-opacity:1;fill-rule:nonzero;stroke:none"
       d="M 0,0 H 1400 V 980 H 0 Z" /><g
       transform="translate(1091.9097,790.4403)"
       id="g14"><path
         id="path16"
         style="fill:#dbaf6e;fill-opacity:1;fill-rule:nonzero;stroke:none"
         d="M 0,0 -935.66,-593.411 -810.701,-790.44 H 308.091 v 562.804 L 163.72,0 Z" /></g><g
       id="g18"><g
         clip-path="url(#clipPath24)"
         id="g20"><g
           transform="translate(1240.8761,189.5632)"
           id="g26"><path
             id="path28"
             style="fill:#fbfbfb;fill-opacity:1;fill-rule:nonzero;stroke:none"
             d="m 0,0 h -1081.752 c -16.016,0 -29,12.984 -29,29 v 542.874 c 0,16.016 12.984,29 29,29 H 0 c 16.016,0 29,-12.984 29,-29 V 29 C 29,12.984 16.016,0 0,0" /></g><g
           transform="translate(394.7944,737.9796)"
           id="g30"><path
             id="path32"
             style="fill:#e7e6e2;fill-opacity:1;fill-rule:nonzero;stroke:none"
             d="m 0,0 v -495.959 c 0,-6.585 -5.338,-11.922 -11.922,-11.922 h -200.291 c -6.585,0 -11.922,5.337 -11.922,11.922 V 0 c 0,6.584 5.337,11.922 11.922,11.922 H -11.922 C -5.338,11.922 0,6.584 0,0" /></g><g
           transform="translate(675.1781,737.9796)"
           id="g34"><path
             id="path36"
             style="fill:#e7e6e2;fill-opacity:1;fill-rule:nonzero;stroke:none"
             d="m 0,0 v -227.712 c 0,-6.584 -5.338,-11.922 -11.922,-11.922 h -216.004 c -6.585,0 -11.923,5.338 -11.923,11.922 V 0 c 0,6.584 5.338,11.922 11.923,11.922 H -11.922 C -5.338,11.922 0,6.584 0,0" /></g><g
           transform="translate(952.2595,737.9796)"
           id="g38"><path
             id="path40"
             style="fill:#e7e6e2;fill-opacity:1;fill-rule:nonzero;stroke:none"
             d="m 0,0 v -227.712 c 0,-6.584 -5.338,-11.922 -11.922,-11.922 h -216.005 c -6.584,0 -11.922,5.338 -11.922,11.922 V 0 c 0,6.584 5.338,11.922 11.922,11.922 H -11.922 C -5.338,11.922 0,6.584 0,0" /></g><g
           transform="translate(1229.3409,737.9796)"
           id="g42"><path
             id="path44"
             style="fill:#e7e6e2;fill-opacity:1;fill-rule:nonzero;stroke:none"
             d="m 0,0 v -227.712 c 0,-6.584 -5.338,-11.922 -11.922,-11.922 h -216.005 c -6.584,0 -11.922,5.338 -11.922,11.922 V 0 c 0,6.584 5.338,11.922 11.922,11.922 H -11.922 C -5.338,11.922 0,6.584 0,0" /></g><g
           transform="translate(822.3353,462.4638)"
           id="g46"><path
             id="path48"
             style="fill:#e7e6e2;fill-opacity:1;fill-rule:nonzero;stroke:none"
             d="m 0,0 h -377.006 c -5.523,0 -10,-4.477 -10,-10 v -212.365 c 0,-5.523 4.477,-10 10,-10 H 0 c 5.523,0 10,4.477 10,10 V -10 C 10,-4.477 5.523,0 0,0" /></g><g
           transform="translate(1219.3409,462.4638)"
           id="g50"><path
             id="path52"
             style="fill:#e7e6e2;fill-opacity:1;fill-rule:nonzero;stroke:none"
             d="m 0,0 h -336.868 c -5.523,0 -10,-4.477 -10,-10 v -212.365 c 0,-5.523 4.477,-10 10,-10 H 0 c 5.523,0 10,4.477 10,10 V -10 C 10,-4.477 5.523,0 0,0" /></g><g
           transform="translate(333.9917,613.2122)"
           id="g54"><path
             id="path56"
             style="fill:#bcbec0;fill-opacity:1;fill-rule:nonzero;stroke:none"
             d="M 0,0 C 0,42.14 -22.952,76.301 -51.265,76.301 -79.578,76.301 -102.53,42.14 -102.53,0 c 0,-20.718 5.549,-39.507 14.555,-53.256 5.153,-7.868 8.097,-16.976 8.097,-26.381 v -229.741 c 0,-13.498 10.942,-24.441 24.44,-24.441 h 8.346 c 13.498,0 24.44,10.943 24.44,24.441 v 229.741 c 0,9.405 2.944,18.513 8.097,26.381 C -5.549,-39.507 0,-20.718 0,0" /></g><g
           transform="translate(485.6863,566.3796)"
           id="g58"><path
             id="path60"
             style="fill:#7de20a;fill-opacity:1;fill-rule:nonzero;stroke:none"
             d="m 0,0 h -10.421 c -4.694,0 -8.5,3.806 -8.5,8.5 V 114 c 0,4.694 3.806,8.5 8.5,8.5 H 0 c 4.694,0 8.5,-3.806 8.5,-8.5 V 8.5 C 8.5,3.806 4.694,0 0,0" /></g><g
           transform="translate(506.3512,566.3796)"
           id="g62"><path
             id="path64"
             style="fill:#71b917;fill-opacity:1;fill-rule:nonzero;stroke:none"
             d="m 0,0 h -10.421 c -4.694,0 -8.5,3.806 -8.5,8.5 V 114 c 0,4.694 3.806,8.5 8.5,8.5 H 0 c 4.694,0 8.5,-3.806 8.5,-8.5 V 8.5 C 8.5,3.806 4.694,0 0,0" /></g><g
           transform="translate(525.6332,566.3796)"
           id="g66"><path
             id="path68"
             style="fill:#7de20a;fill-opacity:1;fill-rule:nonzero;stroke:none"
             d="m 0,0 h -10.421 c -4.694,0 -8.5,3.806 -8.5,8.5 V 114 c 0,4.694 3.806,8.5 8.5,8.5 H 0 c 4.694,0 8.5,-3.806 8.5,-8.5 V 8.5 C 8.5,3.806 4.694,0 0,0" /></g><g
           transform="translate(546.2982,566.3796)"
           id="g70"><path
             id="path72"
             style="fill:#71b917;fill-opacity:1;fill-rule:nonzero;stroke:none"
             d="m 0,0 h -10.421 c -4.694,0 -8.5,3.806 -8.5,8.5 V 114 c 0,4.694 3.806,8.5 8.5,8.5 H 0 c 4.694,0 8.5,-3.806 8.5,-8.5 V 8.5 C 8.5,3.806 4.694,0 0,0" /></g><g
           transform="translate(576.2166,566.3796)"
           id="g74"><path
             id="path76"
             style="fill:#fda800;fill-opacity:1;fill-rule:nonzero;stroke:none"
             d="m 0,0 h -12.918 c -4.695,0 -8.5,3.806 -8.5,8.5 v 122.564 c 0,4.695 3.805,8.5 8.5,8.5 H 0 c 4.694,0 8.5,-3.805 8.5,-8.5 V 8.5 C 8.5,3.806 4.694,0 0,0" /></g><g
           transform="translate(591.6547,566.3796)"
           id="g78"><path
             id="path80"
             style="fill:#ed9d00;fill-opacity:1;fill-rule:nonzero;stroke:none"
             d="m 0,0 h -12.918 c -4.695,0 -8.5,3.806 -8.5,8.5 v 122.564 c 0,4.695 3.805,8.5 8.5,8.5 H 0 c 4.694,0 8.5,-3.805 8.5,-8.5 V 8.5 C 8.5,3.806 4.694,0 0,0" /></g><g
           transform="translate(612.4956,566.3796)"
           id="g82"><path
             id="path84"
             style="fill:#fda800;fill-opacity:1;fill-rule:nonzero;stroke:none"
             d="m 0,0 h -12.918 c -4.695,0 -8.5,3.806 -8.5,8.5 v 122.564 c 0,4.695 3.805,8.5 8.5,8.5 H 0 c 4.694,0 8.5,-3.805 8.5,-8.5 V 8.5 C 8.5,3.806 4.694,0 0,0" /></g><g
           transform="translate(627.9337,566.3796)"
           id="g86"><path
             id="path88"
             style="fill:#ed9d00;fill-opacity:1;fill-rule:nonzero;stroke:none"
             d="m 0,0 h -12.918 c -4.695,0 -8.5,3.806 -8.5,8.5 v 122.564 c 0,4.695 3.805,8.5 8.5,8.5 H 0 c 4.694,0 8.5,-3.805 8.5,-8.5 V 8.5 C 8.5,3.806 4.694,0 0,0" /></g><g
           transform="translate(600.2093,591.3213)"
           id="g90"><path
             id="path92"
             style="fill:#f8583e;fill-opacity:1;fill-rule:nonzero;stroke:none"
             d="m 0,0 c 6.161,-19.977 -5.039,-41.166 -25.016,-47.327 -19.977,-6.161 -41.166,5.039 -47.327,25.016 -6.161,19.977 5.039,41.166 25.016,47.327 C -27.35,31.177 -6.161,19.977 0,0" /></g><g
           transform="translate(561.0831,574.576)"
           id="g94"><path
             id="path96"
             style="fill:#f8b690;fill-opacity:1;fill-rule:nonzero;stroke:none"
             d="m 0,0 -15.488,-4.777 c 4.05,-7.221 12.014,-11.419 20.261,-10.701 z" /></g><g
           transform="translate(569.6276,577.2112)"
           id="g98"><path
             id="path100"
             style="fill:#f8b690;fill-opacity:1;fill-rule:nonzero;stroke:none"
             d="m 0,0 4.774,-15.478 c 7.218,4.052 11.435,12.006 10.714,20.255 z" /></g><g
           transform="translate(566.9924,585.7557)"
           id="g102"><path
             id="path104"
             style="fill:#f8b690;fill-opacity:1;fill-rule:nonzero;stroke:none"
             d="M 0,0 15.488,4.777 C 11.438,11.998 3.474,16.196 -4.773,15.478 Z" /></g><g
           transform="translate(553.6744,598.5988)"
           id="g106"><path
             id="path108"
             style="fill:#f8b690;fill-opacity:1;fill-rule:nonzero;stroke:none"
             d="m 0,0 c -7.219,-4.052 -11.435,-12.006 -10.715,-20.255 l 15.489,4.777 z" /></g><g
           transform="translate(658.9734,574.4977)"
           id="g110"><path
             id="path112"
             style="fill:#f8583e;fill-opacity:1;fill-rule:nonzero;stroke:none"
             d="m 0,0 c -5.6,-20.142 -26.467,-31.93 -46.608,-26.331 -20.142,5.6 -31.931,26.467 -26.331,46.609 5.6,20.141 26.467,31.93 46.608,26.33 C -6.189,41.009 5.6,20.142 0,0" /></g><g
           transform="translate(616.999,581.5267)"
           id="g114"><path
             id="path116"
             style="fill:#f8b690;fill-opacity:1;fill-rule:nonzero;stroke:none"
             d="m 0,0 -15.616,4.341 c -0.489,-8.265 3.948,-16.098 11.277,-19.947 z" /></g><g
           transform="translate(625.6138,579.1317)"
           id="g118"><path
             id="path120"
             style="fill:#f8b690;fill-opacity:1;fill-rule:nonzero;stroke:none"
             d="m 0,0 -4.339,-15.606 c 8.264,-0.486 16.108,3.932 19.955,11.265 z" /></g><g
           transform="translate(628.0089,587.7466)"
           id="g122"><path
             id="path124"
             style="fill:#f8b690;fill-opacity:1;fill-rule:nonzero;stroke:none"
             d="M 0,0 15.616,-4.341 C 16.105,3.924 11.668,11.757 4.339,15.606 Z" /></g><g
           transform="translate(623.7325,605.7473)"
           id="g126"><path
             id="path128"
             style="fill:#f8b690;fill-opacity:1;fill-rule:nonzero;stroke:none"
             d="m 0,0 c -8.264,0.487 -16.107,-3.932 -19.954,-11.264 l 15.615,-4.342 z" /></g><g
           transform="translate(784.2495,653.7301)"
           id="g130"><path
             id="path132"
             style="fill:#f4f9f3;fill-opacity:1;fill-rule:nonzero;stroke:none"
             d="M 0,0 C 9.772,9.868 -3.179,48.483 30.997,46.099 65.174,43.714 48.291,15.165 82.66,25.831 c 34.574,10.73 40.138,2.385 42.125,-21.857 3.519,-42.937 34.176,-77.472 -11.923,-90.399 -46.098,-12.926 -41.329,11.841 -64.776,1.445 -23.447,-10.397 -91.8,-22.716 -82.263,55.373 C -27.693,1.544 -7.954,-8.032 0,0" /></g><g
           transform="translate(1177.7328,624.4939)"
           id="g134"><path
             id="path136"
             style="fill:#f4f9f3;fill-opacity:1;fill-rule:nonzero;stroke:none"
             d="m 0,0 c 0,-35.022 -28.391,-63.413 -63.413,-63.413 -35.022,0 -63.413,28.391 -63.413,63.413 0,35.022 28.391,63.413 63.413,63.413 C -28.391,63.413 0,35.022 0,0" /></g><g
           transform="translate(1158.3804,624.4939)"
           id="g138"><path
             id="path140"
             style="fill:#04d4de;fill-opacity:1;fill-rule:nonzero;stroke:none"
             d="m 0,0 c 0,-24.334 -19.727,-44.061 -44.061,-44.061 -24.334,0 -44.06,19.727 -44.06,44.061 0,24.334 19.726,44.061 44.06,44.061 C -19.727,44.061 0,24.334 0,0" /></g><path
           id="path142"
           style="fill:#bcbec0;fill-opacity:1;fill-rule:nonzero;stroke:none"
           d="m 1209.471,630.508 h -72.327 v 20.838 h 72.327 z" /><g
           transform="translate(704.5724,256.5963)"
           id="g144"><path
             id="path146"
             style="fill:#ffe332;fill-opacity:1;fill-rule:nonzero;stroke:none"
             d="m 0,0 h -159.728 c -6.812,0 -12.334,5.522 -12.334,12.333 v 145.025 c 0,6.811 5.522,12.333 12.334,12.333 H 0 c 6.812,0 12.333,-5.522 12.333,-12.333 V 12.333 C 12.333,5.522 6.812,0 0,0" /></g><g
           transform="translate(724.4221,346.012)"
           id="g148"><path
             id="path150"
             style="fill:#f8583e;fill-opacity:1;fill-rule:nonzero;stroke:none"
             d="m 0,0 c 0,-51.397 -41.666,-93.063 -93.063,-93.063 -51.398,0 -93.064,41.666 -93.064,93.063 0,51.397 41.666,93.063 93.064,93.063 C -41.666,93.063 0,51.397 0,0" /></g><g
           transform="translate(606.1058,427.0822)"
           id="g152"><path
             id="path154"
             style="fill:#7de20a;fill-opacity:1;fill-rule:nonzero;stroke:none"
             d="m 0,0 c 0,0 -31.47,23.049 -48.956,4.769 -17.486,-18.281 14.526,-50.281 0,-62.529 -14.526,-12.249 -39.74,-9.875 -39.74,-31.296 0,-21.422 50.76,-37.259 54.046,-49.24 3.287,-11.981 -15.101,-23.845 6.359,-32.19 21.46,-8.345 29.797,12.32 39.935,9.935 10.138,-2.384 -0.142,-25.434 37.188,-16.691 37.329,8.743 16.064,35.465 24.312,42.371 8.248,6.907 41.63,-22.008 48.783,0 7.154,22.009 -22.254,29.162 -20.665,42.673 1.59,13.512 31.793,10.059 27.024,34.438 -4.769,24.378 -40.592,47.763 -62.941,43.453 C 42.995,-18.616 57.71,22.255 37.361,22.255 17.013,22.255 0,0 0,0" /></g><g
           transform="translate(720.7745,346.012)"
           id="g156"><path
             id="path158"
             style="fill:#f5b657;fill-opacity:1;fill-rule:nonzero;stroke:none"
             d="m 0,0 c 0,-49.383 -40.033,-89.416 -89.416,-89.416 -49.383,0 -89.415,40.033 -89.415,89.416 0,49.383 40.032,89.416 89.415,89.416 C -40.033,89.416 0,49.383 0,0" /></g><g
           transform="translate(580.5965,353.3021)"
           id="g160"><path
             id="path162"
             style="fill:#f1fdab;fill-opacity:1;fill-rule:nonzero;stroke:none"
             d="M 0,0 -5.836,2.524 0,16.02 5.836,13.496 Z" /></g><g
           transform="translate(649.1012,392.4463)"
           id="g164"><path
             id="path166"
             style="fill:#f1fdab;fill-opacity:1;fill-rule:nonzero;stroke:none"
             d="M 0,0 -5.836,2.524 0,16.02 5.836,13.496 Z" /></g><g
           transform="translate(605.7104,375.346)"
           id="g168"><path
             id="path170"
             style="fill:#f1fdab;fill-opacity:1;fill-rule:nonzero;stroke:none"
             d="m 0,0 -2.524,5.836 13.496,5.836 2.524,-5.836 z" /></g><g
           transform="translate(621.7645,336.3348)"
           id="g172"><path
             id="path174"
             style="fill:#f1fdab;fill-opacity:1;fill-rule:nonzero;stroke:none"
             d="m 0,0 -3.699,-5.172 -11.96,8.554 3.699,5.172 z" /></g><g
           transform="translate(588.674,306.2216)"
           id="g176"><path
             id="path178"
             style="fill:#f1fdab;fill-opacity:1;fill-rule:nonzero;stroke:none"
             d="m 0,0 -6.309,0.79 1.826,14.59 6.31,-0.79 z" /></g><g
           transform="translate(639.7939,358.0427)"
           id="g180"><path
             id="path182"
             style="fill:#f1fdab;fill-opacity:1;fill-rule:nonzero;stroke:none"
             d="M 0,0 -0.738,6.315 13.867,8.022 14.605,1.706 Z" /></g><g
           transform="translate(671.4507,347.3426)"
           id="g184"><path
             id="path186"
             style="fill:#f1fdab;fill-opacity:1;fill-rule:nonzero;stroke:none"
             d="M 0,0 3.788,5.107 15.598,-3.653 11.81,-8.76 Z" /></g><g
           transform="translate(645.7217,313.9116)"
           id="g188"><path
             id="path190"
             style="fill:#f1fdab;fill-opacity:1;fill-rule:nonzero;stroke:none"
             d="m 0,0 -6.329,0.612 1.416,14.636 6.329,-0.612 z" /></g><g
           transform="translate(633.5236,284.109)"
           id="g192"><path
             id="path194"
             style="fill:#f1fdab;fill-opacity:1;fill-rule:nonzero;stroke:none"
             d="m 0,0 -3.504,-5.306 -12.27,8.103 3.504,5.306 z" /></g><g
           transform="translate(930.9462,263.5511)"
           id="g196"><path
             id="path198"
             style="fill:#d93c23;fill-opacity:1;fill-rule:nonzero;stroke:none"
             d="m 0,0 h -7.796 c -11.201,0 -20.281,9.08 -20.281,20.28 v 131.118 c 0,11.2 9.08,20.28 20.281,20.28 H 0 c 11.201,0 20.28,-9.08 20.28,-20.28 V 20.28 C 20.28,9.08 11.201,0 0,0" /></g><g
           transform="translate(936.8295,374.1853)"
           id="g200"><path
             id="path202"
             style="fill:#b5321d;fill-opacity:1;fill-rule:nonzero;stroke:none"
             d="m 0,0 -21.833,8.994 c -1.277,0.526 -1.886,1.987 -1.36,3.263 l 0.366,0.889 c 0.526,1.277 1.988,1.885 3.264,1.359 L 2.27,5.512 C 3.547,4.986 4.156,3.525 3.63,2.248 L 3.264,1.359 C 2.738,0.083 1.277,-0.526 0,0" /></g><g
           transform="translate(936.8295,342.1375)"
           id="g204"><path
             id="path206"
             style="fill:#b5321d;fill-opacity:1;fill-rule:nonzero;stroke:none"
             d="m 0,0 -21.833,8.994 c -1.277,0.526 -1.886,1.987 -1.36,3.263 l 0.366,0.889 c 0.526,1.277 1.988,1.885 3.264,1.359 L 2.27,5.512 C 3.547,4.986 4.156,3.525 3.63,2.248 L 3.264,1.359 C 2.738,0.083 1.277,-0.526 0,0" /></g><g
           transform="translate(936.8295,310.0897)"
           id="g208"><path
             id="path210"
             style="fill:#b5321d;fill-opacity:1;fill-rule:nonzero;stroke:none"
             d="m 0,0 -21.833,8.994 c -1.277,0.526 -1.886,1.987 -1.36,3.263 l 0.366,0.889 c 0.526,1.277 1.988,1.885 3.264,1.359 L 2.27,5.512 C 3.547,4.986 4.156,3.525 3.63,2.248 L 3.264,1.359 C 2.738,0.083 1.277,-0.526 0,0" /></g><g
           transform="translate(1001.8826,263.5511)"
           id="g212"><path
             id="path214"
             style="fill:#d93c23;fill-opacity:1;fill-rule:nonzero;stroke:none"
             d="m 0,0 h -7.796 c -11.201,0 -20.281,9.08 -20.281,20.28 v 131.118 c 0,11.2 9.08,20.28 20.281,20.28 H 0 c 11.201,0 20.28,-9.08 20.28,-20.28 V 20.28 C 20.28,9.08 11.201,0 0,0" /></g><g
           transform="translate(1007.7659,374.1853)"
           id="g216"><path
             id="path218"
             style="fill:#b5321d;fill-opacity:1;fill-rule:nonzero;stroke:none"
             d="m 0,0 -21.833,8.994 c -1.277,0.526 -1.886,1.987 -1.36,3.263 l 0.366,0.889 c 0.526,1.277 1.988,1.885 3.264,1.359 L 2.27,5.512 C 3.547,4.986 4.156,3.525 3.63,2.248 L 3.264,1.359 C 2.738,0.083 1.277,-0.526 0,0" /></g><g
           transform="translate(1007.7659,342.1375)"
           id="g220"><path
             id="path222"
             style="fill:#b5321d;fill-opacity:1;fill-rule:nonzero;stroke:none"
             d="m 0,0 -21.833,8.994 c -1.277,0.526 -1.886,1.987 -1.36,3.263 l 0.366,0.889 c 0.526,1.277 1.988,1.885 3.264,1.359 L 2.27,5.512 C 3.547,4.986 4.156,3.525 3.63,2.248 L 3.264,1.359 C 2.738,0.083 1.277,-0.526 0,0" /></g><g
           transform="translate(1007.7659,310.0897)"
           id="g224"><path
             id="path226"
             style="fill:#b5321d;fill-opacity:1;fill-rule:nonzero;stroke:none"
             d="m 0,0 -21.833,8.994 c -1.277,0.526 -1.886,1.987 -1.36,3.263 l 0.366,0.889 c 0.526,1.277 1.988,1.885 3.264,1.359 L 2.27,5.512 C 3.547,4.986 4.156,3.525 3.63,2.248 L 3.264,1.359 C 2.738,0.083 1.277,-0.526 0,0" /></g><g
           transform="translate(1072.8191,263.5511)"
           id="g228"><path
             id="path230"
             style="fill:#d93c23;fill-opacity:1;fill-rule:nonzero;stroke:none"
             d="m 0,0 h -7.796 c -11.201,0 -20.281,9.08 -20.281,20.28 v 131.118 c 0,11.2 9.08,20.28 20.281,20.28 H 0 c 11.201,0 20.28,-9.08 20.28,-20.28 V 20.28 C 20.28,9.08 11.201,0 0,0" /></g><g
           transform="translate(1078.7024,374.1853)"
           id="g232"><path
             id="path234"
             style="fill:#b5321d;fill-opacity:1;fill-rule:nonzero;stroke:none"
             d="m 0,0 -21.833,8.994 c -1.277,0.526 -1.886,1.987 -1.36,3.263 l 0.366,0.889 c 0.526,1.277 1.988,1.885 3.264,1.359 L 2.27,5.512 C 3.547,4.986 4.156,3.525 3.63,2.248 L 3.264,1.359 C 2.738,0.083 1.277,-0.526 0,0" /></g><g
           transform="translate(1078.7024,342.1375)"
           id="g236"><path
             id="path238"
             style="fill:#b5321d;fill-opacity:1;fill-rule:nonzero;stroke:none"
             d="m 0,0 -21.833,8.994 c -1.277,0.526 -1.886,1.987 -1.36,3.263 l 0.366,0.889 c 0.526,1.277 1.988,1.885 3.264,1.359 L 2.27,5.512 C 3.547,4.986 4.156,3.525 3.63,2.248 L 3.264,1.359 C 2.738,0.083 1.277,-0.526 0,0" /></g><g
           transform="translate(1078.7024,310.0897)"
           id="g240"><path
             id="path242"
             style="fill:#b5321d;fill-opacity:1;fill-rule:nonzero;stroke:none"
             d="m 0,0 -21.833,8.994 c -1.277,0.526 -1.886,1.987 -1.36,3.263 l 0.366,0.889 c 0.526,1.277 1.988,1.885 3.264,1.359 L 2.27,5.512 C 3.547,4.986 4.156,3.525 3.63,2.248 L 3.264,1.359 C 2.738,0.083 1.277,-0.526 0,0" /></g><g
           transform="translate(1217.3239,340.1272)"
           id="g244"><path
             id="path246"
             style="fill:#f16335;fill-opacity:1;fill-rule:nonzero;stroke:none"
             d="m 0,0 c 0,-32.554 -26.39,-58.943 -58.943,-58.943 -32.554,0 -58.944,26.389 -58.944,58.943 0,32.554 26.39,58.943 58.944,58.943 C -26.39,58.943 0,32.554 0,0" /></g><g
           transform="translate(1158.3804,399.0707)"
           id="g248"><path
             id="path250"
             style="fill:#7de20a;fill-opacity:1;fill-rule:nonzero;stroke:none"
             d="M 0,0 C 0,0 -1.717,30.671 39.613,44.183 39.613,44.183 25.562,12.249 0,0" /></g><g
           transform="translate(870.5026,624.1235)"
           id="g252"><path
             id="path254"
             style="fill:#ffe332;fill-opacity:1;fill-rule:nonzero;stroke:none"
             d="m 0,0 c 0,-17.997 -14.59,-32.587 -32.587,-32.587 -17.997,0 -32.587,14.59 -32.587,32.587 0,17.997 14.59,32.587 32.587,32.587 C -14.59,32.587 0,17.997 0,0" /></g></g></g></g></svg>