<?xml version="1.0" encoding="UTF-8" standalone="no"?>
<svg
   xmlns:dc="http://purl.org/dc/elements/1.1/"
   xmlns:cc="http://creativecommons.org/ns#"
   xmlns:rdf="http://www.w3.org/1999/02/22-rdf-syntax-ns#"
   xmlns:svg="http://www.w3.org/2000/svg"
   xmlns="http://www.w3.org/2000/svg"
   viewBox="0 0 1866.6667 1306.6667"
   height="1306.6667"
   width="1866.6667"
   xml:space="preserve"
   id="svg2"
   version="1.1"><metadata
     id="metadata8"><rdf:RDF><cc:Work
         rdf:about=""><dc:format>image/svg+xml</dc:format><dc:type
           rdf:resource="http://purl.org/dc/dcmitype/StillImage" /></cc:Work></rdf:RDF></metadata><defs
     id="defs6" /><g
     transform="matrix(1.3333333,0,0,-1.3333333,0,1306.6667)"
     id="g10"><g
       transform="scale(0.1)"
       id="g12"><path
         id="path14"
         style="fill:#d9f1fd;fill-opacity:1;fill-rule:nonzero;stroke:none"
         d="M 14000,0 H 0 V 9800 H 14000 V 0" /><path
         id="path16"
         style="fill:#c9dfea;fill-opacity:1;fill-rule:nonzero;stroke:none"
         d="m 2332.33,7988.6 c 0,211.21 168.4,382.44 376.16,382.44 h 8923.61 c 207.8,0 376.2,-171.23 376.2,-382.44 V 1169.27 c 0,-211.2 -168.4,-382.379 -376.2,-382.379 H 2708.49 c -207.76,0 -376.16,171.179 -376.16,382.379 V 7988.6" /><path
         id="path18"
         style="fill:#dcde86;fill-opacity:1;fill-rule:nonzero;stroke:none"
         d="m 2142.33,8188.6 c 0,211.21 168.4,382.44 376.16,382.44 h 8923.61 c 207.8,0 376.2,-171.23 376.2,-382.44 V 1369.27 c 0,-211.2 -168.4,-382.379 -376.2,-382.379 H 2518.49 c -207.76,0 -376.16,171.179 -376.16,382.379 V 8188.6" /><path
         id="path20"
         style="fill:#d2d480;fill-opacity:1;fill-rule:nonzero;stroke:none"
         d="m 11442.1,8292.82 c 54,0 98,-46.74 98,-104.22 V 1369.27 c 0,-57.42 -44,-104.15 -98,-104.15 H 2518.49 c -54.01,0 -97.93,46.73 -97.93,104.15 V 8188.6 c 0,57.48 43.92,104.22 97.93,104.22 h 8923.61" /><path
         id="path22"
         style="fill:#c0c376;fill-opacity:1;fill-rule:nonzero;stroke:none"
         d="m 7337.23,4281 c 70.7,217.18 247.67,345.96 438.74,345.96 h 3258.43 c 191,0 345.9,-154.86 345.9,-345.96 V 1763.12 c 0,-191.1 -154.9,-345.97 -345.9,-345.97 H 6848.56 c -191.07,0 -436.29,104.81 -345.99,345.97 L 7337.23,4281" /><path
         id="path24"
         style="fill:#c0c376;fill-opacity:1;fill-rule:nonzero;stroke:none"
         d="m 2567.39,4281 c 0,191.1 154.93,345.96 346,345.96 h 3845.75 c 191.07,0 437.56,-85.73 345.97,-345.96 L 6270.44,1763.12 c -47.52,-232.64 -191.79,-345.97 -345.97,-345.97 H 2913.39 c -191.07,0 -346,154.87 -346,345.97 V 4281" /><path
         id="path26"
         style="fill:#c0c376;fill-opacity:1;fill-rule:nonzero;stroke:none"
         d="m 8510.53,7774.23 c 0,191.1 154.93,345.97 345.99,345.97 h 2177.88 c 191,0 345.9,-154.87 345.9,-345.97 V 5256.35 c 0,-191.1 -154.9,-345.97 -345.9,-345.97 H 8856.52 c -191.06,0 -345.99,154.87 -345.99,345.97 v 2517.88" /><path
         id="path28"
         style="fill:#c0c376;fill-opacity:1;fill-rule:nonzero;stroke:none"
         d="m 5678.43,7774.23 c 0,191.1 154.93,345.97 346,345.97 h 1930.53 c 191.07,0 345.97,-154.87 345.97,-345.97 V 5256.35 c 0,-191.1 -154.9,-345.97 -345.97,-345.97 H 6024.43 c -191.07,0 -346,154.87 -346,345.97 v 2517.88" /><path
         id="path30"
         style="fill:#c0c376;fill-opacity:1;fill-rule:nonzero;stroke:none"
         d="m 2587.08,7774.23 c 0,191.1 154.93,345.97 346,345.97 h 2177.83 c 191.07,0 345.97,-154.87 345.97,-345.97 V 5256.35 c 0,-191.1 -154.9,-345.97 -345.97,-345.97 H 2933.08 c -191.07,0 -346,154.87 -346,345.97 v 2517.88" /><path
         id="path32"
         style="fill:#a7aa67;fill-opacity:1;fill-rule:nonzero;stroke:none"
         d="m 10059.8,7276.69 c 12.3,100.77 -3.2,320.66 -207.47,731.93 0,0 -110.6,12.32 -131.1,-49.09 0,0 204.68,-95.06 307.77,-682.18 -9.5,0.18 -18.9,0.64 -28.5,0.64 -690.78,0 -1250.82,-491.54 -1250.82,-1097.86 0,-606.38 560.04,-1097.91 1250.82,-1097.91 690.8,0 1250.9,491.53 1250.9,1097.91 0,588.87 -528.3,1069.36 -1191.6,1096.56" /><path
         id="path34"
         style="fill:#d97e1a;fill-opacity:1;fill-rule:nonzero;stroke:none"
         d="m 8711.04,6237.22 c 0,-606.38 560.04,-1097.91 1250.83,-1097.91 690.83,0 1250.83,491.53 1250.83,1097.91 0,606.32 -560,1097.85 -1250.83,1097.85 -690.79,0 -1250.83,-491.53 -1250.83,-1097.85" /><path
         id="path36"
         style="fill:#ff8e01;fill-opacity:1;fill-rule:nonzero;stroke:none"
         d="m 8812.27,6302.73 c 0,-557.35 514.65,-1009.13 1149.6,-1009.13 635.03,0 1149.63,451.78 1149.63,1009.13 0,557.32 -514.6,1009.07 -1149.63,1009.07 -634.95,0 -1149.6,-451.75 -1149.6,-1009.07" /><path
         id="path38"
         style="fill:#d97e1a;fill-opacity:1;fill-rule:nonzero;stroke:none"
         d="m 10353.4,6474.99 c 0,-39.19 -31.8,-71.03 -71,-71.03 -39.2,0 -71,31.84 -71,71.03 0,39.12 31.8,70.94 71,70.94 39.2,0 71,-31.82 71,-70.94" /><path
         id="path40"
         style="fill:#d97e1a;fill-opacity:1;fill-rule:nonzero;stroke:none"
         d="m 9446.69,6545.93 c 0,-39.15 -31.76,-70.94 -71.04,-70.94 -39.19,0 -71,31.79 -71,70.94 0,39.3 31.81,71.07 71,71.07 39.28,0 71.04,-31.77 71.04,-71.07" /><path
         id="path42"
         style="fill:#d97e1a;fill-opacity:1;fill-rule:nonzero;stroke:none"
         d="m 9853.43,6237.22 c 0,-31.58 -25.61,-57.21 -57.12,-57.21 -31.58,0 -57.15,25.63 -57.15,57.21 0,31.52 25.57,57.17 57.15,57.17 31.51,0 57.12,-25.65 57.12,-57.17" /><path
         id="path44"
         style="fill:#d97e1a;fill-opacity:1;fill-rule:nonzero;stroke:none"
         d="m 10479,5710.3 c 0,-33.15 -26.8,-60.13 -60,-60.13 -33.2,0 -60.2,26.98 -60.2,60.13 0,33.18 27,60.08 60.2,60.08 33.2,0 60,-26.9 60,-60.08" /><path
         id="path46"
         style="fill:#d97e1a;fill-opacity:1;fill-rule:nonzero;stroke:none"
         d="m 9506.77,5770.38 c 0,-33.21 -26.91,-60.08 -60.08,-60.08 -33.18,0 -60.05,26.87 -60.05,60.08 0,33.15 26.87,60.04 60.05,60.04 33.17,0 60.08,-26.89 60.08,-60.04" /><path
         id="path48"
         style="fill:#d97e1a;fill-opacity:1;fill-rule:nonzero;stroke:none"
         d="m 11008.9,6584.21 c 0,-36.16 -29.4,-65.57 -65.6,-65.57 -36.2,0 -65.5,29.41 -65.5,65.57 0,36.23 29.3,65.58 65.5,65.58 36.2,0 65.6,-29.35 65.6,-65.58" /><path
         id="path50"
         style="fill:#d97e1a;fill-opacity:1;fill-rule:nonzero;stroke:none"
         d="m 10528.2,6966.52 c 0,-27.16 -22,-49.14 -49.2,-49.14 -27.1,0 -49.1,21.98 -49.1,49.14 0,27.18 22,49.24 49.1,49.24 27.2,0 49.2,-22.06 49.2,-49.24" /><path
         id="path52"
         style="fill:#d97e1a;fill-opacity:1;fill-rule:nonzero;stroke:none"
         d="m 10009.3,7168.67 c 0,-26.2 -21.23,-47.37 -47.43,-47.37 -26.18,0 -47.41,21.17 -47.41,47.37 0,26.2 21.23,47.46 47.41,47.46 26.2,0 47.43,-21.26 47.43,-47.46" /><path
         id="path54"
         style="fill:#603913;fill-opacity:1;fill-rule:nonzero;stroke:none"
         d="m 9813.7,8065.71 c 0,0 -110.61,12.32 -131.11,-49.09 0,0 221.22,-102.43 319.51,-753.82 0,0 117.5,187.11 -188.4,802.91" /><path
         id="path56"
         style="fill:#678200;fill-opacity:1;fill-rule:nonzero;stroke:none"
         d="m 10009.3,7545.34 c 1372,-588.08 1982.7,203.6 1982.7,203.6 -693.5,165.85 -1982.7,-203.6 -1982.7,-203.6" /><path
         id="path58"
         style="fill:#7a9f00;fill-opacity:1;fill-rule:nonzero;stroke:none"
         d="m 11992,7748.94 c -1108.2,768.97 -1982.7,-203.6 -1982.7,-203.6 0,0 1289.2,369.45 1982.7,203.6" /><path
         id="path60"
         style="fill:#a7aa67;fill-opacity:1;fill-rule:nonzero;stroke:none"
         d="m 11015.2,3394.53 c -152.3,459.14 -648.1,707.84 -1107.1,555.39 -44.26,-14.65 -86.47,-32.55 -126.59,-53.26 0.34,51.08 -7.46,103.04 -24.48,154.21 -83.07,250.45 -353.51,386.02 -603.9,302.88 -242.91,-80.63 -377.88,-337.54 -309.8,-581.44 -231.73,76.17 -489.12,81.42 -738.42,-1.38 -617.73,-204.99 -952.28,-871.96 -747.3,-1489.68 205.04,-617.73 872.01,-952.19 1489.7,-747.24 421.41,139.9 710.96,494.74 787.37,902.23 224.09,-180.02 532.12,-246.13 825.22,-148.9 459,152.41 707.7,648.07 555.3,1107.19" /><path
         id="path62"
         style="fill:#f5fffc;fill-opacity:1;fill-rule:nonzero;stroke:none"
         d="m 8811.99,1628.68 c 411.78,136.67 694.74,483.42 769.41,881.64 218.98,-175.91 520,-240.52 806.4,-145.51 448.6,148.92 691.6,633.31 542.6,1081.95 -148.8,448.67 -633.3,691.69 -1081.84,542.73 -43.23,-14.3 -84.5,-31.81 -123.68,-52.04 0.33,49.93 -7.27,100.67 -23.94,150.7 -81.18,244.71 -345.42,377.21 -590.11,295.97 -237.37,-78.79 -369.27,-329.84 -302.76,-568.18 -226.45,74.44 -477.95,79.55 -721.58,-1.36 -603.63,-200.3 -930.57,-852.06 -730.24,-1455.71 200.36,-603.66 852.12,-930.49 1455.74,-730.19" /><path
         id="path64"
         style="fill:#e98b17;fill-opacity:1;fill-rule:nonzero;stroke:none"
         d="m 9554.1,2989.94 c -105.6,318.18 66.78,661.74 384.87,767.22 318.13,105.6 661.63,-66.72 767.23,-384.86 105.5,-318.06 -66.7,-661.58 -384.9,-767.12 -318,-105.67 -661.56,66.74 -767.2,384.76" /><path
         id="path66"
         style="fill:#fea724;fill-opacity:1;fill-rule:nonzero;stroke:none"
         d="m 9627.94,3014.48 c -86.19,259.81 54.46,540.21 314.27,626.33 259.69,86.22 540.19,-54.4 626.29,-314.15 86.2,-259.68 -54.4,-540.17 -314.2,-626.36 -259.68,-86.22 -540.17,54.47 -626.36,314.18" /><path
         id="path68"
         style="fill:#e98b17;fill-opacity:1;fill-rule:nonzero;stroke:none"
         d="m 7865.81,2454.2 c -120.49,363.06 76.07,754.91 439.1,875.43 362.99,120.45 754.9,-76.11 875.45,-439.16 120.42,-362.91 -76.2,-754.94 -439.22,-875.39 -362.93,-120.4 -754.88,76.16 -875.33,439.12" /><path
         id="path70"
         style="fill:#fea724;fill-opacity:1;fill-rule:nonzero;stroke:none"
         d="m 8094.74,2530.16 c -92.08,277.38 58.1,576.85 335.48,668.86 277.35,92.08 576.79,-58.08 668.84,-335.51 92.1,-277.32 -58.17,-576.79 -335.49,-668.81 -277.31,-92.08 -576.82,58.14 -668.83,335.46" /><path
         id="path72"
         style="fill:#a7aa67;fill-opacity:1;fill-rule:nonzero;stroke:none"
         d="m 4052.54,7028.29 c 308.23,0 558.08,-249.84 558.08,-558.08 0,-308.22 -249.85,-558.07 -558.08,-558.07 -308.22,0 -558.1,249.85 -558.1,558.07 0,308.24 249.88,558.08 558.1,558.08 z m 1247.32,-351.4 c -20.25,123.35 -58.35,240.64 -111.61,349.16 -129.14,263.44 -347.17,475.37 -615.07,596.54 -158.79,71.85 -335.04,111.88 -520.64,111.88 -3.22,0 -6.46,-0.11 -9.69,-0.11 -209.54,-1.58 -407.01,-54.16 -580.5,-145.91 -152.64,-80.75 -286.8,-191.79 -394.36,-325.23 -156.86,-194.45 -257.3,-436.35 -276.35,-700.81 -2.18,-30.43 -3.35,-61.19 -3.35,-92.2 0,-135.9 21.49,-266.74 61.16,-389.37 164.23,-507.72 640.7,-874.88 1203.09,-874.88 698.21,0 1264.26,565.98 1264.26,1264.25 0,70.41 -5.86,139.42 -16.94,206.68" /><path
         id="path74"
         style="fill:#9e622c;fill-opacity:1;fill-rule:nonzero;stroke:none"
         d="m 2989.86,6908.65 c 44.98,128.4 12.43,274.09 41.9,405.89 1.66,8.27 3.56,16.43 5.65,24.45 -156.86,-194.44 -257.3,-436.34 -276.36,-700.8 89.31,91.47 195.66,178.72 228.81,270.46" /><path
         id="path76"
         style="fill:#9e622c;fill-opacity:1;fill-rule:nonzero;stroke:none"
         d="m 4964.04,6397.76 c -177.84,-212.62 -255.55,-614.59 -568.49,-666.69 -131.47,-23.52 -256.82,16.75 -387.81,13.49 -110.76,-3.71 -185.39,-64.39 -279.82,-104.36 -272.06,-106.02 -344.91,187.11 -434.27,369.94 -46.43,83.68 -123.17,68.29 -210.2,79.64 -86.83,6.82 -181.77,26.38 -264.58,66.83 164.23,-507.71 640.7,-874.87 1203.09,-874.87 698.22,0 1264.26,565.98 1264.26,1264.25 0,70.41 -5.86,139.42 -16.94,206.68 -95.88,-144.91 -254.91,-291.69 -305.24,-354.91" /><path
         id="path78"
         style="fill:#9e622c;fill-opacity:1;fill-rule:nonzero;stroke:none"
         d="m 4856.54,7154.66 c 93.25,-49.33 200.15,-37.91 301.14,-52.82 -129.15,263.42 -347.18,475.35 -615.08,596.53 18.66,-36.95 34.93,-73.6 49.51,-105.97 60.56,-147.89 107.24,-357.86 264.43,-437.74" /><path
         id="path80"
         style="fill:#9e622c;fill-opacity:1;fill-rule:nonzero;stroke:none"
         d="m 3605.21,7511.92 c 83.46,-100.1 141.3,-23.45 213.4,62.19 55.25,70.85 118.68,162.24 193.66,236.02 -209.54,-1.58 -407.01,-54.16 -580.5,-145.91 65.51,-31.3 115.5,-87.57 173.44,-152.3" /><path
         id="path82"
         style="fill:#f4f4b8;fill-opacity:1;fill-rule:nonzero;stroke:none"
         d="m 3985.16,5933.64 c -347.56,0 -629.26,281.75 -629.26,629.29 0,347.56 281.7,629.29 629.26,629.29 347.56,0 629.29,-281.73 629.29,-629.29 0,-347.54 -281.73,-629.29 -629.29,-629.29 z m 1172.52,1168.2 c -100.99,14.91 -207.89,3.49 -301.14,52.82 -157.19,79.88 -203.87,289.85 -264.43,437.74 -14.58,32.37 -30.85,69.02 -49.51,105.97 -158.79,71.84 -335.04,111.88 -520.64,111.88 -3.23,0 -6.46,-0.12 -9.69,-0.12 -74.98,-73.78 -138.41,-165.17 -193.66,-236.02 -72.1,-85.64 -129.94,-162.29 -213.4,-62.19 -57.94,64.73 -107.93,121 -173.44,152.3 -152.64,-80.75 -286.8,-191.79 -394.36,-325.23 -2.09,-8.02 -3.99,-16.18 -5.65,-24.45 -29.47,-131.8 3.08,-277.49 -41.9,-405.89 -33.15,-91.74 -139.5,-178.99 -228.81,-270.46 -2.17,-30.43 -3.34,-61.19 -3.34,-92.2 0,-135.91 21.49,-266.75 61.16,-389.38 82.81,-40.45 177.75,-60.01 264.58,-66.83 87.03,-11.35 163.77,4.04 210.2,-79.64 89.36,-182.83 162.21,-475.96 434.27,-369.94 94.43,39.97 169.06,100.65 279.82,104.36 130.99,3.26 256.34,-37.01 387.81,-13.49 312.94,52.1 390.65,454.07 568.49,666.69 50.33,63.22 209.36,210 305.24,354.91 -20.26,123.35 -58.35,240.63 -111.6,349.17" /><path
         id="path84"
         style="fill:#d5d6a4;fill-opacity:1;fill-rule:nonzero;stroke:none"
         d="m 4021.96,5987.92 c -308.23,0 -558.1,249.84 -558.1,558.07 0,308.23 249.87,558.08 558.1,558.08 308.24,0 558.08,-249.85 558.08,-558.08 0,-308.23 -249.84,-558.07 -558.08,-558.07 z m -36.8,1204.3 c -347.56,0 -629.26,-281.73 -629.26,-629.29 0,-347.54 281.7,-629.29 629.26,-629.29 347.56,0 629.29,281.75 629.29,629.29 0,347.56 -281.73,629.29 -629.29,629.29" /><path
         id="path86"
         style="fill:#4a2a11;fill-opacity:1;fill-rule:nonzero;stroke:none"
         d="m 3469.44,7250.36 c 0,-10.38 -8.45,-18.84 -18.83,-18.84 v 0 c -10.39,0 -18.84,8.46 -18.84,18.84 v 91.59 c 0,10.39 8.45,18.84 18.84,18.84 v 0 c 10.38,0 18.83,-8.45 18.83,-18.84 v -91.59" /><path
         id="path88"
         style="fill:#4a2a11;fill-opacity:1;fill-rule:nonzero;stroke:none"
         d="m 3883.33,5534.79 c 0,-10.4 -8.42,-18.78 -18.8,-18.78 v 0 c -10.39,0 -18.84,8.38 -18.84,18.78 v 91.65 c 0,10.38 8.45,18.77 18.84,18.77 v 0 c 10.38,0 18.8,-8.39 18.8,-18.77 v -91.65" /><path
         id="path90"
         style="fill:#4a2a11;fill-opacity:1;fill-rule:nonzero;stroke:none"
         d="m 4707.5,6860.59 c 0,-10.41 -8.43,-18.84 -18.81,-18.84 v 0 c -10.42,0 -18.84,8.43 -18.84,18.84 v 91.57 c 0,10.38 8.42,18.8 18.84,18.8 v 0 c 10.38,0 18.81,-8.42 18.81,-18.8 v -91.57" /><path
         id="path92"
         style="fill:#4a2a11;fill-opacity:1;fill-rule:nonzero;stroke:none"
         d="m 4488.75,5951.6 c 0,-10.38 -8.46,-18.84 -18.81,-18.84 v 0 c -10.42,0 -18.87,8.46 -18.87,18.84 v 91.56 c 0,10.39 8.45,18.84 18.87,18.84 v 0 c 10.35,0 18.81,-8.45 18.81,-18.84 v -91.56" /><path
         id="path94"
         style="fill:#4a2a11;fill-opacity:1;fill-rule:nonzero;stroke:none"
         d="m 2964.74,6486.94 c 0,-10.38 -8.45,-18.83 -18.84,-18.83 v 0 c -10.38,0 -18.83,8.45 -18.83,18.83 v 91.6 c 0,10.38 8.45,18.83 18.83,18.83 v 0 c 10.39,0 18.84,-8.45 18.84,-18.83 v -91.6" /><path
         id="path96"
         style="fill:#4a2a11;fill-opacity:1;fill-rule:nonzero;stroke:none"
         d="m 3195.08,7293.23 c 0,-10.38 -8.45,-18.84 -18.83,-18.84 v 0 c -10.42,0 -18.84,8.46 -18.84,18.84 v 91.56 c 0,10.42 8.42,18.84 18.84,18.84 v 0 c 10.38,0 18.83,-8.42 18.83,-18.84 v -91.56" /><path
         id="path98"
         style="fill:#4a2a11;fill-opacity:1;fill-rule:nonzero;stroke:none"
         d="m 3997.99,7322.7 c 3.11,-9.94 -2.41,-20.53 -12.32,-23.61 v 0 c -9.96,-3.08 -20.49,2.41 -23.63,12.37 l -27.35,87.37 c -3.11,9.93 2.41,20.47 12.34,23.61 v 0 c 9.9,3.08 20.47,-2.42 23.55,-12.38 l 27.41,-87.36" /><path
         id="path100"
         style="fill:#4a2a11;fill-opacity:1;fill-rule:nonzero;stroke:none"
         d="m 4646.09,7426.46 c 3.11,-9.91 -2.38,-20.47 -12.35,-23.58 v 0 c -9.9,-3.14 -20.43,2.44 -23.54,12.32 l -27.42,87.42 c -3.07,9.9 2.42,20.47 12.35,23.55 v 0 c 9.9,3.14 20.47,-2.36 23.61,-12.32 l 27.35,-87.39" /><path
         id="path102"
         style="fill:#4a2a11;fill-opacity:1;fill-rule:nonzero;stroke:none"
         d="m 4975.06,7063.79 c 3.08,-9.9 -2.44,-20.49 -12.35,-23.6 v 0 c -9.93,-3.08 -20.49,2.41 -23.61,12.31 l -27.38,87.37 c -3.11,9.99 2.45,20.53 12.35,23.64 v 0 c 9.9,3.11 20.47,-2.39 23.61,-12.35 l 27.38,-87.37" /><path
         id="path104"
         style="fill:#4a2a11;fill-opacity:1;fill-rule:nonzero;stroke:none"
         d="m 4942.51,6432.18 c 3.12,-9.96 -2.41,-20.53 -12.34,-23.61 v 0 c -9.91,-3.14 -20.47,2.42 -23.61,12.32 l -27.35,87.4 c -3.11,9.93 2.38,20.43 12.31,23.58 v 0 c 9.94,3.13 20.5,-2.42 23.62,-12.32 l 27.37,-87.37" /><path
         id="path106"
         style="fill:#4a2a11;fill-opacity:1;fill-rule:nonzero;stroke:none"
         d="m 3721.16,7467.36 c 3.14,-9.96 -2.39,-20.52 -12.35,-23.64 v 0 c -9.9,-3.1 -20.47,2.39 -23.55,12.35 l -27.41,87.37 c -3.1,9.9 2.41,20.5 12.35,23.61 v 0 c 9.9,3.08 20.46,-2.42 23.58,-12.32 l 27.38,-87.37" /><path
         id="path108"
         style="fill:#4a2a11;fill-opacity:1;fill-rule:nonzero;stroke:none"
         d="m 3036.53,6805.8 c 3.11,-9.93 -2.41,-20.53 -12.37,-23.61 v 0 c -9.88,-3.08 -20.44,2.42 -23.55,12.38 l -27.39,87.36 c -3.1,9.94 2.39,20.47 12.32,23.62 v 0 c 9.93,3.07 20.5,-2.45 23.61,-12.33 l 27.38,-87.42" /><path
         id="path110"
         style="fill:#4a2a11;fill-opacity:1;fill-rule:nonzero;stroke:none"
         d="m 4478.99,7091.18 c -9.15,-5.02 -20.55,-1.7 -25.57,7.42 v 0 c -5.01,9.15 -1.66,20.56 7.49,25.57 l 80.24,44.02 c 9.15,5.01 20.59,1.69 25.57,-7.43 v 0 c 5.01,-9.11 1.66,-20.58 -7.45,-25.57 l -80.28,-44.01" /><path
         id="path112"
         style="fill:#4a2a11;fill-opacity:1;fill-rule:nonzero;stroke:none"
         d="m 4232.56,7466.85 c -9.08,-5.01 -20.53,-1.66 -25.54,7.46 v 0 c -4.98,9.11 -1.66,20.55 7.49,25.53 l 80.27,44.08 c 9.12,4.98 20.56,1.63 25.57,-7.48 v 0 c 5.01,-9.13 1.63,-20.6 -7.49,-25.58 l -80.3,-44.01" /><path
         id="path114"
         style="fill:#4a2a11;fill-opacity:1;fill-rule:nonzero;stroke:none"
         d="m 3237.95,6599.67 c -9.11,-4.98 -20.56,-1.63 -25.6,7.45 v 0 c -4.98,9.15 -1.63,20.57 7.49,25.58 l 80.3,44.01 c 9.12,5.01 20.56,1.66 25.54,-7.42 v 0 c 5.01,-9.12 1.66,-20.59 -7.42,-25.58 l -80.31,-44.04" /><path
         id="path116"
         style="fill:#4a2a11;fill-opacity:1;fill-rule:nonzero;stroke:none"
         d="m 4327.96,5673.8 c -9.12,-4.98 -20.59,-1.66 -25.57,7.52 v 0 c -4.98,9.09 -1.66,20.53 7.45,25.51 l 80.31,44.04 c 9.15,4.98 20.59,1.63 25.57,-7.48 v 0 c 4.95,-9.09 1.66,-20.5 -7.46,-25.54 l -80.3,-44.05" /><path
         id="path118"
         style="fill:#4a2a11;fill-opacity:1;fill-rule:nonzero;stroke:none"
         d="m 4676.4,6045.52 c -9.11,-4.98 -20.53,-1.69 -25.54,7.46 v 0 c -5.01,9.08 -1.69,20.56 7.43,25.56 l 80.3,44.02 c 9.14,5.01 20.59,1.66 25.57,-7.45 v 0 c 5.01,-9.12 1.66,-20.56 -7.46,-25.54 l -80.3,-44.05" /><path
         id="path120"
         style="fill:#4a2a11;fill-opacity:1;fill-rule:nonzero;stroke:none"
         d="m 3479.04,5885.1 c -2.02,-10.24 -11.92,-16.85 -22.16,-14.86 v 0 c -10.17,2.03 -16.84,11.9 -14.79,22.1 l 17.72,89.87 c 2.03,10.24 11.93,16.82 22.13,14.82 v 0 c 10.2,-2.02 16.85,-11.92 14.85,-22.12 l -17.75,-89.81" /><path
         id="path122"
         style="fill:#4a2a11;fill-opacity:1;fill-rule:nonzero;stroke:none"
         d="m 4266.13,5505.89 c -10.26,1.9 -16.96,11.75 -15.07,22.01 v 0 c 1.91,10.21 11.69,16.9 21.95,15.03 l 90.06,-16.85 c 10.2,-1.93 16.93,-11.73 15.03,-21.94 v 0 c -1.93,-10.23 -11.77,-17 -21.98,-15.04 l -89.99,16.79" /><path
         id="path124"
         style="fill:#4a2a11;fill-opacity:1;fill-rule:nonzero;stroke:none"
         d="m 4991.27,6060.37 c -10.26,1.91 -16.96,11.71 -15.06,21.95 v 0 c 1.9,10.23 11.71,16.94 21.94,15 l 90.03,-16.78 c 10.23,-1.94 16.97,-11.75 15.06,-21.98 v 0 c -1.9,-10.2 -11.74,-16.9 -21.98,-15.03 l -89.99,16.84" /><path
         id="path126"
         style="fill:#4a2a11;fill-opacity:1;fill-rule:nonzero;stroke:none"
         d="m 4310.57,7301.68 c -10.24,1.87 -16.97,11.72 -15.03,21.98 v 0 c 1.93,10.21 11.74,16.96 21.97,15.04 l 90.03,-16.85 c 10.2,-1.9 16.93,-11.71 15.03,-21.98 v 0 c -1.9,-10.2 -11.77,-16.9 -21.97,-15 l -90.03,16.81" /><path
         id="path128"
         style="fill:#4a2a11;fill-opacity:1;fill-rule:nonzero;stroke:none"
         d="m 4004.09,7688.32 c -10.23,1.89 -16.97,11.74 -15.04,21.94 v 0 c 1.88,10.24 11.72,16.97 21.96,15.03 l 89.99,-16.78 c 10.26,-1.93 16.99,-11.77 15.03,-21.98 v 0 c -1.87,-10.23 -11.71,-16.96 -21.92,-15.03 l -90.02,16.82" /><path
         id="path130"
         style="fill:#4a2a11;fill-opacity:1;fill-rule:nonzero;stroke:none"
         d="m 3219.66,6012.55 c -1.99,-10.17 -11.93,-16.85 -22.1,-14.79 v 0 c -10.21,2.03 -16.85,11.89 -14.85,22.1 l 17.75,89.84 c 1.99,10.2 11.89,16.84 22.13,14.82 v 0 c 10.17,-2.02 16.81,-11.92 14.82,-22.13 l -17.75,-89.84" /><path
         id="path132"
         style="fill:#4a2a11;fill-opacity:1;fill-rule:nonzero;stroke:none"
         d="m 3393.18,5686.69 c -2.05,-10.21 -11.92,-16.85 -22.15,-14.85 v 0 c -10.18,2.05 -16.82,11.95 -14.79,22.15 l 17.74,89.85 c 2.03,10.17 11.9,16.81 22.1,14.79 v 0 c 10.21,-1.99 16.85,-11.89 14.83,-22.1 l -17.73,-89.84" /><path
         id="path134"
         style="fill:#4a2a11;fill-opacity:1;fill-rule:nonzero;stroke:none"
         d="m 3222.95,7050.3 c -9.12,-4.98 -20.56,-1.66 -25.57,7.45 v 0 c -4.98,9.12 -1.66,20.57 7.48,25.58 l 80.31,44.04 c 9.12,5.01 20.56,1.63 25.54,-7.49 v 0 c 4.98,-9.11 1.63,-20.52 -7.43,-25.53 l -80.33,-44.05" /><path
         id="path136"
         style="fill:#4a2a11;fill-opacity:1;fill-rule:nonzero;stroke:none"
         d="m 5067.62,6846.19 c -9.15,-5.01 -20.56,-1.69 -25.57,7.46 v 0 c -5.01,9.08 -1.66,20.56 7.46,25.54 l 80.3,44.04 c 9.12,5.01 20.56,1.63 25.57,-7.48 v 0 c 4.98,-9.12 1.63,-20.56 -7.49,-25.54 l -80.27,-44.02" /><path
         id="path138"
         style="fill:#4a2a11;fill-opacity:1;fill-rule:nonzero;stroke:none"
         d="m 4853.31,5831.36 c -9.12,-4.98 -20.6,-1.66 -25.58,7.49 v 0 c -4.98,9.08 -1.63,20.52 7.47,25.51 l 80.3,44.04 c 9.11,5.01 20.53,1.66 25.54,-7.42 v 0 c 5,-9.12 1.68,-20.6 -7.43,-25.58 l -80.3,-44.04" /><path
         id="path140"
         style="fill:#4a2a11;fill-opacity:1;fill-rule:nonzero;stroke:none"
         d="m 2914.81,6187.29 c -9.15,-5.01 -20.59,-1.67 -25.57,7.46 v 0 c -5.04,9.08 -1.66,20.55 7.46,25.53 l 80.3,44.05 c 9.11,5.01 20.59,1.66 25.54,-7.43 v 0 c 5.01,-9.12 1.66,-20.59 -7.43,-25.6 l -80.3,-44.01" /><path
         id="path142"
         style="fill:#eb8d8b;fill-opacity:1;fill-rule:nonzero;stroke:none"
         d="m 5291.47,1300.08 c -12.47,-28.38 -45.58,-41.24 -73.93,-28.74 L 2794.38,2338.76 c -28.37,12.5 -41.2,45.64 -28.74,73.96 l 1067.43,2423.22 c 12.53,28.32 45.61,41.17 73.96,28.67 L 6330.19,3797.19 c 28.37,-12.5 41.24,-45.62 28.71,-73.97 L 5291.47,1300.08" /><path
         id="path144"
         style="fill:#ef543e;fill-opacity:1;fill-rule:nonzero;stroke:none"
         d="m 2908.68,3364.34 0.21,3.2 c 14.43,583.71 401.52,692.93 434.21,701.05 79.85,9.42 144.58,-7.37 197.89,-51.35 131.63,-108.53 148.17,-343.7 148.35,-346.06 l 3.26,-74.87 65.21,79.1 c -0.12,2.11 -31.91,510.64 -426.63,460.8 0,0 -474.36,-99.29 -490.88,-766.98 0,0 -21.58,-303.76 237.89,-517.8 l 43.66,52.89 c -229.56,189.37 -213.35,457.36 -213.17,460.02" /><path
         id="path146"
         style="fill:#db4c39;fill-opacity:1;fill-rule:nonzero;stroke:none"
         d="m 4291.37,3344.3 c -26.2,397.53 -533.08,331.17 -533.56,331.05 v 0.06 l -65.21,-79.1 0.15,-4.28 75.93,15.58 c 22.52,2.47 240.54,23.44 366.01,-80.03 53.28,-43.97 82.11,-104.37 88.06,-184.55 -1.78,-37.43 -33.99,-434.07 -605.68,-559.65 l -1.51,-0.29 -1.58,-0.43 c -10.44,-2.72 -264.57,-66.02 -492.1,121.66 -0.03,0 -0.03,0 -0.03,0 l -43.66,-52.89 c 0,0 0,0 0.03,-0.03 259.51,-214.01 553.58,-134.97 553.58,-134.97 652.38,143.28 659.57,627.87 659.57,627.87" /><path
         id="path148"
         style="fill:#eb604f;fill-opacity:1;fill-rule:nonzero;stroke:none"
         d="m 3615.83,3189.48 c -70.16,-85.01 -195.96,-97.15 -281.06,-26.92 l -212.92,-258.24 c 0,0 0,0 0.03,0 227.53,-187.68 481.66,-124.38 492.1,-121.66 l 1.58,0.43 1.51,0.29 c 571.69,125.58 603.9,522.22 605.68,559.65 -5.95,80.18 -34.78,140.58 -88.06,184.55 -125.47,103.47 -343.49,82.5 -366.01,80.03 l -75.93,-15.58 -0.15,4.28 -103.79,-125.76 c 85.11,-70.16 97.18,-195.99 27.02,-281.07" /><path
         id="path150"
         style="fill:#ff6857;fill-opacity:1;fill-rule:nonzero;stroke:none"
         d="m 3540.99,4017.24 c -53.31,43.98 -118.04,60.77 -197.89,51.35 -32.69,-8.12 -419.78,-117.34 -434.21,-701.05 l -0.21,-3.2 c -0.18,-2.66 -16.39,-270.65 213.17,-460.02 l 212.92,258.24 c -85.01,70.1 -97.12,195.98 -26.96,280.99 70.16,85.08 195.96,97.15 281,27 l 103.79,125.76 -3.26,74.87 c -0.18,2.36 -16.72,237.53 -148.35,346.06" /><path
         id="path152"
         style="fill:#eb5441;fill-opacity:1;fill-rule:nonzero;stroke:none"
         d="m 3307.81,3443.55 c -70.16,-85.01 -58.05,-210.89 26.96,-280.99 l 254.04,307.99 c -85.04,70.15 -210.84,58.08 -281,-27" /><path
         id="path154"
         style="fill:#db4c39;fill-opacity:1;fill-rule:nonzero;stroke:none"
         d="m 3615.83,3189.48 c 70.16,85.08 58.09,210.91 -27.02,281.07 l -254.04,-307.99 c 85.1,-70.23 210.9,-58.09 281.06,26.92" /><path
         id="path156"
         style="fill:#af2a17;fill-opacity:1;fill-rule:nonzero;stroke:none"
         d="m 3632.43,3767.91 c 0,0 -11.56,213.92 -246.43,233.17 0,0 -241.72,-2.29 -384.43,-320.66 0,0 -116.83,-260.65 -0.57,-569.09 0,0 110.97,-129.73 155.53,59.74 0,0 -21.61,442.99 328.88,448.28 0,0 140.32,-14.92 147.02,148.56" /><path
         id="path158"
         style="fill:#fff66f;fill-opacity:1;fill-rule:nonzero;stroke:none"
         d="m 3461.29,3808.12 c -10.08,8.34 -16.78,20.83 -18.05,34.05 -1.3,13.29 2.83,26.81 11.23,36.99 8.54,10.32 20.86,16.78 34.11,18.05 26.51,2.57 52.47,-18.84 55.22,-45.14 1.05,-13.52 -3.14,-27.01 -11.48,-37.13 -8.36,-10.15 -20.64,-16.57 -34.11,-18.11 -13.25,-1.26 -26.8,2.93 -36.92,11.29" /><path
         id="path160"
         style="fill:#fff66f;fill-opacity:1;fill-rule:nonzero;stroke:none"
         d="m 3269.71,3799.97 c -11.11,25.69 1.15,55.3 26.87,65.93 v 0 c 25.48,10.78 55.3,-1.14 66.12,-26.68 v 0 c 10.89,-25.91 -1.4,-55.55 -27.11,-66.15 v 0 c 0,0 0,0 0.26,-0.21 v 0 c -17.9,-7.46 -37.82,-3.62 -51.89,7.97 v 0 c -5.91,4.89 -11.11,11.29 -14.25,19.14 z m -135.36,-58.88 c 17.23,21.99 48.9,25.97 70.88,8.7 v 0 c 21.98,-17.23 25.93,-48.84 8.73,-70.88 v 0 c -16.79,-21.86 -48.88,-25.9 -70.62,-8.87 v 0 c -0.51,0.36 -0.78,0.66 -1.33,1.08 v 0 c -20.98,17.33 -24.42,48.06 -7.66,69.97 z m -87.98,-178.59 c 7.7,26.75 35.9,41.93 62.67,34.24 v 0 c 26.81,-7.7 41.97,-35.93 34.24,-62.68 v 0 c -8,-26.56 -35.93,-41.9 -62.7,-34.2 v 0 c -6.64,1.94 -12.71,5.22 -17.87,9.48 v 0 c -15.04,12.41 -22.04,33.02 -16.34,53.16 z m -31.52,-189.38 c 1.91,27.63 25.88,48.79 53.56,46.98 v 0 c 27.86,-1.66 49.06,-25.69 47.19,-53.34 v 0 0 0 c -1.64,-27.87 -25.63,-49.09 -53.53,-47.4 v 0 c -11.04,0.79 -21.01,5.1 -28.83,11.56 v 0 c -12.2,10.03 -19.65,25.33 -18.39,42.2" /><path
         id="path162"
         style="fill:#fff66f;fill-opacity:1;fill-rule:nonzero;stroke:none"
         d="m 3034.72,3149.15 c -10.17,8.4 -16.79,20.41 -18.08,33.63 -1.27,13.26 2.93,26.87 11.26,36.96 8.6,10.42 21.07,17.06 33.87,18.29 26.99,2.59 52.71,-18.6 55.25,-45.59 1.3,-13.28 -2.66,-26.5 -11.23,-36.91 -8.34,-10.12 -20.9,-16.82 -34.12,-18.09 -13.53,-1.05 -26.63,3.2 -36.95,11.71" /><path
         id="path164"
         style="fill:#962512;fill-opacity:1;fill-rule:nonzero;stroke:none"
         d="m 3872.44,3569.92 c 0,0 212.26,29.36 275.83,-197.55 0,0 43.78,-237.74 -241.66,-438.41 0,0 -233.63,-164.31 -558.56,-108.88 0,0 -148.47,84.29 29.04,164.07 0,0 439.01,63.1 377.52,408.15 0,0 -41.36,134.89 117.83,172.62" /><path
         id="path166"
         style="fill:#dbd361;fill-opacity:1;fill-rule:nonzero;stroke:none"
         d="m 3944.5,3409.56 c 10.14,-8.33 23.66,-12.53 36.92,-11.29 13.25,1.33 25.78,7.94 34.14,18.12 8.55,10.32 12.5,23.63 11.23,36.92 -2.53,26.53 -28.47,47.94 -54.79,45.62 -13.49,-1.55 -25.96,-8.22 -34.32,-18.36 -8.34,-10.08 -12.32,-23.43 -11.29,-36.92 1.29,-13.22 8.02,-25.76 18.11,-34.09" /><path
         id="path168"
         style="fill:#dbd361;fill-opacity:1;fill-rule:nonzero;stroke:none"
         d="m 3951.44,3230.3 v 0 c -14.01,11.57 -21.56,30.37 -17.69,49.39 v 0 c 0.3,-0.18 0.3,-0.18 0.3,-0.18 v 0 c 5.5,27.29 32.24,44.92 59.78,39.18 v 0 c 27.08,-5.79 44.5,-32.72 38.76,-59.83 v 0 c -5.53,-27.29 -32.31,-44.92 -59.66,-38.94 -8.24,1.56 -15.51,5.43 -21.49,10.38 z m -80.66,-160.24 v 0 c -0.57,0.45 -0.82,0.66 -1.34,1.08 v 0 c -20.83,18.09 -22.97,50.39 -4.67,71.01 v 0 c 18.29,21.13 50.14,23.24 71.22,4.92 v 0 c 21.13,-18.29 23.24,-50.08 4.95,-71.21 -18.36,-20.6 -49.18,-23.13 -70.16,-5.8 z m -143.73,-108.65 v 0 c -5.17,4.25 -9.51,9.57 -12.74,15.76 v 0 c -12.65,24.84 -2.87,55.1 21.7,68.02 v 0 c 24.82,12.67 55.37,3.13 68.02,-21.68 v 0 c 12.65,-24.82 3.11,-55.37 -21.65,-68.02 -18.72,-9.45 -40.27,-6.49 -55.33,5.92 z m -169.55,-62.88 v 0 c -7.84,6.45 -13.92,15.4 -16.87,26.11 v 0 c -6.95,27.05 9.33,54.67 36.34,61.55 v 0 0 0 c 26.81,7.13 54.44,-9.12 61.32,-36.16 v 0 c 7.13,-26.85 -9.12,-54.41 -35.9,-61.53 -16.3,-4.41 -32.72,-0.06 -44.89,10.03" /><path
         id="path170"
         style="fill:#dbd361;fill-opacity:1;fill-rule:nonzero;stroke:none"
         d="m 3378.75,2865.35 c 10.18,-8.37 23.25,-12.6 36.5,-11.33 13.23,1.3 25.76,8.01 34.09,18.12 8.57,10.38 12.77,23.9 11.59,36.71 -2.66,26.99 -28.32,48.18 -55.3,45.64 -13.29,-1.33 -25.55,-7.72 -34.12,-18.17 -8.37,-10.08 -12.56,-23.66 -11.29,-36.89 1.54,-13.46 8.21,-25.54 18.53,-34.08" /><path
         id="path172"
         style="fill:#6c9a3e;fill-opacity:1;fill-rule:nonzero;stroke:none"
         d="m 6368.97,2739.73 c -14.39,17.26 -14.58,45.64 -0.39,63.03 14.22,17.45 11.63,43.41 -5.7,57.73 -17.32,14.3 -22.7,42.17 -11.95,61.91 10.74,19.78 3.41,44.81 -16.25,55.71 -19.68,10.85 -30.1,37.3 -23.15,58.62 6.94,21.43 -4.8,44.72 -26.18,51.81 -21.34,7.12 -36.43,31.09 -33.53,53.39 2.86,22.32 -12.96,43.06 -35.24,46.05 -22.27,3.05 -41.54,23.9 -42.81,46.37 -1.23,22.43 -20.64,39.91 -43.08,38.79 -22.46,-1.09 -45.22,15.84 -50.59,37.7 -5.31,21.8 -27.62,35.45 -49.48,30.22 -21.86,-5.22 -47.34,7.31 -56.64,27.72 -9.26,20.5 -33.69,29.79 -54.21,20.61 -20.53,-9.11 -47.89,-1.5 -60.81,16.92 -12.83,18.41 -38.55,23.06 -57.06,10.25 -18.47,-12.73 -46.78,-10.32 -62.82,5.47 -6.97,6.8 -15.82,10.48 -24.87,11.32 v -78.04 c 325.04,0 588.56,-263.51 588.56,-588.59 0,-325.02 -263.52,-588.51 -588.56,-588.51 v -77.31 c 11.89,-1.11 24.12,2.65 33.11,11.72 15.85,15.93 44.08,18.71 62.77,6.18 18.68,-12.49 44.29,-7.55 56.97,11.05 12.61,18.57 39.84,26.48 60.49,17.63 20.68,-8.88 44.95,0.72 53.98,21.29 9.03,20.61 34.36,33.38 56.27,28.47 21.95,-4.95 44.05,8.93 49.12,30.82 5.1,21.91 27.66,39.15 50.12,38.37 22.45,-0.91 41.62,16.84 42.59,39.3 0.97,22.46 19.96,43.6 42.21,46.86 22.21,3.32 37.82,24.27 34.65,46.51 -3.17,22.26 11.6,46.47 32.85,53.9 21.26,7.33 32.76,30.79 25.57,52.01 -7.24,21.32 2.86,47.82 22.37,58.95 19.53,11.12 26.54,36.29 15.51,55.92 -10.98,19.56 -5.91,47.52 11.23,62.07 17.12,14.49 19.36,40.51 4.95,57.78" /><path
         id="path174"
         style="fill:#6f9d30;fill-opacity:1;fill-rule:nonzero;stroke:none"
         d="m 5125.62,2766.72 c 0,325.08 263.54,588.59 588.59,588.59 v 78.04 c -11.9,1.12 -24.12,-2.66 -33.15,-11.71 -15.82,-15.94 -44.05,-18.72 -62.73,-6.19 -18.66,12.53 -44.29,7.55 -56.94,-11.02 -12.68,-18.59 -39.91,-26.5 -60.56,-17.66 -20.64,8.9 -44.95,-0.7 -53.95,-21.28 -9.02,-20.59 -34.35,-33.39 -56.27,-28.47 -21.92,4.95 -44.05,-8.96 -49.12,-30.85 -5.1,-21.89 -27.65,-39.13 -50.08,-38.32 -22.49,0.82 -41.66,-16.83 -42.63,-39.35 -0.96,-22.45 -19.98,-43.51 -42.2,-46.86 -22.22,-3.32 -37.83,-24.28 -34.66,-46.49 3.2,-22.28 -11.59,-46.5 -32.84,-53.86 -21.26,-7.36 -32.73,-30.79 -25.57,-52.11 7.27,-21.25 -2.84,-47.75 -22.38,-58.9 -19.53,-11.14 -26.53,-36.29 -15.51,-55.91 10.93,-19.58 5.95,-47.49 -11.23,-62.04 -17.15,-14.52 -19.38,-40.57 -5.01,-57.81 14.43,-17.23 14.67,-45.61 0.42,-63.06 -14.19,-17.39 -11.63,-43.41 5.71,-57.69 17.32,-14.35 22.73,-42.18 12.01,-61.92 -10.78,-19.74 -3.47,-44.8 16.18,-55.67 19.69,-10.93 30.1,-37.31 23.18,-58.72 -6.94,-21.35 4.84,-44.65 26.18,-51.71 21.34,-7.13 36.41,-31.16 33.54,-53.44 -2.9,-22.27 12.98,-42.98 35.23,-46.06 22.28,-3.06 41.54,-23.89 42.81,-46.35 1.24,-22.42 20.68,-39.87 43.08,-38.85 22.46,1.15 45.25,-15.79 50.57,-37.64 5.34,-21.83 27.65,-35.44 49.5,-30.23 21.89,5.23 47.34,-7.3 56.64,-27.73 9.3,-20.51 33.7,-29.77 54.19,-20.63 20.56,9.15 47.91,1.58 60.8,-16.87 12.87,-18.45 38.55,-23.07 57.09,-10.29 18.48,12.79 46.73,10.35 62.82,-5.43 6.98,-6.77 15.79,-10.45 24.88,-11.33 v 77.31 c -325.05,0 -588.59,263.49 -588.59,588.51" /><path
         id="path176"
         style="fill:#cdd2b1;fill-opacity:1;fill-rule:nonzero;stroke:none"
         d="m 6224.77,2766.72 c 0,-281.91 -228.57,-510.5 -510.56,-510.5 v -78.01 c 325.04,0 588.56,263.49 588.56,588.51 0,325.08 -263.52,588.59 -588.56,588.59 v -77.98 c 281.99,0 510.56,-228.65 510.56,-510.61" /><path
         id="path178"
         style="fill:#dee3bf;fill-opacity:1;fill-rule:nonzero;stroke:none"
         d="m 5125.62,2766.72 c 0,-325.02 263.54,-588.51 588.59,-588.51 v 78.01 c -282,0 -510.59,228.59 -510.59,510.5 0,281.96 228.59,510.61 510.59,510.61 v 77.98 c -325.05,0 -588.59,-263.51 -588.59,-588.59" /><path
         id="path180"
         style="fill:#f2f7cf;fill-opacity:1;fill-rule:nonzero;stroke:none"
         d="m 5582.62,2495.92 c -63.59,-10.57 -118.28,-0.09 -122.12,23.37 -3.9,23.37 44.47,50.96 107.99,61.49 63.57,10.61 118.16,0.04 122.11,-23.4 3.89,-23.36 -44.44,-50.95 -107.98,-61.46 z m -168.58,101.68 c -11.83,20.58 23.69,63.43 79.46,95.64 55.85,32.21 110.73,41.66 122.59,21.04 11.87,-20.62 -23.67,-63.36 -79.52,-95.61 -55.78,-32.24 -110.67,-41.66 -122.53,-21.07 z m -44.62,79.39 c -18.36,15.1 -0.09,67.69 40.76,117.44 40.93,49.79 88.99,77.89 107.35,62.83 18.29,-15.13 0.06,-67.72 -40.82,-117.41 -40.85,-49.81 -89,-77.89 -107.29,-62.86 z m 176.03,339.21 c 22.61,60.32 59.02,102.4 81.27,94.03 22.25,-8.36 21.98,-63.99 -0.69,-124.34 -22.65,-60.26 -59.06,-102.34 -81.3,-94.01 -22.25,8.31 -21.95,64 0.72,124.32 z m 129.3,-21.61 c 0,61.13 17.39,111.18 39.46,116.19 v 166.55 c -282,0 -510.59,-228.65 -510.59,-510.61 0,-281.91 228.59,-510.5 510.59,-510.5 v 622.23 c -22.07,5.04 -39.46,55.04 -39.46,116.14" /><path
         id="path182"
         style="fill:#e9ecca;fill-opacity:1;fill-rule:nonzero;stroke:none"
         d="m 6055.4,2670.72 c -18.35,-15.01 -66.44,13.1 -107.26,62.8 -40.93,49.8 -59.19,102.33 -40.85,117.49 18.34,15.03 66.39,-13.01 107.33,-62.83 40.97,-49.72 59.14,-102.37 40.78,-117.46 z m -44.65,-79.33 c -11.89,-20.6 -66.75,-11.18 -122.57,21 -55.75,32.24 -91.34,75.05 -79.48,95.64 11.95,20.59 66.75,11.23 122.54,-21.01 55.82,-32.24 91.47,-75.11 79.51,-95.63 z m -46.42,-78.41 c -3.87,-23.4 -58.57,-33.9 -122.06,-23.33 -63.58,10.5 -111.97,38.09 -108.11,61.52 3.98,23.42 58.66,33.87 122.15,23.36 63.51,-10.47 111.88,-38.09 108.02,-61.55 z m -155.42,597.25 c 22.22,8.37 58.69,-33.71 81.3,-94.03 22.67,-60.32 22.97,-116.01 0.73,-124.32 -22.26,-8.33 -58.66,33.75 -81.3,94.01 -22.68,60.35 -22.98,115.98 -0.73,124.34 z m 415.86,-343.51 c 0,281.96 -228.57,510.61 -510.56,510.61 v -166.55 c 1.21,0.27 2.38,0.52 3.62,0.52 23.76,0 43.05,-52.26 43.05,-116.71 0,-64.39 -19.29,-116.59 -43.05,-116.59 -1.24,0 -2.41,0.2 -3.62,0.45 v -622.23 c 281.99,0 510.56,228.59 510.56,510.5" /><path
         id="path184"
         style="fill:#dee3bf;fill-opacity:1;fill-rule:nonzero;stroke:none"
         d="m 5674.75,2994.59 c 0,-61.1 17.39,-111.1 39.46,-116.14 v 232.33 c -22.07,-5.01 -39.46,-55.06 -39.46,-116.19" /><path
         id="path186"
         style="fill:#cdd2b1;fill-opacity:1;fill-rule:nonzero;stroke:none"
         d="m 5717.83,2878 c 23.76,0 43.05,52.2 43.05,116.59 0,64.45 -19.29,116.71 -43.05,116.71 -1.24,0 -2.41,-0.25 -3.62,-0.52 v -232.33 c 1.21,-0.25 2.38,-0.45 3.62,-0.45" /><path
         id="path188"
         style="fill:#cdd2b1;fill-opacity:1;fill-rule:nonzero;stroke:none"
         d="m 5890.94,2891.88 c 22.24,8.31 21.94,64 -0.73,124.32 -22.61,60.32 -59.08,102.4 -81.3,94.03 -22.25,-8.36 -21.95,-63.99 0.73,-124.34 22.64,-60.26 59.04,-102.34 81.3,-94.01" /><path
         id="path190"
         style="fill:#dee3bf;fill-opacity:1;fill-rule:nonzero;stroke:none"
         d="m 5544.73,2891.88 c 22.24,-8.33 58.65,33.75 81.3,94.01 22.67,60.35 22.94,115.98 0.69,124.34 -22.25,8.37 -58.66,-33.71 -81.27,-94.03 -22.67,-60.32 -22.97,-116.01 -0.72,-124.32" /><path
         id="path192"
         style="fill:#cdd2b1;fill-opacity:1;fill-rule:nonzero;stroke:none"
         d="m 5931.24,2687.02 c -55.79,32.24 -110.59,41.6 -122.54,21.01 -11.86,-20.59 23.73,-63.4 79.48,-95.64 55.82,-32.18 110.68,-41.6 122.57,-21 11.96,20.52 -23.69,63.39 -79.51,95.63" /><path
         id="path194"
         style="fill:#cdd2b1;fill-opacity:1;fill-rule:nonzero;stroke:none"
         d="m 5856.31,2574.53 c -63.49,10.51 -118.17,0.06 -122.15,-23.36 -3.86,-23.43 44.53,-51.02 108.11,-61.52 63.49,-10.57 118.19,-0.07 122.06,23.33 3.86,23.46 -44.51,51.08 -108.02,61.55" /><path
         id="path196"
         style="fill:#cdd2b1;fill-opacity:1;fill-rule:nonzero;stroke:none"
         d="m 5907.29,2851.01 c -18.34,-15.16 -0.08,-67.69 40.85,-117.49 40.82,-49.7 88.91,-77.81 107.26,-62.8 18.36,15.09 0.19,67.74 -40.78,117.46 -40.94,49.82 -88.99,77.86 -107.33,62.83" /><path
         id="path198"
         style="fill:#dee3bf;fill-opacity:1;fill-rule:nonzero;stroke:none"
         d="m 5616.09,2714.28 c -11.86,20.62 -66.74,11.17 -122.59,-21.04 -55.77,-32.21 -91.29,-75.06 -79.46,-95.64 11.86,-20.59 66.75,-11.17 122.53,21.07 55.85,32.25 91.39,74.99 79.52,95.61" /><path
         id="path200"
         style="fill:#dee3bf;fill-opacity:1;fill-rule:nonzero;stroke:none"
         d="m 5476.71,2739.85 c 40.88,49.69 59.11,102.28 40.82,117.41 -18.36,15.06 -66.42,-13.04 -107.35,-62.83 -40.85,-49.75 -59.12,-102.34 -40.76,-117.44 18.29,-15.03 66.44,13.05 107.29,62.86" /><path
         id="path202"
         style="fill:#dee3bf;fill-opacity:1;fill-rule:nonzero;stroke:none"
         d="m 5568.49,2580.78 c -63.52,-10.53 -111.89,-38.12 -107.99,-61.49 3.84,-23.46 58.53,-33.94 122.12,-23.37 63.54,10.51 111.87,38.1 107.98,61.46 -3.95,23.44 -58.54,34.01 -122.11,23.4" /><path
         id="path204"
         style="fill:#6c9a3e;fill-opacity:1;fill-rule:nonzero;stroke:none"
         d="m 4966.76,4147.8 c -14.44,17.28 -14.58,45.66 -0.42,63.1 14.22,17.42 11.62,43.38 -5.71,57.72 -17.33,14.28 -22.67,42.14 -11.96,61.89 10.75,19.74 3.45,44.77 -16.24,55.67 -19.65,10.93 -30.1,37.32 -23.15,58.68 6.97,21.38 -4.83,44.69 -26.15,51.78 -21.37,7.09 -36.46,31.12 -33.54,53.38 2.84,22.33 -12.98,43.05 -35.25,46.09 -22.29,3.02 -41.55,23.85 -42.79,46.31 -1.26,22.46 -20.71,39.91 -43.1,38.83 -22.46,-1.09 -45.23,15.88 -50.6,37.68 -5.32,21.85 -27.63,35.44 -49.48,30.21 -21.86,-5.22 -47.33,7.31 -56.64,27.74 -9.29,20.5 -33.68,29.77 -54.19,20.66 -20.55,-9.18 -47.94,-1.57 -60.8,16.83 -12.85,18.48 -38.58,23.07 -57.08,10.34 -18.48,-12.81 -46.77,-10.39 -62.82,5.4 -6.95,6.82 -15.77,10.48 -24.88,11.32 v -78.01 c 325.07,0 588.56,-263.55 588.56,-588.57 0,-325.05 -263.49,-588.56 -588.56,-588.56 V 3509 c 11.89,-1.14 24.15,2.63 33.15,11.68 15.82,15.98 44.07,18.72 62.73,6.19 18.68,-12.5 44.32,-7.53 56.96,11.06 12.65,18.59 39.89,26.47 60.56,17.63 20.63,-8.85 44.89,0.72 53.92,21.31 9.03,20.59 34.36,33.42 56.28,28.44 21.94,-4.92 44.04,8.94 49.11,30.85 5.11,21.93 27.65,39.13 50.09,38.34 22.49,-0.85 41.66,16.85 42.62,39.31 0.97,22.46 19.95,43.59 42.2,46.88 22.23,3.32 37.83,24.24 34.63,46.53 -3.14,22.27 11.66,46.48 32.91,53.85 21.22,7.34 32.72,30.8 25.54,52.07 -7.25,21.29 2.84,47.83 22.4,58.91 19.5,11.16 26.5,36.28 15.49,55.91 -10.96,19.56 -5.92,47.51 11.23,62.06 17.15,14.49 19.38,40.52 4.98,57.78" /><path
         id="path206"
         style="fill:#6f9d30;fill-opacity:1;fill-rule:nonzero;stroke:none"
         d="m 3723.39,4174.85 c 0,325.02 263.49,588.57 588.57,588.57 v 78.01 c -11.9,1.15 -24.12,-2.62 -33.09,-11.65 -15.88,-15.94 -44.1,-18.78 -62.8,-6.25 -18.65,12.52 -44.31,7.54 -56.93,-11.02 -12.68,-18.6 -39.91,-26.5 -60.56,-17.63 -20.65,8.87 -44.95,-0.73 -53.95,-21.32 -9.02,-20.58 -34.35,-33.38 -56.27,-28.46 -21.91,4.98 -44.04,-8.94 -49.12,-30.82 -5.07,-21.86 -27.62,-39.16 -50.05,-38.34 -22.49,0.84 -41.66,-16.86 -42.66,-39.32 -0.93,-22.48 -19.95,-43.55 -42.17,-46.87 -22.22,-3.36 -37.83,-24.25 -34.66,-46.53 3.17,-22.24 -11.62,-46.49 -32.87,-53.83 -21.22,-7.33 -32.7,-30.79 -25.57,-52.07 7.28,-21.31 -2.87,-47.82 -22.37,-58.96 -19.53,-11.11 -26.54,-36.29 -15.52,-55.91 10.96,-19.6 5.92,-47.49 -11.2,-62.04 -17.15,-14.52 -19.42,-40.55 -5.01,-57.81 14.43,-17.24 14.61,-45.59 0.42,-63.03 -14.19,-17.42 -11.65,-43.45 5.68,-57.72 17.33,-14.31 22.73,-42.18 12.01,-61.93 -10.75,-19.73 -3.47,-44.79 16.21,-55.66 19.65,-10.93 30.1,-37.29 23.16,-58.69 -6.94,-21.37 4.86,-44.62 26.17,-51.74 21.35,-7.13 36.44,-31.13 33.54,-53.44 -2.87,-22.28 12.98,-42.99 35.23,-46.03 22.31,-3.05 41.57,-23.92 42.81,-46.35 1.27,-22.42 20.65,-39.9 43.11,-38.82 22.43,1.08 45.22,-15.85 50.56,-37.65 5.35,-21.88 27.63,-35.47 49.52,-30.25 21.85,5.22 47.33,-7.27 56.6,-27.74 9.3,-20.46 33.66,-29.8 54.22,-20.62 20.53,9.12 47.88,1.54 60.77,-16.88 12.86,-18.44 38.58,-23.02 57.09,-10.32 18.5,12.81 46.76,10.35 62.82,-5.44 6.97,-6.75 15.82,-10.44 24.88,-11.29 v 77.29 c -325.08,0 -588.57,263.51 -588.57,588.56" /><path
         id="path208"
         style="fill:#cdd2b1;fill-opacity:1;fill-rule:nonzero;stroke:none"
         d="m 4822.51,4174.85 c 0,-281.96 -228.55,-510.55 -510.55,-510.55 v -78.01 c 325.07,0 588.56,263.51 588.56,588.56 0,325.02 -263.49,588.57 -588.56,588.57 v -78.01 c 282,0 510.55,-228.61 510.55,-510.56" /><path
         id="path210"
         style="fill:#dee3bf;fill-opacity:1;fill-rule:nonzero;stroke:none"
         d="m 3723.39,4174.85 c 0,-325.05 263.49,-588.56 588.57,-588.56 v 78.01 c -281.97,0 -510.56,228.59 -510.56,510.55 0,281.95 228.59,510.56 510.56,510.56 v 78.01 c -325.08,0 -588.57,-263.55 -588.57,-588.57" /><path
         id="path212"
         style="fill:#f2f7cf;fill-opacity:1;fill-rule:nonzero;stroke:none"
         d="m 4180.36,3904 c -63.57,-10.56 -118.28,-0.05 -122.11,23.39 -3.87,23.37 44.49,51 107.99,61.5 63.57,10.56 118.18,0.07 122.14,-23.42 3.87,-23.37 -44.47,-50.97 -108.02,-61.47 z m -168.54,101.67 c -11.87,20.66 23.67,63.46 79.46,95.65 55.81,32.21 110.7,41.66 122.56,21.03 11.87,-20.61 -23.66,-63.37 -79.48,-95.6 -55.82,-32.18 -110.71,-41.63 -122.54,-21.08 z m -44.68,79.47 c -18.33,15.03 -0.09,67.65 40.81,117.37 40.91,49.81 88.97,77.88 107.35,62.85 18.3,-15.15 0.04,-67.71 -40.81,-117.43 -40.88,-49.81 -89,-77.89 -107.35,-62.79 z m 176.06,339.14 c 22.61,60.31 59.05,102.4 81.27,94.04 22.25,-8.3 21.98,-64 -0.66,-124.3 -22.65,-60.31 -59.11,-102.4 -81.3,-94.06 -22.31,8.33 -21.98,64 0.69,124.32 z m 129.33,-21.58 c 0,61.13 17.33,111.18 39.43,116.19 v 166.52 c -281.97,0 -510.56,-228.61 -510.56,-510.56 0,-281.96 228.59,-510.55 510.56,-510.55 v 622.28 c -22.1,4.98 -39.43,54.98 -39.43,116.12" /><path
         id="path214"
         style="fill:#e9ecca;fill-opacity:1;fill-rule:nonzero;stroke:none"
         d="m 4653.18,4078.79 c -18.38,-14.97 -66.47,13.13 -107.26,62.83 -40.93,49.78 -59.23,102.34 -40.9,117.46 18.38,15.07 66.44,-12.98 107.35,-62.76 40.96,-49.78 59.14,-102.43 40.81,-117.53 z m -44.67,-79.34 c -11.87,-20.52 -66.72,-11.16 -122.54,21.08 -55.79,32.18 -91.36,75.02 -79.52,95.58 11.95,20.59 66.78,11.23 122.56,-21.01 55.79,-32.25 91.45,-75.12 79.5,-95.65 z m -46.44,-78.4 c -3.86,-23.34 -58.53,-33.83 -122.05,-23.3 -63.61,10.47 -111.97,38.13 -108.08,61.5 3.96,23.43 58.63,33.93 122.15,23.43 63.49,-10.54 111.85,-38.17 107.98,-61.63 z m -155.38,597.27 c 22.22,8.36 58.66,-33.73 81.27,-94.04 22.67,-60.32 22.97,-115.99 0.72,-124.32 -22.24,-8.34 -58.65,33.75 -81.3,94.06 -22.66,60.3 -22.97,116 -0.69,124.3 z m 415.82,-343.47 c 0,281.95 -228.55,510.56 -510.55,510.56 v -166.52 c 1.2,0.24 2.42,0.48 3.62,0.48 23.79,0 43.05,-52.25 43.05,-116.67 0,-64.43 -19.26,-116.63 -43.05,-116.63 -1.2,0 -2.42,0.22 -3.62,0.51 V 3664.3 c 282,0 510.55,228.59 510.55,510.55" /><path
         id="path216"
         style="fill:#dee3bf;fill-opacity:1;fill-rule:nonzero;stroke:none"
         d="m 4272.53,4402.7 c 0,-61.14 17.33,-111.14 39.43,-116.12 v 232.31 c -22.1,-5.01 -39.43,-55.06 -39.43,-116.19" /><path
         id="path218"
         style="fill:#cdd2b1;fill-opacity:1;fill-rule:nonzero;stroke:none"
         d="m 4315.58,4286.07 c 23.79,0 43.05,52.2 43.05,116.63 0,64.42 -19.26,116.67 -43.05,116.67 -1.2,0 -2.42,-0.24 -3.62,-0.48 v -232.31 c 1.2,-0.29 2.42,-0.51 3.62,-0.51" /><path
         id="path220"
         style="fill:#cdd2b1;fill-opacity:1;fill-rule:nonzero;stroke:none"
         d="m 4488.68,4299.96 c 22.25,8.33 21.95,64 -0.72,124.32 -22.61,60.31 -59.05,102.4 -81.27,94.04 -22.28,-8.3 -21.97,-64 0.69,-124.3 22.65,-60.31 59.06,-102.4 81.3,-94.06" /><path
         id="path222"
         style="fill:#dee3bf;fill-opacity:1;fill-rule:nonzero;stroke:none"
         d="m 4142.51,4299.96 c 22.19,-8.34 58.65,33.75 81.3,94.06 22.64,60.3 22.91,116 0.66,124.3 -22.22,8.36 -58.66,-33.73 -81.27,-94.04 -22.67,-60.32 -23,-115.99 -0.69,-124.32" /><path
         id="path224"
         style="fill:#cdd2b1;fill-opacity:1;fill-rule:nonzero;stroke:none"
         d="m 4529.01,4095.1 c -55.78,32.24 -110.61,41.6 -122.56,21.01 -11.84,-20.56 23.73,-63.4 79.52,-95.58 55.82,-32.24 110.67,-41.6 122.54,-21.08 11.95,20.53 -23.71,63.4 -79.5,95.65" /><path
         id="path226"
         style="fill:#cdd2b1;fill-opacity:1;fill-rule:nonzero;stroke:none"
         d="m 4454.09,3982.68 c -63.52,10.5 -118.19,0 -122.15,-23.43 -3.89,-23.37 44.47,-51.03 108.08,-61.5 63.52,-10.53 118.19,-0.04 122.05,23.3 3.87,23.46 -44.49,51.09 -107.98,61.63" /><path
         id="path228"
         style="fill:#cdd2b1;fill-opacity:1;fill-rule:nonzero;stroke:none"
         d="m 4505.02,4259.08 c -18.33,-15.12 -0.03,-67.68 40.9,-117.46 40.79,-49.7 88.88,-77.8 107.26,-62.83 18.33,15.1 0.15,67.75 -40.81,117.53 -40.91,49.78 -88.97,77.83 -107.35,62.76" /><path
         id="path230"
         style="fill:#dee3bf;fill-opacity:1;fill-rule:nonzero;stroke:none"
         d="m 4213.84,4122.35 c -11.86,20.63 -66.75,11.18 -122.56,-21.03 -55.79,-32.19 -91.33,-74.99 -79.46,-95.65 11.83,-20.55 66.72,-11.1 122.54,21.08 55.82,32.23 91.35,74.99 79.48,95.6" /><path
         id="path232"
         style="fill:#dee3bf;fill-opacity:1;fill-rule:nonzero;stroke:none"
         d="m 4074.49,4147.93 c 40.85,49.72 59.11,102.28 40.81,117.43 -18.38,15.03 -66.44,-13.04 -107.35,-62.85 -40.9,-49.72 -59.14,-102.34 -40.81,-117.37 18.35,-15.1 66.47,12.98 107.35,62.79" /><path
         id="path234"
         style="fill:#dee3bf;fill-opacity:1;fill-rule:nonzero;stroke:none"
         d="m 4166.24,3988.89 c -63.5,-10.5 -111.86,-38.13 -107.99,-61.5 3.83,-23.44 58.54,-33.95 122.11,-23.39 63.55,10.5 111.89,38.1 108.02,61.47 -3.96,23.49 -58.57,33.98 -122.14,23.42" /><path
         id="path236"
         style="fill:#6c9a3e;fill-opacity:1;fill-rule:nonzero;stroke:none"
         d="m 4206.6,2247.29 c -14.37,17.23 -14.55,45.64 -0.36,63.03 14.18,17.45 11.62,43.47 -5.71,57.73 -17.33,14.33 -22.73,42.14 -11.99,61.91 10.75,19.78 3.45,44.81 -16.24,55.7 -19.65,10.92 -30.06,37.28 -23.15,58.69 6.97,21.34 -4.8,44.61 -26.18,51.74 -21.31,7.09 -36.4,31.13 -33.51,53.43 2.84,22.26 -12.98,43 -35.23,46.08 -22.31,2.95 -41.53,23.84 -42.8,46.3 -1.27,22.44 -20.65,39.92 -43.11,38.79 -22.43,-1.11 -45.19,15.85 -50.57,37.68 -5.35,21.83 -27.62,35.48 -49.51,30.25 -21.86,-5.22 -47.34,7.28 -56.64,27.75 -9.27,20.47 -33.68,29.76 -54.22,20.58 -20.52,-9.12 -47.84,-1.54 -60.77,16.91 -12.86,18.42 -38.58,23.06 -57.05,10.26 -18.51,-12.73 -46.8,-10.32 -62.86,5.44 -6.94,6.83 -15.78,10.5 -24.84,11.35 v -78.01 c 325.04,0 588.56,-263.54 588.56,-588.56 0,-325.08 -263.52,-588.6 -588.56,-588.6 v -77.28 c 11.86,-1.12 24.15,2.62 33.09,11.68 15.88,15.93 44.1,18.78 62.76,6.22 18.69,-12.5 44.29,-7.55 56.97,11.02 12.64,18.57 39.84,26.54 60.55,17.66 20.65,-8.88 44.96,0.69 53.92,21.31 9.06,20.59 34.39,33.4 56.27,28.44 21.95,-4.95 44.08,8.94 49.15,30.85 5.07,21.92 27.66,39.13 50.12,38.32 22.43,-0.83 41.63,16.87 42.6,39.33 0.93,22.46 19.95,43.57 42.2,46.85 22.18,3.39 37.82,24.27 34.62,46.49 -3.16,22.32 11.66,46.55 32.88,53.89 21.22,7.33 32.73,30.79 25.54,52.08 -7.22,21.25 2.87,47.82 22.4,58.95 19.5,11.12 26.51,36.26 15.52,55.89 -10.96,19.56 -5.95,47.51 11.2,62.06 17.14,14.49 19.38,40.52 4.95,57.79" /><path
         id="path238"
         style="fill:#6f9d30;fill-opacity:1;fill-rule:nonzero;stroke:none"
         d="m 2963.29,2274.34 c 0,325.02 263.52,588.56 588.57,588.56 v 78.01 c -11.9,1.14 -24.15,-2.63 -33.15,-11.68 -15.82,-15.97 -44.08,-18.75 -62.76,-6.19 -18.66,12.5 -44.29,7.55 -56.94,-11.05 -12.65,-18.6 -39.88,-26.5 -60.56,-17.63 -20.62,8.87 -44.89,-0.73 -53.91,-21.31 -9.03,-20.59 -34.33,-33.39 -56.31,-28.5 -21.92,4.94 -44.01,-8.94 -49.08,-30.8 -5.14,-21.88 -27.66,-39.18 -50.12,-38.34 -22.46,0.85 -41.66,-16.87 -42.62,-39.31 -0.97,-22.45 -19.96,-43.58 -42.18,-46.9 -22.25,-3.33 -37.83,-24.25 -34.66,-46.49 3.17,-22.29 -11.62,-46.5 -32.87,-53.86 -21.26,-7.37 -32.73,-30.8 -25.54,-52.05 7.24,-21.31 -2.84,-47.82 -22.4,-58.99 -19.5,-11.11 -26.51,-36.23 -15.52,-55.85 10.99,-19.63 5.98,-47.52 -11.2,-62.07 -17.15,-14.55 -19.38,-40.54 -4.98,-57.81 14.4,-17.24 14.61,-45.64 0.42,-63.07 -14.22,-17.41 -11.65,-43.38 5.67,-57.72 17.33,-14.25 22.71,-42.17 11.99,-61.89 -10.75,-19.73 -3.44,-44.79 16.21,-55.69 19.69,-10.9 30.13,-37.28 23.16,-58.66 -6.95,-21.38 4.86,-44.68 26.17,-51.75 21.35,-7.12 36.44,-31.15 33.57,-53.43 -2.9,-22.27 12.95,-43.01 35.23,-46.06 22.25,-3.03 41.51,-23.86 42.78,-46.38 1.27,-22.4 20.68,-39.85 43.11,-38.76 22.46,1.09 45.23,-15.88 50.57,-37.67 5.34,-21.86 27.62,-35.47 49.51,-30.26 21.88,5.2 47.33,-7.3 56.6,-27.71 9.3,-20.5 33.72,-29.77 54.22,-20.65 20.56,9.18 47.88,1.55 60.8,-16.9 12.83,-18.42 38.56,-23.04 57.09,-10.27 18.48,12.8 46.73,10.33 62.79,-5.43 6.98,-6.79 15.79,-10.48 24.91,-11.32 v 77.28 c -325.05,0 -588.57,263.52 -588.57,588.6" /><path
         id="path240"
         style="fill:#cdd2b1;fill-opacity:1;fill-rule:nonzero;stroke:none"
         d="m 4062.41,2274.34 c 0,-281.97 -228.59,-510.59 -510.55,-510.59 v -78.01 c 325.04,0 588.56,263.52 588.56,588.6 0,325.02 -263.52,588.56 -588.56,588.56 v -78.04 c 281.96,0 510.55,-228.62 510.55,-510.52" /><path
         id="path242"
         style="fill:#dee3bf;fill-opacity:1;fill-rule:nonzero;stroke:none"
         d="m 2963.29,2274.34 c 0,-325.08 263.52,-588.6 588.57,-588.6 v 78.01 c -282,0 -510.56,228.62 -510.56,510.59 0,281.9 228.56,510.52 510.56,510.52 v 78.04 c -325.05,0 -588.57,-263.54 -588.57,-588.56" /><path
         id="path244"
         style="fill:#f2f7cf;fill-opacity:1;fill-rule:nonzero;stroke:none"
         d="m 3420.26,2003.48 c -63.6,-10.63 -118.28,-0.12 -122.14,23.37 -3.9,23.39 44.47,50.95 108.02,61.46 63.58,10.63 118.16,0.13 122.11,-23.37 3.86,-23.36 -44.44,-50.96 -107.99,-61.46 z m -168.57,101.68 c -11.84,20.58 23.7,63.45 79.46,95.64 55.82,32.18 110.7,41.62 122.56,21.01 11.87,-20.59 -23.63,-63.34 -79.48,-95.58 -55.79,-32.22 -110.68,-41.6 -122.54,-21.07 z m -44.65,79.39 c -18.36,15.13 -0.09,67.74 40.75,117.4 40.97,49.85 89.03,77.92 107.36,62.84 18.35,-15.13 0.08,-67.66 -40.76,-117.39 -40.9,-49.8 -89.03,-77.88 -107.35,-62.85 z m 176.03,339.21 c 22.64,60.31 59.05,102.4 81.27,94 22.28,-8.33 21.98,-63.99 -0.69,-124.31 -22.61,-60.26 -59.02,-102.35 -81.27,-94.02 -22.25,8.31 -21.95,64.01 0.69,124.33 z m 129.33,-21.55 c 0,61.09 17.39,111.15 39.46,116.1 v 166.55 c -282,0 -510.56,-228.62 -510.56,-510.52 0,-281.97 228.56,-510.59 510.56,-510.59 v 622.29 c -22.07,4.98 -39.46,55 -39.46,116.17" /><path
         id="path246"
         style="fill:#e9ecca;fill-opacity:1;fill-rule:nonzero;stroke:none"
         d="m 3893.06,2178.27 c -18.36,-14.97 -66.48,13.11 -107.27,62.79 -40.97,49.82 -59.23,102.35 -40.84,117.5 18.29,15.03 66.38,-13.03 107.29,-62.85 40.96,-49.69 59.14,-102.34 40.82,-117.44 z m -44.69,-79.33 c -11.86,-20.56 -66.68,-11.17 -122.56,21.01 -55.73,32.21 -91.33,75.05 -79.46,95.64 11.96,20.58 66.75,11.2 122.54,-21.02 55.82,-32.21 91.44,-75.11 79.48,-95.63 z m -46.43,-78.4 c -3.86,-23.37 -58.53,-33.91 -122.05,-23.34 -63.55,10.51 -111.94,38.1 -108.11,61.53 3.99,23.42 58.66,33.9 122.18,23.39 63.49,-10.54 111.85,-38.13 107.98,-61.58 z m -155.35,597.22 c 22.22,8.4 58.63,-33.69 81.27,-94 22.67,-60.32 22.94,-116.02 0.72,-124.33 -22.27,-8.33 -58.68,33.76 -81.32,94.02 -22.65,60.32 -22.98,115.98 -0.67,124.31 z m 415.82,-343.42 c 0,281.9 -228.59,510.52 -510.55,510.52 v -166.55 c 1.18,0.3 2.38,0.52 3.59,0.52 23.76,0 43.05,-52.27 43.05,-116.62 0,-64.5 -19.29,-116.66 -43.05,-116.66 -1.21,0 -2.41,0.18 -3.59,0.49 v -622.29 c 281.96,0 510.55,228.62 510.55,510.59" /><path
         id="path248"
         style="fill:#dee3bf;fill-opacity:1;fill-rule:nonzero;stroke:none"
         d="m 3512.4,2502.21 c 0,-61.17 17.39,-111.19 39.46,-116.17 v 232.27 c -22.07,-4.95 -39.46,-55.01 -39.46,-116.1" /><path
         id="path250"
         style="fill:#cdd2b1;fill-opacity:1;fill-rule:nonzero;stroke:none"
         d="m 3555.45,2385.55 c 23.76,0 43.05,52.16 43.05,116.66 0,64.35 -19.29,116.62 -43.05,116.62 -1.21,0 -2.41,-0.22 -3.59,-0.52 v -232.27 c 1.18,-0.31 2.38,-0.49 3.59,-0.49" /><path
         id="path252"
         style="fill:#cdd2b1;fill-opacity:1;fill-rule:nonzero;stroke:none"
         d="m 3728.58,2399.43 c 22.22,8.31 21.95,64.01 -0.72,124.33 -22.64,60.31 -59.05,102.4 -81.27,94 -22.31,-8.33 -21.98,-63.99 0.67,-124.31 22.64,-60.26 59.05,-102.35 81.32,-94.02" /><path
         id="path254"
         style="fill:#dee3bf;fill-opacity:1;fill-rule:nonzero;stroke:none"
         d="m 3382.38,2399.43 c 22.25,-8.33 58.66,33.76 81.27,94.02 22.67,60.32 22.97,115.98 0.69,124.31 -22.22,8.4 -58.63,-33.69 -81.27,-94 -22.64,-60.32 -22.94,-116.02 -0.69,-124.33" /><path
         id="path256"
         style="fill:#cdd2b1;fill-opacity:1;fill-rule:nonzero;stroke:none"
         d="m 3768.89,2194.57 c -55.79,32.22 -110.58,41.6 -122.54,21.02 -11.87,-20.59 23.73,-63.43 79.46,-95.64 55.88,-32.18 110.7,-41.57 122.56,-21.01 11.96,20.52 -23.66,63.42 -79.48,95.63" /><path
         id="path258"
         style="fill:#cdd2b1;fill-opacity:1;fill-rule:nonzero;stroke:none"
         d="m 3693.96,2082.12 c -63.52,10.51 -118.19,0.03 -122.18,-23.39 -3.83,-23.43 44.56,-51.02 108.11,-61.53 63.52,-10.57 118.19,-0.03 122.05,23.34 3.87,23.45 -44.49,51.04 -107.98,61.58" /><path
         id="path260"
         style="fill:#cdd2b1;fill-opacity:1;fill-rule:nonzero;stroke:none"
         d="m 3744.95,2358.56 c -18.39,-15.15 -0.13,-67.68 40.84,-117.5 40.79,-49.68 88.91,-77.76 107.27,-62.79 18.32,15.1 0.14,67.75 -40.82,117.44 -40.91,49.82 -89,77.88 -107.29,62.85" /><path
         id="path262"
         style="fill:#dee3bf;fill-opacity:1;fill-rule:nonzero;stroke:none"
         d="m 3453.71,2221.81 c -11.86,20.61 -66.74,11.17 -122.56,-21.01 -55.76,-32.19 -91.3,-75.06 -79.46,-95.64 11.86,-20.53 66.75,-11.15 122.54,21.07 55.85,32.24 91.35,74.99 79.48,95.58" /><path
         id="path264"
         style="fill:#dee3bf;fill-opacity:1;fill-rule:nonzero;stroke:none"
         d="m 3314.39,2247.4 c 40.84,49.73 59.11,102.26 40.76,117.39 -18.33,15.08 -66.39,-12.99 -107.36,-62.84 -40.84,-49.66 -59.11,-102.27 -40.75,-117.4 18.32,-15.03 66.45,13.05 107.35,62.85" /><path
         id="path266"
         style="fill:#dee3bf;fill-opacity:1;fill-rule:nonzero;stroke:none"
         d="m 3406.14,2088.31 c -63.55,-10.51 -111.92,-38.07 -108.02,-61.46 3.86,-23.49 58.54,-34 122.14,-23.37 63.55,10.5 111.85,38.1 107.99,61.46 -3.95,23.5 -58.53,34 -122.11,23.37" /><path
         id="path268"
         style="fill:#ef543e;fill-opacity:1;fill-rule:nonzero;stroke:none"
         d="m 5392.12,3429.25 -1.9,2.53 c -360.28,459.51 -131.11,790.08 -111.1,817.17 55.61,58.01 116.26,86.26 185.33,86.26 170.66,0 333.05,-170.85 334.68,-172.58 l 50.11,-55.67 v 102.49 c -1.45,1.58 -349.55,373.62 -622.32,84.05 0,0 -302.76,-378.42 109.35,-904.05 0,0 176.61,-248.08 512.97,-248.08 v 68.58 c -297.57,0 -455.55,217.06 -457.12,219.3" /><path
         id="path270"
         style="fill:#db4c39;fill-opacity:1;fill-rule:nonzero;stroke:none"
         d="m 6471.56,4293.5 c -273.18,290.05 -621.98,-83.66 -622.29,-84.05 h -0.03 v -102.49 l 2.9,-3.23 48.6,60.31 c 15.85,16.31 170.7,171.17 333.32,171.17 69.05,0 129.72,-28.25 185.33,-86.36 22.47,-29.98 249.99,-356.51 -111.12,-817.07 l -0.99,-1.26 -0.91,-1.27 c -6.35,-8.79 -162.12,-219.3 -457.1,-219.3 -0.03,0 -0.03,0 -0.03,0 v -68.58 c 0,0 0,0 0.03,0 336.4,0 512.95,248.08 512.95,248.08 412.14,525.63 109.34,904.05 109.34,904.05" /><path
         id="path272"
         style="fill:#eb604f;fill-opacity:1;fill-rule:nonzero;stroke:none"
         d="m 6048.89,3744.3 c 0,-110.28 -89.4,-199.67 -199.65,-199.67 v -334.68 c 0,0 0,0 0.03,0 294.98,0 450.75,210.51 457.1,219.3 l 0.91,1.27 0.99,1.26 c 361.11,460.56 133.59,787.09 111.12,817.07 -55.61,58.11 -116.28,86.36 -185.33,86.36 -162.62,0 -317.47,-154.86 -333.32,-171.17 l -48.6,-60.31 -2.9,3.23 v -163.05 c 110.25,0 199.65,-89.36 199.65,-199.61" /><path
         id="path274"
         style="fill:#ff6857;fill-opacity:1;fill-rule:nonzero;stroke:none"
         d="m 5464.45,4335.21 c -69.07,0 -129.72,-28.25 -185.33,-86.26 -20.01,-27.09 -249.18,-357.66 111.1,-817.17 l 1.9,-2.53 c 1.57,-2.24 159.55,-219.3 457.12,-219.3 v 334.68 c -110.25,0 -199.61,89.39 -199.61,199.67 0,110.25 89.36,199.61 199.61,199.61 v 163.05 l -50.11,55.67 c -1.63,1.73 -164.02,172.58 -334.68,172.58" /><path
         id="path276"
         style="fill:#eb5441;fill-opacity:1;fill-rule:nonzero;stroke:none"
         d="m 5649.63,3744.3 c 0,-110.28 89.36,-199.67 199.61,-199.67 v 399.28 c -110.25,0 -199.61,-89.36 -199.61,-199.61" /><path
         id="path278"
         style="fill:#db4c39;fill-opacity:1;fill-rule:nonzero;stroke:none"
         d="m 6048.89,3744.3 c 0,110.25 -89.4,199.61 -199.65,199.61 v -399.28 c 110.25,0 199.65,89.39 199.65,199.67" /><path
         id="path280"
         style="fill:#af2a17;fill-opacity:1;fill-rule:nonzero;stroke:none"
         d="m 5693.65,4201.04 c 0,0 -145.03,157.67 -338.48,23.08 0,0 -185,-155.57 -92.5,-491.99 0,0 75.66,-275.41 361.61,-439.37 0,0 168.21,-29.43 82.02,145.03 0,0 -298.54,328 -31.55,555.08 0,0 117.74,77.8 18.9,208.17" /><path
         id="path282"
         style="fill:#fff66f;fill-opacity:1;fill-rule:nonzero;stroke:none"
         d="m 5536.06,4123.2 c -13.1,0 -26.2,5.34 -35.65,14.77 -9.45,9.41 -14.79,22.52 -14.79,35.64 0,13.44 5.34,26.24 14.79,35.63 18.81,18.9 52.5,18.9 71.34,0.36 9.38,-9.75 14.76,-22.85 14.76,-35.99 0,-13.12 -5.38,-25.92 -14.76,-35.64 -9.46,-9.43 -22.56,-14.77 -35.69,-14.77" /><path
         id="path284"
         style="fill:#fff66f;fill-opacity:1;fill-rule:nonzero;stroke:none"
         d="m 5393.45,3994.99 c -24.93,12.76 -34.33,43.38 -21.25,67.92 v 0 c 12.83,24.58 43.43,34.3 67.98,21.56 v 0 c 24.94,-13.1 34.3,-43.75 21.2,-68.29 v 0 c 0,0 0,0 0.33,0 v 0 c -9.06,-17.15 -26.91,-26.92 -45.08,-26.92 v 0 c -7.72,0 -15.81,1.69 -23.18,5.73 z m -66.96,-131.56 c -0.72,27.96 21.22,51.2 49.12,51.83 v 0 c 27.93,0.7 51.11,-21.22 51.8,-49.12 v 0 c 1.03,-27.59 -21.19,-51.14 -48.79,-51.8 v 0 c -0.66,0 -0.99,0 -1.66,0 v 0 c -27.25,0 -49.44,21.52 -50.47,49.09 z m 45.71,-193.76 c -11.05,25.57 1.05,55.21 26.62,66.3 v 0 c 25.57,11.11 55.15,-1.03 66.3,-26.57 v 0 c 10.71,-25.6 -1.06,-55.22 -26.6,-66.29 v 0 c -6.4,-2.72 -13.13,-4.02 -19.83,-4.02 v 0 c -19.51,0 -38.04,11.48 -46.49,30.58 z m 96.27,-166.15 c -16.12,22.52 -11.11,54.16 11.38,70.31 v 0 c 22.55,16.5 54.22,11.43 70.34,-11.12 v 0 0 0 c 16.51,-22.55 11.47,-54.16 -11.11,-70.61 v 0 c -9.08,-6.4 -19.47,-9.44 -29.59,-9.44 v 0 c -15.81,0 -31.27,7.09 -41.02,20.86" /><path
         id="path286"
         style="fill:#fff66f;fill-opacity:1;fill-rule:nonzero;stroke:none"
         d="m 5626.24,3343.39 c -13.13,0 -25.94,5.01 -35.35,14.46 -9.4,9.39 -14.8,22.55 -14.8,35.66 0,13.46 5.4,26.59 14.43,35.68 19.24,19.14 52.53,19.14 71.7,0 9.45,-9.42 14.79,-22.22 14.79,-35.68 0,-13.11 -5.34,-26.27 -14.79,-35.66 -9.78,-9.45 -22.55,-14.46 -35.98,-14.46" /><path
         id="path288"
         style="fill:#962512;fill-opacity:1;fill-rule:nonzero;stroke:none"
         d="m 6004.83,4201.04 c 0,0 145.06,157.67 338.49,23.08 0,0 184.99,-155.57 92.49,-491.99 0,0 -75.64,-275.41 -361.6,-439.37 0,0 -168.21,-29.43 -82.02,145.03 0,0 298.57,328 31.55,555.08 0,0 -117.74,77.8 -18.91,208.17" /><path
         id="path290"
         style="fill:#dbd361;fill-opacity:1;fill-rule:nonzero;stroke:none"
         d="m 6162.42,4123.2 c 13.11,0 26.21,5.34 35.66,14.77 9.45,9.41 14.82,22.52 14.82,35.64 0,13.44 -5.37,26.24 -14.82,35.63 -18.81,18.9 -52.44,18.9 -71.31,0.36 -9.39,-9.75 -14.79,-22.85 -14.79,-35.99 0,-13.12 5.4,-25.92 14.79,-35.64 9.42,-9.43 22.52,-14.77 35.65,-14.77" /><path
         id="path292"
         style="fill:#dbd361;fill-opacity:1;fill-rule:nonzero;stroke:none"
         d="m 6281.86,3989.26 v 0 c -18.18,0 -36.02,9.77 -45.11,26.92 v 0 c 0.36,0 0.36,0 0.36,0 v 0 c -13.13,24.54 -3.71,55.19 21.19,68.29 v 0 c 24.58,12.74 55.19,3.02 67.99,-21.56 v 0 c 13.08,-24.54 3.65,-55.16 -21.22,-67.92 -7.43,-4.04 -15.49,-5.73 -23.21,-5.73 z m 39.72,-174.92 v 0 c -0.72,0 -1.05,0 -1.72,0 v 0 c -27.59,0.66 -49.78,24.21 -48.76,51.8 v 0 c 0.64,27.9 23.88,49.82 51.78,49.12 v 0 c 27.92,-0.63 49.79,-23.87 49.12,-51.83 -1.03,-27.57 -23.22,-49.09 -50.42,-49.09 z m -41.78,-175.25 v 0 c -6.7,0 -13.46,1.3 -19.83,4.02 v 0 c -25.55,11.07 -37.32,40.69 -26.57,66.29 v 0 c 11.11,25.54 40.69,37.68 66.29,26.57 v 0 c 25.54,-11.09 37.64,-40.73 26.6,-66.3 -8.45,-19.1 -26.96,-30.58 -46.49,-30.58 z m -90.78,-156.43 v 0 c -10.11,0 -20.53,3.04 -29.59,9.44 v 0 c -22.6,16.45 -27.62,48.06 -11.1,70.61 v 0 0 0 c 16.15,22.55 47.75,27.62 70.27,11.12 v 0 c 22.53,-16.15 27.57,-47.79 11.45,-70.31 -9.79,-13.77 -25.24,-20.86 -41.03,-20.86" /><path
         id="path294"
         style="fill:#dbd361;fill-opacity:1;fill-rule:nonzero;stroke:none"
         d="m 6072.25,3343.39 c 13.13,0 25.93,5.01 35.35,14.46 9.39,9.39 14.79,22.55 14.79,35.66 0,13.46 -5.4,26.59 -14.46,35.68 -19.17,19.14 -52.5,19.14 -71.64,0 -9.44,-9.42 -14.82,-22.22 -14.82,-35.68 0,-13.11 5.38,-26.27 14.82,-35.66 9.75,-9.45 22.53,-14.46 35.96,-14.46" /><path
         id="path296"
         style="fill:#ac5c21;fill-opacity:1;fill-rule:nonzero;stroke:none"
         d="m 6250.24,3870.76 c -16.39,615.28 -648.09,648.1 -648.09,648.1 h -950.21 -0.03 -950.22 c 0,0 -631.68,-32.82 -648.1,-648.1 0,0 -16.39,-270.7 303.52,-607.07 l 65.63,-1156.7 c 0,0 0.06,-615.21 656.31,-631.64 h 572.86 0.03 572.85 c 656.27,16.43 656.3,631.64 656.3,631.64 l 65.6,1156.7 c 319.95,336.37 303.55,607.07 303.55,607.07" /><path
         id="path298"
         style="fill:#fff2a3;fill-opacity:1;fill-rule:nonzero;stroke:none"
         d="m 4080.77,1610.69 c -218.6,5.89 -372.11,89.88 -456.19,249.69 -64.63,122.84 -66.47,245.41 -66.47,246.61 v 3.84 l -68.62,1210.16 -34.29,35.98 c -267.3,281.07 -266.64,503.5 -266.52,505.61 l 0.19,2.29 0.03,2.3 c 5.49,205.7 90.05,349.26 258.47,438.86 120,63.84 240.37,75.98 258.88,77.43 h 1891.22 c 18.62,-1.51 144.21,-14.25 266.14,-81.27 163.72,-90.02 245.92,-232.27 251.33,-435.02 l 0.12,-3.93 c 0,-22.46 -6.92,-233.47 -266.42,-506.27 l -34.26,-35.98 -68.63,-1210.16 v -3.84 c -0.03,-0.53 -2.29,-129.69 -70.6,-254.3 -84.9,-154.84 -236.99,-236.21 -452.09,-242 H 4080.77" /><path
         id="path300"
         style="fill:#e7dc96;fill-opacity:1;fill-rule:nonzero;stroke:none"
         d="m 3893.2,4000.52 c 0,-40.79 -33.05,-73.82 -73.83,-73.82 -40.76,0 -73.85,33.03 -73.85,73.82 0,40.78 33.09,73.86 73.85,73.86 40.78,0 73.83,-33.08 73.83,-73.86" /><path
         id="path302"
         style="fill:#e7dc96;fill-opacity:1;fill-rule:nonzero;stroke:none"
         d="m 4172.15,3623.18 c 0,-72.52 -58.78,-131.27 -131.26,-131.27 -72.51,0 -131.26,58.75 -131.26,131.27 0,72.48 58.75,131.26 131.26,131.26 72.48,0 131.26,-58.78 131.26,-131.26" /><path
         id="path304"
         style="fill:#e7dc96;fill-opacity:1;fill-rule:nonzero;stroke:none"
         d="m 4825.77,3850.23 c 0,-52.92 -42.89,-95.79 -95.81,-95.79 -52.9,0 -95.79,42.87 -95.79,95.79 0,52.92 42.89,95.8 95.79,95.8 52.92,0 95.81,-42.88 95.81,-95.8" /><path
         id="path306"
         style="fill:#e7dc96;fill-opacity:1;fill-rule:nonzero;stroke:none"
         d="m 4959.69,3278.6 c 0,-49.81 -40.39,-90.2 -90.26,-90.2 -49.85,0 -90.24,40.39 -90.24,90.2 0,49.88 40.39,90.27 90.24,90.27 49.87,0 90.26,-40.39 90.26,-90.27" /><path
         id="path308"
         style="fill:#e7dc96;fill-opacity:1;fill-rule:nonzero;stroke:none"
         d="m 4364.64,2656.65 c 0,-60.99 -49.48,-110.43 -110.47,-110.43 -60.98,0 -110.46,49.44 -110.46,110.43 0,61.05 49.48,110.49 110.46,110.49 60.99,0 110.47,-49.44 110.47,-110.49" /><path
         id="path310"
         style="fill:#e7dc96;fill-opacity:1;fill-rule:nonzero;stroke:none"
         d="m 5603.32,3754.44 c 0,-60.98 -49.41,-110.43 -110.4,-110.43 -61.01,0 -110.49,49.45 -110.49,110.43 0,60.99 49.48,110.43 110.49,110.43 60.99,0 110.4,-49.44 110.4,-110.43" /><path
         id="path312"
         style="fill:#e7dc96;fill-opacity:1;fill-rule:nonzero;stroke:none"
         d="m 5533.92,2351.59 c 0,-104.19 -84.47,-188.65 -188.69,-188.65 -104.18,0 -188.68,84.46 -188.68,188.65 0,104.24 84.5,188.71 188.68,188.71 104.22,0 188.69,-84.47 188.69,-188.71" /><path
         id="path314"
         style="fill:#e7dc96;fill-opacity:1;fill-rule:nonzero;stroke:none"
         d="m 5049.9,2048.1 c 0,-49.84 -40.36,-90.24 -90.21,-90.24 -49.81,0 -90.2,40.4 -90.2,90.24 0,49.81 40.39,90.2 90.2,90.2 49.85,0 90.21,-40.39 90.21,-90.2" /><path
         id="path316"
         style="fill:#e7dc96;fill-opacity:1;fill-rule:nonzero;stroke:none"
         d="m 4417.29,1912.07 c 0,-29.1 -23.58,-52.69 -52.65,-52.69 -29.07,0 -52.68,23.59 -52.68,52.69 0,29.1 23.61,52.65 52.68,52.65 29.07,0 52.65,-23.55 52.65,-52.65" /><path
         id="path318"
         style="fill:#a7aa67;fill-opacity:1;fill-rule:nonzero;stroke:none"
         d="m 7703.57,8571.04 163.38,74.84 -163.38,348.41 -19.11,89.87 H 6274.94 V 8645.88 L 6010.39,8157.42 V 7084.62 5898.98 5139.31 h 1757.49 358.98 v 759.67 l -31.1,1176.07 -43.14,1082.65 -349.05,413.34" /><path
         id="path320"
         style="fill:#ffffff;fill-opacity:1;fill-rule:nonzero;stroke:none"
         d="M 5938.27,8237.91 V 5219.79 h 1757.48 l 69.04,3018.12 H 5938.27" /><path
         id="path322"
         style="fill:#f0f0f0;fill-opacity:1;fill-rule:nonzero;stroke:none"
         d="m 8054.74,8237.91 h -289.95 l -69.04,-3018.12 h 358.99 v 3018.12" /><path
         id="path324"
         style="fill:#ff6042;fill-opacity:1;fill-rule:nonzero;stroke:none"
         d="M 8054.74,5979.46 H 5938.27 V 7165.11 H 8054.74 V 5979.46" /><path
         id="path326"
         style="fill:#ffffff;fill-opacity:1;fill-rule:nonzero;stroke:none"
         d="m 6651.54,6288.57 h -107.19 v 378.3 l -122.96,-287.64 h -82 l -122.87,287.64 v -378.3 h -107.11 v 567.41 h 124.44 l 146.6,-332.48 146.57,332.48 h 124.52 v -567.41" /><path
         id="path328"
         style="fill:#ffffff;fill-opacity:1;fill-rule:nonzero;stroke:none"
         d="m 6775.74,6855.98 h 113.39 v -567.41 h -113.39 v 567.41" /><path
         id="path330"
         style="fill:#ffffff;fill-opacity:1;fill-rule:nonzero;stroke:none"
         d="m 7127.08,6855.98 v -460.21 h 237.95 v -107.2 h -351.37 v 567.41 h 113.42" /><path
         id="path332"
         style="fill:#ffffff;fill-opacity:1;fill-rule:nonzero;stroke:none"
         d="M 7562.65,6433.63 V 6288.57 H 7450.8 v 567.41 h 111.85 v -266.4 l 196.23,266.4 h 133.2 l -174.2,-223.83 182.83,-343.58 h -127.7 l -130.78,246.7 -79.58,-101.64" /><path
         id="path334"
         style="fill:#e6e6e6;fill-opacity:1;fill-rule:nonzero;stroke:none"
         d="m 6202.82,8726.37 -264.55,-488.46 h 1826.52 l -152.45,488.46 H 6202.82" /><path
         id="path336"
         style="fill:#dbdbdb;fill-opacity:1;fill-rule:nonzero;stroke:none"
         d="m 7790.19,8726.37 h -177.85 l 152.45,-488.46 h 289.95 l -264.55,488.46" /><path
         id="path338"
         style="fill:#ffffff;fill-opacity:1;fill-rule:nonzero;stroke:none"
         d="M 7612.34,9164.65 H 6202.82 v -438.28 h 1409.52 v 438.28" /><path
         id="path340"
         style="fill:#f0f0f0;fill-opacity:1;fill-rule:nonzero;stroke:none"
         d="m 7790.19,8726.37 h 4.64 v 438.28 h -182.49 v -438.28 h 177.85" /></g></g></svg>