<svg width="580" height="400" xmlns="http://www.w3.org/2000/svg">
 <!-- Created with Method Draw - http://github.com/duopixel/Method-Draw/ -->

 <g>
  <title>background</title>
  <rect fill="none" id="canvas_background" height="402" width="582" y="-1" x="-1"/>
  <g display="none" overflow="visible" y="0" x="0" height="100%" width="100%" id="canvasGrid">
   <rect fill="url(#gridpattern)" stroke-width="0" y="0" x="0" height="100%" width="100%"/>
  </g>
 </g>
 <g>
  <title>Layer 1</title>
  <metadata transform="matrix(0.008324897347947113,0,0,0.008324897347947113,0,0) " id="svg_203">image/svg+xml</metadata>

  <path fill="#393536" fill-rule="nonzero" d="m258.3607,260.356424c0.106582,0 0.204676,0.092983 0.204676,0.092983l-1.757612,3.754422c-0.192637,0 -0.654688,0.027198 -0.767389,0.027198c-0.106384,0 -0.204676,-0.092746 -0.204676,-0.092746l-0.601003,-3.754402c0.364549,0 0.820285,-0.027455 0.956867,-0.027455c0.106779,0 0.204676,0.092983 0.204676,0.092983l0.183755,1.83672c0.01579,0.158136 0.016974,0.377793 0.010658,0.609174c0.059212,-0.252658 0.124148,-0.491658 0.187702,-0.652951l0.730677,-1.858865c0.324088,0 0.726335,-0.02706 0.851272,-0.02706l0.000395,0" id="svg_123"/>
  <path fill="#393536" fill-rule="nonzero" d="m259.163221,262.601392c0.127306,-0.040087 0.165399,-0.145089 0.165399,-0.265073c0,-0.113332 -0.036711,-0.282244 -0.167965,-0.282244c-0.236454,0 -0.34047,0.381859 -0.378365,0.668051l0.380931,-0.120733zm1.008579,-0.392813c0,0.408781 -0.228164,0.679163 -0.796797,0.796205l-0.596463,0.123201c0.045791,0.257119 0.20744,0.382865 0.47567,0.382865c0.328627,0 0.548501,-0.248099 0.548501,-0.248099c0,0 0.167768,0.093595 0.167768,0.285422c0,0.340706 -0.522251,0.71015 -1.129964,0.71015c-0.616398,0 -1.018645,-0.389655 -1.018645,-1.047304c0,-0.759652 0.538435,-1.790554 1.496487,-1.790554c0.524619,0 0.853444,0.310706 0.853444,0.788113" id="svg_122"/>
  <path fill="#393536" fill-rule="nonzero" d="m261.778027,261.420466c0.483368,0 0.846733,0.256211 0.846733,0.588805c0,0.416024 -0.5035,0.567982 -0.5035,0.567982c0,0 -0.147833,-0.454098 -0.486329,-0.454098c-0.229546,0 -0.361589,0.231914 -0.361589,0.72673c0,0.455894 0.120003,0.660965 0.414879,0.660965c0.302574,0 0.488894,-0.206078 0.488894,-0.206078c0,0 0.167768,0.093358 0.167768,0.280093c0,0.325903 -0.501724,0.673459 -1.085752,0.673459c-0.621924,0 -1.005027,-0.389655 -1.005027,-1.036981c0,-0.769974 0.550475,-1.800877 1.524317,-1.800877l-0.000395,0" id="svg_121"/>
  <path fill="#393536" fill-rule="nonzero" d="m264.100917,260.813779c0.11645,0 0.193821,0.088818 0.193821,0.088818l-0.090989,0.572541l0.606727,0l-0.136977,0.43661c-0.044212,0.14055 -0.114082,0.218256 -0.256388,0.218256l-0.316785,0l-0.176847,1.115556c-0.028619,0.1804 0.010658,0.263908 0.133425,0.26529c0.111713,0.00077 0.221651,-0.068074 0.221651,-0.068074c0,0 0.169149,0.094364 0.169149,0.271152c0,0.273165 -0.389418,0.544396 -0.88226,0.544396c-0.52304,0 -0.733835,-0.319962 -0.645214,-0.879694l0.197374,-1.248625l-0.329022,0l0.143293,-0.455499c0.036711,-0.116885 0.133227,-0.199367 0.251059,-0.199367l0.16007,0l0.191847,-0.527126c0.237243,-0.058067 0.458302,-0.134234 0.566068,-0.134234" id="svg_120"/>
  <path fill="#393536" fill-rule="nonzero" d="m266.03735,262.601392c0.127306,-0.040087 0.165399,-0.145089 0.165399,-0.265073c0,-0.113332 -0.036711,-0.282244 -0.167768,-0.282244c-0.236651,0 -0.341062,0.381859 -0.378365,0.668051l0.380734,-0.120733zm1.008579,-0.392813c0,0.408781 -0.228164,0.679163 -0.7966,0.796205l-0.596858,0.123201c0.046185,0.257119 0.207637,0.382865 0.475473,0.382865c0.328627,0 0.548699,-0.248099 0.548699,-0.248099c0,0 0.167965,0.093595 0.167965,0.285422c0,0.340706 -0.522251,0.71015 -1.129767,0.71015c-0.616793,0 -1.018843,-0.389655 -1.018843,-1.047304c0,-0.759652 0.538238,-1.790554 1.496487,-1.790554c0.524817,0 0.853641,0.310706 0.853641,0.788113l-0.000197,0" id="svg_119"/>
  <path fill="#393536" fill-rule="nonzero" d="m268.470967,262.601392c0.127306,-0.040087 0.165399,-0.145089 0.165399,-0.265073c0,-0.113332 -0.036909,-0.282244 -0.167768,-0.282244c-0.236651,0 -0.341062,0.381859 -0.378563,0.668051l0.380931,-0.120733zm1.008382,-0.392813c0,0.408781 -0.227967,0.679163 -0.796403,0.796205l-0.596858,0.123201c0.045988,0.257119 0.20744,0.382865 0.475473,0.382865c0.329022,0 0.548699,-0.248099 0.548699,-0.248099c0,0 0.167965,0.093595 0.167965,0.285422c0,0.340706 -0.522251,0.71015 -1.129767,0.71015c-0.616793,0 -1.018843,-0.389655 -1.018843,-1.047304c0,-0.759652 0.538435,-1.790554 1.496487,-1.790554c0.524817,0 0.853641,0.310706 0.853641,0.788113l-0.000395,0" id="svg_118"/>
  <path fill="#393536" fill-rule="nonzero" d="m271.470257,263.227816c0,0 0.205071,0.189518 0.205071,0.502928c0,0.418037 -0.354088,0.52758 -0.650741,0.52758c-0.386655,0 -0.667912,-0.184347 -0.961999,-0.283804c-0.08191,0.094522 -0.162439,0.189281 -0.239217,0.283804c0,0 -0.435801,-0.011092 -0.435801,-0.307923c0,-0.361983 0.603174,-0.982704 1.253323,-1.686321c-0.074805,-0.013481 -0.146846,-0.022737 -0.211782,-0.022737c-0.369483,0 -0.512579,0.184722 -0.512579,0.184722c0,0 -0.190071,-0.218651 -0.174084,-0.503066c0.021514,-0.394353 0.396721,-0.502533 0.691202,-0.502533c0.312442,0 0.541593,0.120576 0.766994,0.219499l0.183163,-0.219499c0,0 0.439748,0.013421 0.439748,0.31187c0,0.349332 -0.584029,0.958881 -1.215229,1.639583c0.133425,0.037323 0.25777,0.067462 0.381128,0.067462c0.327443,0 0.480802,-0.211565 0.480802,-0.211565" id="svg_117"/>
  <path fill="#393536" fill-rule="nonzero" d="m274.29941,264.017547c-0.156912,0.955646 -0.811995,1.441368 -1.641162,1.441368c-0.529356,0 -0.924498,-0.278096 -0.924498,-0.600369c0,-0.212564 0.176847,-0.31109 0.176847,-0.31109c0,0 0.180005,0.16383 0.534883,0.16383c0.332969,0 0.784165,-0.141939 0.863312,-0.644237l0.06237,-0.390977c-0.223427,0.321502 -0.519882,0.582252 -0.8943,0.582252c-0.420801,0 -0.608108,-0.344239 -0.497184,-1.043692l0.119608,-0.757184c0.07362,-0.463828 0.09395,-0.842154 0.09395,-0.842154c0.299218,-0.055284 0.693966,-0.194828 0.832127,-0.194828c0.106977,0 0.206255,0.089213 0.206255,0.089213l-0.149807,0.947768l-0.138754,0.874385c-0.012632,0.080568 0.002566,0.125747 0.075594,0.125747c0.348759,0 0.545343,-1.000132 0.545343,-1.000132c0.073226,-0.463828 0.093752,-0.842154 0.093752,-0.842154c0.298824,-0.055284 0.693768,-0.194828 0.83193,-0.194828c0.107174,0 0.206453,0.089213 0.206453,0.089213l-0.150004,0.947768l-0.246717,1.5601" id="svg_116"/>
  <path fill="#393536" fill-rule="nonzero" d="m234.401119,262.003882l0,1.684367l0.383497,0c0.143293,0 0.246717,-0.008013 0.310469,-0.024198c0.083292,-0.020744 0.152372,-0.056054 0.207242,-0.105851c0.05487,-0.049738 0.099674,-0.131392 0.134411,-0.245493c0.034738,-0.113727 0.052107,-0.269001 0.052107,-0.465604c0,-0.196742 -0.017369,-0.347555 -0.052107,-0.452795c-0.034738,-0.105398 -0.083292,-0.187505 -0.145662,-0.246342c-0.06237,-0.058975 -0.141714,-0.098825 -0.237638,-0.119806c-0.071647,-0.016185 -0.212177,-0.024277 -0.42159,-0.024277l-0.23073,0zm-0.513369,-0.430215l0.938314,0c0.211782,0 0.373036,0.016185 0.484158,0.048574c0.149017,0.043935 0.276915,0.122115 0.3833,0.234223c0.106384,0.112108 0.187308,0.249717 0.24277,0.411939c0.055659,0.162596 0.083292,0.36299 0.083292,0.60122c0,0.209177 -0.026053,0.389576 -0.077963,0.541159c-0.063752,0.184959 -0.154346,0.334765 -0.272376,0.449262c-0.089016,0.086805 -0.209413,0.154504 -0.360799,0.203078c-0.113292,0.035685 -0.264875,0.053646 -0.454551,0.053646l-0.966144,0l0,-2.5431" id="svg_115"/>
  <path fill="#393536" fill-rule="nonzero" d="m237.475214,263.037765c-0.003553,-0.141162 -0.039869,-0.248099 -0.109345,-0.321877c-0.069278,-0.073245 -0.153754,-0.109937 -0.25323,-0.109937c-0.106384,0 -0.194413,0.038626 -0.263691,0.116174c-0.069476,0.07741 -0.103424,0.182571 -0.102437,0.31564l0.728703,0zm-0.02783,0.492664l0.485737,0.081496c-0.06237,0.178268 -0.161057,0.313804 -0.295666,0.407004c-0.134806,0.093141 -0.303363,0.139484 -0.505671,0.139484c-0.320337,0 -0.557581,-0.104549 -0.711335,-0.314021c-0.121385,-0.16755 -0.182176,-0.379332 -0.182176,-0.634912c0,-0.305159 0.079936,-0.544179 0.239414,-0.717019c0.159675,-0.172939 0.361391,-0.259606 0.605542,-0.259606c0.273955,0 0.490276,0.090594 0.648767,0.271389c0.158294,0.181189 0.234085,0.458361 0.227177,0.83191l-1.221348,0c0.003553,0.144556 0.04283,0.257198 0.118029,0.337371c0.075199,0.080509 0.168952,0.120595 0.28106,0.120595c0.076384,0 0.14053,-0.020744 0.192637,-0.06237c0.051909,-0.041646 0.091187,-0.108792 0.117832,-0.201321" id="svg_114"/>
  <path fill="#393536" fill-rule="nonzero" d="m238.11352,263.591201l0.489289,-0.074647c0.020724,0.094996 0.062962,0.166998 0.126517,0.215966c0.063752,0.049343 0.152767,0.073778 0.267244,0.073778c0.125924,0 0.220861,-0.023053 0.284415,-0.069476c0.04283,-0.032369 0.064146,-0.075555 0.064146,-0.130049c0,-0.036869 -0.011448,-0.067699 -0.03454,-0.091996c-0.024277,-0.023053 -0.078752,-0.044409 -0.163031,-0.064146c-0.393366,-0.086568 -0.642451,-0.165991 -0.747849,-0.237618c-0.145662,-0.099457 -0.218493,-0.237618 -0.218493,-0.414623c0,-0.159517 0.062962,-0.293751 0.189084,-0.402465c0.126122,-0.108556 0.321522,-0.16307 0.586397,-0.16307c0.252046,0 0.439354,0.041093 0.561923,0.123122c0.122569,0.082127 0.207045,0.203551 0.253428,0.364371l-0.459881,0.085127c-0.01954,-0.071864 -0.056844,-0.126753 -0.111713,-0.164846c-0.055067,-0.03831 -0.133425,-0.057199 -0.235072,-0.057199c-0.12849,0 -0.220466,0.017724 -0.275928,0.053666c-0.036909,0.025441 -0.055462,0.058442 -0.055462,0.098904c0,0.034698 0.016185,0.064067 0.048554,0.088364c0.044014,0.032389 0.195795,0.07818 0.455341,0.137234c0.259744,0.058837 0.440933,0.131234 0.543962,0.216657c0.101647,0.086884 0.15257,0.207696 0.15257,0.362595c0,0.168991 -0.070462,0.314021 -0.211585,0.435446c-0.141122,0.121365 -0.349943,0.182117 -0.626267,0.182117c-0.251059,0 -0.449617,-0.050883 -0.595871,-0.152511c-0.146254,-0.101845 -0.24198,-0.240006 -0.287179,-0.414702" id="svg_113"/>
  <path fill="#393536" fill-rule="nonzero" d="m240.190088,264.116767l0,-1.842266l0.487513,0l0,1.842266l-0.487513,0zm0,-2.091924l0,-0.451176l0.487513,0l0,0.451176l-0.487513,0" id="svg_112"/>
  <path fill="#393536" fill-rule="nonzero" d="m241.496504,263.157591c0,0.19536 0.037896,0.338693 0.11349,0.429288c0.075791,0.09097 0.169347,0.136148 0.280271,0.136148c0.119214,0 0.219677,-0.046324 0.301784,-0.139701c0.082107,-0.092983 0.123161,-0.230986 0.123161,-0.413715c0,-0.1909 -0.039277,-0.332377 -0.117832,-0.424965c-0.078752,-0.092608 -0.178228,-0.138694 -0.298429,-0.138694c-0.116845,0 -0.213164,0.045317 -0.288955,0.136148c-0.075594,0.090752 -0.11349,0.229131 -0.11349,0.415491zm-0.435406,1.080621l0.556791,0.067679c0.009277,0.064699 0.030593,0.109345 0.064146,0.133622c0.046383,0.034777 0.119214,0.052126 0.21869,0.052126c0.127109,0 0.222637,-0.019204 0.286192,-0.057298c0.04283,-0.025441 0.075199,-0.066456 0.097108,-0.123359c0.015,-0.040402 0.022501,-0.115029 0.022501,-0.223585l0,-0.269001c-0.145662,0.198913 -0.329614,0.29837 -0.551659,0.29837c-0.247309,0 -0.443499,-0.104529 -0.587976,-0.314021c-0.113292,-0.165379 -0.169939,-0.37122 -0.169939,-0.617562c0,-0.308692 0.074212,-0.544554 0.222835,-0.707762c0.148622,-0.16307 0.333364,-0.244566 0.554225,-0.244566c0.227769,0 0.415866,0.100088 0.563896,0.300225l0,-0.258579l0.45613,0l0,1.653221c0,0.217506 -0.017961,0.379944 -0.053686,0.487513c-0.035922,0.107549 -0.086252,0.191814 -0.150991,0.253185c-0.064739,0.061446 -0.151188,0.109402 -0.259349,0.144097c-0.108161,0.03454 -0.244941,0.051965 -0.41034,0.051965c-0.312245,0 -0.533698,-0.053506 -0.66436,-0.16052c-0.130661,-0.106935 -0.195992,-0.24256 -0.195992,-0.406775c0,-0.016185 0.000592,-0.035705 0.001776,-0.058975" id="svg_111"/>
  <path fill="#393536" fill-rule="nonzero" d="m244.881067,264.116767l-0.487513,0l0,-0.940209c0,-0.198775 -0.010461,-0.327522 -0.031185,-0.385885c-0.020922,-0.058442 -0.054672,-0.103858 -0.10145,-0.136227c-0.046975,-0.032389 -0.103226,-0.048495 -0.169149,-0.048495c-0.084476,0 -0.160267,0.023053 -0.227374,0.069219c-0.06691,0.046422 -0.112898,0.107569 -0.137767,0.183972c-0.024869,0.076403 -0.037304,0.217486 -0.037304,0.423347l0,0.834279l-0.487513,0l0,-1.842266l0.452775,0l0,0.270619c0.160662,-0.208032 0.363167,-0.312265 0.607121,-0.312265c0.107569,0 0.205861,0.019579 0.294876,0.058205c0.089016,0.038705 0.156517,0.088048 0.202111,0.148267c0.045791,0.060219 0.077568,0.128293 0.095529,0.204696c0.017764,0.076324 0.026843,0.185729 0.026843,0.327838l0,1.144905" id="svg_110"/>
  <path fill="#393536" fill-rule="nonzero" d="m246.39887,263.037765c-0.003355,-0.141162 -0.039869,-0.248099 -0.109148,-0.321877c-0.069476,-0.073245 -0.153951,-0.109937 -0.253428,-0.109937c-0.106384,0 -0.194216,0.038626 -0.263691,0.116174c-0.069278,0.07741 -0.103424,0.182571 -0.10224,0.31564l0.728506,0zm-0.027632,0.492664l0.485539,0.081496c-0.06237,0.178268 -0.16086,0.313804 -0.295666,0.407004c-0.134806,0.093141 -0.303363,0.139484 -0.505671,0.139484c-0.320337,0 -0.557383,-0.104549 -0.711335,-0.314021c-0.121385,-0.16755 -0.181978,-0.379332 -0.181978,-0.634912c0,-0.305159 0.079739,-0.544179 0.239414,-0.717019c0.159478,-0.172939 0.361391,-0.259606 0.605345,-0.259606c0.274152,0 0.490276,0.090594 0.648767,0.271389c0.158491,0.181189 0.234085,0.458361 0.227177,0.83191l-1.221151,0c0.003553,0.144556 0.04283,0.257198 0.117832,0.337371c0.075199,0.080509 0.168952,0.120595 0.28106,0.120595c0.076384,0 0.14053,-0.020744 0.192637,-0.06237c0.052107,-0.041646 0.091384,-0.108792 0.118029,-0.201321" id="svg_109"/>
  <path fill="#393536" fill-rule="nonzero" d="m247.597718,263.155814c0,0.196525 0.027238,0.338851 0.081515,0.426663c0.078752,0.127365 0.188492,0.1909 0.329614,0.1909c0.112108,0 0.207637,-0.047804 0.286192,-0.143096c0.078752,-0.095529 0.118029,-0.238092 0.118029,-0.427748c0,-0.211565 -0.03829,-0.36376 -0.114477,-0.45688c-0.076384,-0.093141 -0.174084,-0.139701 -0.293297,-0.139701c-0.115464,0 -0.212374,0.045949 -0.290534,0.137688c-0.077963,0.092213 -0.117043,0.229368 -0.117043,0.412175zm1.301087,0.960953l-0.452775,0l0,-0.27054c-0.075199,0.10518 -0.164017,0.183735 -0.266257,0.235092c-0.102437,0.051258 -0.205663,0.077094 -0.309679,0.077094c-0.211585,0 -0.392971,-0.085206 -0.543962,-0.255974c-0.150793,-0.170314 -0.22619,-0.408307 -0.22619,-0.713703c0,-0.312245 0.073423,-0.549488 0.220269,-0.712085c0.146846,-0.162458 0.332377,-0.243796 0.556791,-0.243796c0.205861,0 0.383892,0.08566 0.53429,0.256823l0,-0.916011l0.487513,0l0,2.5431" id="svg_108"/>
  <path fill="#393536" fill-rule="nonzero" d="m250.687405,263.155814c0,0.190821 0.030001,0.331982 0.0902,0.423347c0.084279,0.129457 0.196584,0.194216 0.336522,0.194216c0.107569,0 0.19915,-0.045949 0.274941,-0.137925c0.075791,-0.091838 0.113687,-0.236848 0.113687,-0.434696c0,-0.2104 -0.03829,-0.361983 -0.114477,-0.455104c-0.076384,-0.093141 -0.174084,-0.139701 -0.293297,-0.139701c-0.116845,0 -0.213953,0.045317 -0.291323,0.136148c-0.077568,0.090752 -0.116253,0.228519 -0.116253,0.413715zm-0.48396,0.960953l0,-2.5431l0.487316,0l0,0.916011c0.150399,-0.171162 0.32843,-0.256823 0.53429,-0.256823c0.224414,0 0.409945,0.081338 0.556988,0.243796c0.146846,0.162596 0.220269,0.395754 0.220269,0.699907c0,0.314554 -0.074805,0.556949 -0.224611,0.726888c-0.149807,0.169919 -0.331785,0.254967 -0.545738,0.254967c-0.1052,0 -0.208821,-0.026448 -0.311258,-0.078871c-0.102437,-0.05258 -0.190466,-0.130306 -0.264481,-0.233315l0,0.27054l-0.452775,0" id="svg_107"/>
  <path fill="#393536" fill-rule="nonzero" d="m252.092508,262.274501l0.518698,0l0.440735,1.307975l0.430077,-1.307975l0.504882,0l-0.650544,1.773047l-0.116253,0.32087c-0.042633,0.107411 -0.083489,0.189518 -0.122174,0.24634c-0.038883,0.056668 -0.083292,0.102465 -0.133622,0.137777c-0.05033,0.03531 -0.112306,0.062759 -0.185729,0.082496c-0.073423,0.019581 -0.15632,0.02945 -0.248888,0.02945c-0.093555,0 -0.185531,-0.009869 -0.275731,-0.02945l-0.043422,-0.381723c0.076384,0.01504 0.14507,0.02252 0.206453,0.02252c0.113292,0 0.197176,-0.033159 0.251454,-0.099457c0.054475,-0.066772 0.096121,-0.151425 0.124938,-0.254434l-0.700874,-1.847437" id="svg_106"/>
  <g stroke="null" transform="rotate(11.754117965698242 64.86460876464811,355.74987792968744) " id="svg_207">
   <path fill="#e9e9e9" fill-rule="nonzero" d="m22.774284,399.89757c25.399371,5.002591 111.603279,15.008385 116.221291,-21.166551c0.052053,-0.406013 -1.509534,-0.764872 -4.336314,-1.077801c0.532164,-2.934559 0.644231,-6.700128 0.436632,-10.54592l0.006736,0.006124c1.977398,1.977398 4.233433,-2.232764 3.906418,-6.696454c0.67975,-0.323953 1.291525,-0.846931 1.840224,-1.645484c3.049076,-4.434296 0.086959,-11.147896 -6.558667,-15.18414c0.649743,-0.010411 0.997579,-0.015922 0.997579,-0.015922c1.853696,-10.751682 -14.08858,-41.894633 -72.29537,-39.66983c-58.207403,2.22419 -65.992865,38.928229 -64.13923,40.410818c0.133745,0.107168 0.959978,0.194739 2.371837,0.265164c-4.07213,1.573223 -8.83442,4.257928 -9.045143,8.262328c-0.197372,3.74781 2.439261,4.242006 6.512799,3.605123c-0.959733,3.507754 0.281576,8.169858 2.331848,9.735732c-0.231054,4.101769 -0.182491,8.499934 0.664808,11.49267c-1.790988,0.206987 -2.888753,0.431121 -3.16053,0.673014c-3.463539,3.07847 -1.154411,16.547927 24.245083,21.55113" id="svg_201"/>
   <path fill="#ef2e3b" fill-rule="nonzero" d="m130.168626,380.306692c0.532164,-2.933947 0.644231,-6.700128 0.436632,-10.54592c-2.128045,-2.121922 -10.360979,-7.134311 -14.167578,-9.40443c-1.964538,-0.09492 -4.093196,-0.018984 -6.401896,0.327627c-13.779324,2.066807 -15.399088,7.327825 -21.803434,3.306278c-7.488883,5.321645 -19.105868,13.07018 -25.281793,12.264891c-5.901575,-0.769771 -16.594468,-7.042453 -22.621583,-10.833742c-5.174672,0.084509 -10.146643,-1.133529 -14.081844,-3.995826c-5.789509,-4.210774 -7.659127,-5.990984 -11.967883,-6.007518c-2.997635,2.99886 -11.741912,11.624946 -15.096753,13.607856c-0.950119,0.561559 -1.858411,0.412137 -2.648575,-0.191065c-0.230809,4.101157 -0.182246,8.499934 0.664808,11.49267c18.564946,-2.143355 111.690667,-2.378512 132.969897,-0.020821" id="svg_195"/>
   <path fill="#f9b00b" fill-rule="nonzero" d="m18.283036,402.551044c25.399371,5.002591 111.603892,15.008998 116.221903,-21.166551c0.051441,-0.406013 -1.510147,-0.764872 -4.336314,-1.077801c-21.27923,-2.357691 -114.404951,-2.122534 -132.969897,0.020821c-1.790743,0.206374 -2.888508,0.431121 -3.16053,0.672401c-3.463295,3.07847 -1.154411,16.548539 24.244838,21.55113" id="svg_194"/>
   <path fill="#fdd605" fill-rule="nonzero" d="m56.647869,361.054463c-4.987894,2.68593 -10.770054,4.275687 -16.318894,4.366933c6.027115,3.791289 16.720008,10.063971 22.621583,10.833742c6.175925,0.805289 17.79291,-6.943246 25.281793,-12.264891c-0.488685,-0.306806 -1.001865,-0.661378 -1.553626,-1.082088c-7.785891,-5.931582 -20.391269,-7.043677 -30.030856,-1.853696" id="svg_193"/>
   <path fill="#fdd605" fill-rule="nonzero" d="m-0.817504,369.025907c3.354841,-1.98291 12.099117,-10.608996 15.096753,-13.607856c-1.761226,-0.007349 -3.927851,0.278636 -6.940184,0.816925c-4.858068,0.867753 -9.553301,2.303188 -13.136746,2.863523c-0.959733,3.508366 0.281331,8.169858 2.331603,9.736344c0.790163,0.603201 1.698456,0.752624 2.648575,0.191065" id="svg_168"/>
   <path fill="#fdd605" fill-rule="nonzero" d="m116.43768,360.356342c3.806599,2.270119 12.039532,7.282508 14.167578,9.40443l0.006736,0.006736c1.977398,1.976786 4.233433,-2.232764 3.906418,-6.697066c-3.584302,1.71101 -9.123957,-2.281755 -18.080732,-2.7141" id="svg_167"/>
   <path fill="#80cc28" fill-rule="nonzero" d="m7.339064,356.234976c3.012333,-0.538288 5.178958,-0.824273 6.940184,-0.816925c4.308756,0.016534 6.178374,1.796744 11.967883,6.007518c3.9352,2.862298 8.907172,4.080336 14.081844,3.995826c5.54884,-0.091246 11.331,-1.681003 16.318894,-4.366933c9.639587,-5.189981 22.244965,-4.077886 30.030856,1.853696c0.551761,0.42071 1.064941,0.775282 1.553626,1.082088c6.404345,4.021547 8.024109,-1.239472 21.803434,-3.306278c2.3087,-0.346611 4.437358,-0.422547 6.401896,-0.327627c8.956775,0.432345 14.49643,4.42511 18.080732,2.7141c0.67975,-0.323953 1.291525,-0.846931 1.840224,-1.644872c3.049076,-4.434908 0.086959,-11.148509 -6.559279,-15.18414c-11.313853,0.183104 -115.871618,1.849409 -133.06494,0.989618c-4.071885,1.573223 -8.834175,4.257928 -9.045143,8.262328c-0.197127,3.74781 2.439506,4.242006 6.513044,3.605123c3.583445,-0.560334 8.278679,-1.99577 13.136746,-2.863523" id="svg_166"/>
   <path fill="#f9b00b" fill-rule="nonzero" d="m48.769508,315.175027c-0.462965,0.462965 -2.854949,0.835909 -2.780238,0.09247c0.09247,-0.926542 3.243815,-0.556048 2.780238,-0.09247zm-0.09247,-5.654171c0.741601,0.371107 3.892945,0.556048 1.668143,1.112095c-2.22419,0.55666 -2.780238,-1.668143 -1.668143,-1.112095zm7.850804,-0.693835c0.911232,-0.570132 2.734921,-0.684036 1.936981,0.227808c-0.797328,0.911845 -3.167267,0.540738 -1.936981,-0.227808zm2.598971,5.163649c-0.729966,0.625247 -2.959055,0.206987 -2.085791,-0.417036c0.729966,-0.521754 2.815144,-0.208824 2.085791,0.417036zm5.306947,-4.469814c0.927154,-0.278024 3.521839,0.371107 2.224803,0.741601c-1.297648,0.370494 -3.90948,-0.236381 -2.224803,-0.741601zm3.107253,4.790705c1.042895,-0.927154 3.012333,-0.116354 2.433014,0.347224c-0.579318,0.463577 -3.534699,0.631984 -2.433014,-0.347224zm3.844567,-3.493057c2.22419,-1.297648 3.707392,0.09247 3.058262,0.64913c-0.648518,0.556048 -3.882535,-0.168406 -3.058262,-0.64913zm10.032739,-0.237606c-0.254753,0.637495 -2.803509,-1.019625 -2.803509,-1.019625c0.637495,-0.38213 3.058874,0.382742 2.803509,1.019625zm0.959611,4.77662c-0.797328,0.911845 -3.167267,0.540738 -1.936981,-0.227808c0.911232,-0.570132 2.734921,-0.684036 1.936981,0.227808zm47.421427,30.883911c0.650355,-0.011023 0.998191,-0.016534 0.998191,-0.016534c1.853696,-10.751682 -14.08858,-41.894633 -72.295982,-39.66983c-58.206913,2.22419 -65.99262,38.928229 -64.13874,40.411431c0.1335,0.106555 0.959733,0.194127 2.371592,0.264551c17.193322,0.859792 121.751086,-0.806514 133.06494,-0.989618" id="svg_165"/>
   <path fill="#fdd605" fill-rule="nonzero" d="m50.34518,310.632951c2.224803,-0.556048 -0.926542,-0.740989 -1.668143,-1.112095c-1.112095,-0.556048 -0.556048,1.668755 1.668143,1.112095" id="svg_164"/>
   <path fill="#fdd605" fill-rule="nonzero" d="m66.658562,310.262457c1.297036,-0.370494 -1.297648,-1.019625 -2.224803,-0.741601c-1.684677,0.505219 0.927154,1.112095 2.224803,0.741601" id="svg_163"/>
   <path fill="#fdd605" fill-rule="nonzero" d="m58.464822,309.054829c0.797941,-0.911845 -1.025749,-0.797941 -1.936981,-0.227808c-1.230286,0.768546 1.139653,1.139653 1.936981,0.227808" id="svg_162"/>
   <path fill="#fdd605" fill-rule="nonzero" d="m82.377929,315.357518c0.797941,-0.911845 -1.025749,-0.797941 -1.936981,-0.227808c-1.230286,0.768546 1.139653,1.139653 1.936981,0.227808" id="svg_161"/>
   <path fill="#fdd605" fill-rule="nonzero" d="m74.443841,311.467635c0.64913,-0.55666 -0.834071,-1.946779 -3.058262,-0.64913c-0.824273,0.480724 2.409744,1.205178 3.058262,0.64913" id="svg_160"/>
   <path fill="#fdd605" fill-rule="nonzero" d="m57.041021,313.573634c-0.873264,0.624023 1.355825,1.042283 2.085791,0.417036c0.729353,-0.62586 -1.355825,-0.93879 -2.085791,-0.417036" id="svg_159"/>
   <path fill="#fdd605" fill-rule="nonzero" d="m81.418318,310.580898c0.255365,-0.636883 -2.166014,-1.401754 -2.803509,-1.019625c0,0 2.548755,1.65712 2.803509,1.019625" id="svg_158"/>
   <path fill="#fdd605" fill-rule="nonzero" d="m69.974027,314.658784c0.579318,-0.463577 -1.390119,-1.274378 -2.433014,-0.347224c-1.101685,0.979207 1.853696,0.810801 2.433014,0.347224" id="svg_157"/>
   <path fill="#fdd605" fill-rule="nonzero" d="m48.769508,315.175027c0.463577,-0.463577 -2.687767,-0.834071 -2.780238,0.09247c-0.074711,0.743438 2.317273,0.370494 2.780238,-0.09247" id="svg_156"/>
  </g>
  <g stroke="null" id="svg_208">
   <path fill="#e9e9e9" fill-rule="nonzero" d="m320.934313,306.515762c0.66676,-3.117076 -0.001693,-5.937852 -2.697854,-8.212419c-2.263055,-1.909526 -5.148508,-1.952871 -8.449798,-0.685046c-1.293222,-0.822867 -2.606085,-1.617967 -3.918948,-2.39004c-5.097037,-2.998217 -17.015746,-7.995359 -24.806234,5.535222c-7.790488,13.530581 -21.936018,23.986076 -28.906348,26.855953c-4.601962,1.894965 -6.252133,15.227787 1.0616,26.075414c-0.781216,2.596942 -0.444958,5.169165 1.330133,8.024819c1.482854,2.384961 4.441113,2.412051 8.231044,0.926826c2.754405,1.632528 5.958508,2.98264 9.673263,3.925043c27.471241,6.97033 20.295702,-10.455495 31.981434,-18.656062c11.685394,-8.200229 23.575996,-15.580638 22.961047,-27.26637c-0.291559,-5.537593 -2.79504,-10.153438 -6.459339,-14.13334" id="svg_198"/>
   <path fill="#f9b00b" fill-rule="nonzero" d="m275.824588,325.410896c-1.729715,-0.562801 -4.090294,-1.266471 -2.871909,1.657925c0.266839,0.667437 0.589214,1.303381 0.958996,1.912235c0.981007,-1.052119 1.971495,-2.118799 2.969095,-3.191235c-0.349465,-0.134436 -0.700622,-0.263114 -1.056182,-0.378925" id="svg_155"/>
   <path fill="#f9b00b" fill-rule="nonzero" d="m298.014578,334.155301c1.240735,0.326438 2.503142,0.517086 3.780449,0.510313c4.52103,-0.024381 3.720173,-3.226453 2.019919,-6.297136c-0.763946,0.775459 -1.525522,1.540083 -2.275584,2.290145c-0.986425,0.986425 -2.176027,2.170948 -3.524785,3.496678" id="svg_154"/>
   <path fill="#f9b00b" fill-rule="nonzero" d="m251.880164,344.619261c-1.262407,-0.930213 -0.037249,-3.06662 1.241751,-2.124217c1.425965,1.050764 2.886131,2.058184 4.375419,3.021244c3.842757,-3.998526 8.951984,-8.64688 14.61961,-14.622319c-0.678612,-1.00505 -1.238365,-2.056153 -1.536358,-3.171256c-0.308152,-1.152353 -1.149983,-3.93825 0.263792,-4.686619c2.349743,-1.243105 5.195916,-0.635944 8.001115,0.643056c4.364583,-4.679169 8.817549,-9.375947 13.116777,-13.43949c-0.823545,-1.344355 -1.461859,-2.791992 -1.01724,-4.408266c1.100204,-3.99988 6.321856,-4.144813 9.547293,-2.832628c2.406294,-1.749694 4.69373,-3.100144 6.811175,-3.913191c-1.293561,-0.822867 -2.606424,-1.617967 -3.919287,-2.39004c-5.096698,-2.998217 -17.015746,-7.995359 -24.805895,5.535222c-7.790488,13.530581 -21.936018,23.986076 -28.906348,26.856291c-4.60203,1.894965 -6.2522,15.227448 1.0616,26.075414c0.751078,-2.49637 2.537005,-5.015766 5.070624,-7.830108c-1.329456,-0.863503 -2.638255,-1.765948 -3.924028,-2.713092" id="svg_153"/>
   <path fill="#f9b00b" fill-rule="nonzero" d="m280.521028,352.888571c0.156108,-0.936647 0.263114,-1.891579 0.305443,-2.849221c-1.664021,1.418854 -3.342264,2.807231 -5.011025,4.1333c1.964384,0.713829 4.238952,1.515363 4.705582,-1.284079" id="svg_152"/>
   <path fill="#f9b00b" fill-rule="nonzero" d="m318.451149,307.983039c-0.319327,1.493352 -0.944435,3.054091 -1.801504,4.656481c0.553996,0.749724 0.258374,2.062248 -0.908879,1.962014c-0.075514,-0.006773 -0.148658,-0.016593 -0.223156,-0.02472c-2.46657,3.905403 -6.085155,7.982829 -9.817519,11.858094c2.417131,3.596912 4.399462,7.84433 0.188616,10.125671c-2.773706,1.502495 -6.450535,0.899397 -9.934007,-0.392809c-3.630098,3.524785 -8.087466,7.731906 -12.770021,11.832697c0.096848,1.303381 0.089737,2.627757 -0.040297,3.971774c-0.15814,1.635576 -0.571605,4.907743 -2.61726,5.470544c-2.087984,0.574314 -4.832907,-0.466969 -7.111538,-1.401245c-4.776017,3.633484 -9.358338,6.598177 -13.12084,8.072566c2.754066,1.63219 5.958508,2.982302 9.672924,3.924705c27.471241,6.97033 20.29604,-10.455495 31.981434,-18.656062c11.685732,-8.200229 23.576335,-15.580638 22.961047,-27.266032c-0.291221,-5.537931 -2.79504,-10.153777 -6.459001,-14.133678" id="svg_151"/>
   <path fill="#f9b00b" fill-rule="nonzero" d="m294.495889,305.216106c-1.263423,0.8889 -1.199761,2.113381 -0.687077,3.310771c1.477098,-1.344017 2.931507,-2.59999 4.352731,-3.74083c-1.266471,-0.339306 -2.56782,-0.342353 -3.665654,0.430058" id="svg_150"/>
   <path fill="#ef2e3b" fill-rule="nonzero" d="m298.014578,334.155301c1.348757,-1.325731 2.53836,-2.510253 3.524785,-3.496678c0.750062,-0.750062 1.511638,-1.514685 2.275584,-2.290145c-1.141517,-2.062248 -2.688372,-4.065236 -3.302644,-5.0073c-2.509238,-3.849529 -5.018475,-7.699059 -7.527713,-11.548588c-0.332533,-0.509975 -0.691818,-1.033494 -1.02232,-1.57293c-4.299228,4.063543 -8.752193,8.76032 -13.116777,13.43949c3.442498,1.569205 6.822688,4.150231 9.147034,5.577551c3.035466,1.863812 6.436313,3.955859 10.02205,4.898601" id="svg_149"/>
   <path fill="#ef2e3b" fill-rule="nonzero" d="m276.880771,325.789821c-0.9976,1.072437 -1.988088,2.139117 -2.969095,3.191235c0.174394,0.287834 0.356237,0.571266 0.553658,0.845555c0.949176,1.294916 1.996554,2.500433 2.963677,3.779095c3.23458,4.275863 5.367262,9.157193 5.755669,14.394761c4.682555,-4.100792 9.139923,-8.307913 12.770021,-11.832697c-3.061541,-1.13576 -5.973746,-2.803506 -7.990956,-4.042209c-3.558309,-2.184831 -7.14066,-4.820039 -11.082974,-6.33574" id="svg_148"/>
   <path fill="#ef2e3b" fill-rule="nonzero" d="m271.549742,355.286738c-5.551815,-2.103222 -10.79988,-4.742493 -15.74555,-7.954384c-2.533619,2.814342 -4.319546,5.333738 -5.070624,7.830108c-0.781216,2.596604 -0.444958,5.168826 1.330133,8.024481c1.482516,2.384961 4.440775,2.412051 8.231044,0.927165c3.762502,-1.474389 8.344823,-4.439082 13.12084,-8.072566c-0.6715,-0.275644 -1.304736,-0.542144 -1.865843,-0.754803" id="svg_147"/>
   <path fill="#ef2e3b" fill-rule="nonzero" d="m298.161543,304.786047c-1.421224,1.14084 -2.875634,2.396813 -4.352731,3.74083c0.554674,1.294577 1.634221,2.556646 2.136407,3.327364c2.230546,3.421503 4.461092,6.843683 6.6913,10.265186c0.734485,1.126617 1.945421,2.651461 3.063572,4.315482c3.732364,-3.875265 7.350948,-7.952691 9.817519,-11.858094c-5.913132,-0.619013 -9.084727,-5.3185 -13.900363,-8.201583c-0.957303,-0.572959 -2.188895,-1.249201 -3.455704,-1.589184" id="svg_146"/>
   <path fill="#ef2e3b" fill-rule="nonzero" d="m301.127252,303.288971c4.991385,2.563757 8.746437,8.347194 14.613515,8.852427c0.410756,0.035217 0.712136,0.231961 0.908879,0.498123c0.857069,-1.60239 1.482177,-3.163129 1.801504,-4.656481c0.666421,-3.117076 -0.002032,-5.937852 -2.697854,-8.212419c-2.263393,-1.909526 -5.148847,-1.952532 -8.449798,-0.685046c-2.117444,0.813047 -4.40488,2.163498 -6.811175,3.913191c0.221802,0.090414 0.434122,0.186923 0.634929,0.290205" id="svg_145"/>
   <path fill="#ef2e3b" fill-rule="nonzero" d="m275.815445,354.17265c1.668761,-1.326069 3.347005,-2.714446 5.011025,-4.1333c0.058921,-1.343001 -0.014222,-2.691758 -0.294268,-4.00496c-0.778846,-3.6494 -2.191604,-7.173846 -4.457706,-10.169692c-1.187232,-1.569205 -2.759484,-3.196992 -3.957552,-4.970728c-5.667626,5.975439 -10.776853,10.623793 -14.61961,14.622319c5.392998,3.487874 11.188626,6.361137 17.319495,8.307235c0.315602,0.100234 0.652199,0.223495 0.998616,0.349126" id="svg_144"/>
   <path fill="#fdd605" fill-rule="nonzero" d="m315.740767,312.141398c-5.867078,-0.505234 -9.62213,-6.288671 -14.613515,-8.852427c-0.200807,-0.103282 -0.413127,-0.199791 -0.634929,-0.290205c-3.225437,-1.312186 -8.447089,-1.167253 -9.547293,2.832628c-0.444619,1.616274 0.193696,3.063911 1.01724,4.408266c0.330501,0.539435 0.689786,1.062955 1.02232,1.57293c2.509238,3.849529 5.018475,7.699059 7.527713,11.548588c0.614272,0.942065 2.161127,2.945052 3.302644,5.0073c1.700254,3.070684 2.50111,6.272755 -2.019919,6.297136c-1.277307,0.006773 -2.539714,-0.183875 -3.780449,-0.510313c-3.585738,-0.942742 -6.986584,-3.034789 -10.02205,-4.898601c-2.324346,-1.427319 -5.704536,-4.008346 -9.147034,-5.577551c-2.805199,-1.279 -5.651372,-1.886161 -8.001115,-0.643056c-1.413774,0.748369 -0.571944,3.534266 -0.263792,4.686619c0.297993,1.115104 0.857746,2.166207 1.536358,3.171256c1.198068,1.773736 2.77032,3.401524 3.957552,4.970728c2.266102,2.995847 3.67886,6.520293 4.457706,10.169692c0.280046,1.313201 0.35319,2.661959 0.294268,4.00496c-0.042329,0.957642 -0.149335,1.912574 -0.305443,2.849221c-0.46663,2.799442 -2.741198,1.997908 -4.705582,1.284079c-0.346417,-0.125631 -0.683014,-0.248892 -0.998616,-0.349126c-6.13087,-1.946098 -11.926497,-4.819361 -17.319495,-8.307235c-1.489288,-0.96306 -2.949455,-1.970479 -4.375419,-3.021244c-1.279,-0.942403 -2.504158,1.194004 -1.241751,2.124217c1.285773,0.947144 2.594572,1.849589 3.924028,2.713092c4.94567,3.211892 10.193735,5.851163 15.74555,7.954384c0.561107,0.212659 1.194343,0.479159 1.865843,0.754803c2.278631,0.934276 5.023554,1.975559 7.111538,1.401245c2.045655,-0.562801 2.45912,-3.834968 2.61726,-5.470544c0.130033,-1.344017 0.137145,-2.668393 0.040297,-3.971774c-0.388407,-5.237568 -2.52109,-10.118898 -5.755669,-14.394761c-0.967123,-1.278661 -2.014501,-2.484179 -2.963677,-3.779095c-0.19742,-0.274289 -0.379264,-0.557721 -0.553658,-0.845555c-0.369782,-0.608854 -0.692157,-1.244799 -0.958996,-1.912235c-1.218385,-2.924396 1.142194,-2.220726 2.871909,-1.657925c0.35556,0.115811 0.706718,0.24449 1.056182,0.378925c3.942314,1.515701 7.524665,4.150909 11.082974,6.33574c2.01721,1.238703 4.929416,2.906449 7.990956,4.042209c3.483472,1.292207 7.160301,1.895304 9.934007,0.392809c4.210846,-2.28134 2.228514,-6.528758 -0.188616,-10.125671c-1.118151,-1.664021 -2.329087,-3.188865 -3.063572,-4.315482c-2.230208,-3.421503 -4.460754,-6.843683 -6.6913,-10.265186c-0.502186,-0.770719 -1.581734,-2.032787 -2.136407,-3.327364c-0.512684,-1.197391 -0.576346,-2.421871 0.687077,-3.310771c1.097834,-0.772412 2.399183,-0.769364 3.665654,-0.430058c1.266809,0.339983 2.498401,1.016224 3.455704,1.589184c4.815637,2.883083 7.987231,7.58257 13.900363,8.201583c0.074498,0.008127 0.147642,0.017947 0.223156,0.02472c1.167253,0.100234 1.462875,-1.21229 0.908879,-1.962014c-0.196743,-0.266162 -0.498123,-0.462905 -0.908879,-0.498123" id="svg_143"/>
  </g>
  <g stroke="null" transform="rotate(-28.151418685913086 88.03972625732423,124.90554046630858) " id="svg_209">
   <path fill="#e9e9e9" fill-rule="nonzero" d="m125.484243,170.853217c1.929118,-20.124831 3.928225,-49.716908 1.931192,-50.699871l7.12856,-15.502414l-5.021617,-2.510808l-5.797204,13.692537l7.889631,-29.281531l-2.302395,-0.723743l2.720777,-10.262015l-4.812685,-2.091908l-3.374531,10.636329l-3.216925,-1.011478l-2.991403,20.581059l-6.545314,20.632384l3.379715,-35.655241l5.215513,-24.181111l-8.160775,-1.673527l-2.269733,9.826007l-1.810395,-0.200637l-1.535621,14.686388l-7.517909,32.548744l3.404082,-36.877724l-2.940077,-0.43549l1.99807,-20.593501l-9.20647,-0.837282l-1.946745,24.656521l0.167975,-20.994775l-9.730095,0.941488l0.261294,15.746081l-1.935339,-26.836046l-9.62537,1.255663l1.643975,20.572764l-6.665592,0.247296l0.8378,17.497374l-2.930227,-21.36857l-7.532943,1.674045l1.830096,21.883382l-2.562652,-6.817495l-9.729577,3.13864l5.348234,13.594034l-2.837426,0.844021l4.534801,14.04404c-1.863794,-0.904161 -3.186337,-1.312173 -3.906969,-0.861648c-5.022135,3.13864 1.882977,69.678948 6.27728,70.620437c4.394303,0.942007 16.948863,-7.532943 31.700575,-10.357408c6.875042,-1.316321 15.384728,0.775587 22.640824,3.257881c0.52207,3.617679 1.051916,6.964732 1.317876,7.674996c0.627832,1.674045 17.995595,2.511327 20.296953,1.046213c1.830096,-1.164418 2.601535,-11.844296 2.841055,-16.596842c1.803137,-0.266997 3.1122,-0.655309 3.645675,-1.188785c2.40038,-2.40038 -3.277582,-3.209666 -10.105965,-3.738476" id="svg_200"/>
   <path fill="#f9b00b" fill-rule="nonzero" d="m110.670319,90.902921l5.215513,-24.180593l-8.160775,-1.674045l-2.269733,9.826525l6.664037,0.740333l-1.449042,15.287779" id="svg_190"/>
   <path fill="#f9b00b" fill-rule="nonzero" d="m110.244679,130.633624l3.591239,-24.707847l-6.545314,20.632384l-0.526217,5.551463c1.243739,-0.471781 2.398307,-0.967929 3.480292,-1.476001" id="svg_189"/>
   <path fill="#f9b00b" fill-rule="nonzero" d="m97.366094,134.732416l4.743214,-45.372375l-7.518427,32.549262l-1.241665,13.454573c1.39979,-0.17627 2.737367,-0.388831 4.016879,-0.631461" id="svg_188"/>
   <path fill="#f9b00b" fill-rule="nonzero" d="m87.009722,135.87817c0.571322,-0.022293 1.126572,-0.055473 1.680785,-0.089172l0.830024,-52.013081l5.534354,0.819655l1.998589,-20.593501l-9.206988,-0.837282l-1.946226,24.656521l-0.384683,48.082264c0.496148,-0.004666 0.99074,-0.005703 1.494146,-0.025404" id="svg_187"/>
   <path fill="#f9b00b" fill-rule="nonzero" d="m128.230942,77.812294l-4.812167,-2.092427l-3.374531,10.636329l5.46592,1.717594l2.720777,-10.261497" id="svg_186"/>
   <path fill="#f9b00b" fill-rule="nonzero" d="m45.277838,108.355709l-2.837944,0.843503l4.535319,14.04404c1.43971,0.69834 3.204482,1.69219 5.270987,2.823946l-6.968361,-17.71149" id="svg_185"/>
   <path fill="#f9b00b" fill-rule="nonzero" d="m123.418776,122.381604c0.068953,-0.024885 0.132721,-0.011924 0.194415,0.018145l7.129078,-15.502414l-5.022135,-2.510808l-5.796685,13.692537l-2.215816,8.224543c2.767955,-1.928081 4.54517,-3.497919 5.711143,-3.922004" id="svg_184"/>
   <path fill="#f9b00b" fill-rule="nonzero" d="m74.341624,134.815885c1.017699,0.207895 2.060802,0.383646 3.118421,0.538141l-0.860612,-51.839404l-1.935339,-26.836564l-9.62537,1.255663l1.643975,20.573282l1.80884,-0.066879l5.850085,56.37576" id="svg_183"/>
   <path fill="#f9b00b" fill-rule="nonzero" d="m60.854389,96.251156l-2.930227,-21.36857l-7.532425,1.674045l1.829577,21.883382l10.013164,26.642149l-1.380089,-28.831006" id="svg_182"/>
   <path fill="#fdd605" fill-rule="nonzero" d="m106.764387,132.109625l0.526217,-5.551463l3.379715,-35.655241l1.449042,-15.287779l-6.664037,-0.740333l-1.810395,-0.201155l-1.535621,14.686388l-4.743214,45.372375c3.572575,-0.677602 6.684774,-1.593168 9.398293,-2.622791" id="svg_181"/>
   <path fill="#fdd605" fill-rule="nonzero" d="m74.341624,134.815885l-5.850085,-56.37576l-1.80884,0.066879l-6.66611,0.246778l0.8378,17.497374l1.380089,28.831006l-10.013164,-26.642149l-2.562134,-6.817495l-9.730095,3.13864l5.348753,13.594552l6.968361,17.71149c5.429111,2.971702 12.936132,6.87245 22.095424,8.748687" id="svg_180"/>
   <path fill="#fdd605" fill-rule="nonzero" d="m88.690507,135.788999c1.621683,-0.098504 3.178041,-0.23952 4.658708,-0.425121l1.241665,-13.454573l3.404082,-36.878242l-2.940077,-0.43549l-5.534354,-0.819655l-0.830024,52.013081" id="svg_179"/>
   <path fill="#fdd605" fill-rule="nonzero" d="m117.707633,126.303608l2.215816,-8.224543l7.889112,-29.281531l-2.302395,-0.723743l-5.46592,-1.717594l-3.216925,-1.010959l-2.991403,20.58054l-3.591239,24.707847c3.069169,-1.43971 5.514135,-2.972739 7.462954,-4.330017" id="svg_178"/>
   <path fill="#fdd605" fill-rule="nonzero" d="m85.515576,135.903574l0.384683,-48.082264l0.167975,-20.994256l-9.730095,0.941488l0.261294,15.746081l0.860612,51.839404c2.571466,0.375351 5.258544,0.576506 8.055532,0.549547" id="svg_177"/>
   <path fill="#ef2e3b" fill-rule="nonzero" d="m82.929594,170.403729c-10.920953,0 -19.773847,-5.620934 -19.773847,-12.55456c0,-6.934144 8.852893,-12.555078 19.773847,-12.555078c10.920435,0 19.773328,5.620934 19.773328,12.555078c0,6.933626 -8.852893,12.55456 -19.773328,12.55456zm15.797925,5.597604c0,-2.092945 2.753439,-4.309279 16.530482,-3.34809c2.116275,0.147756 4.324314,0.284106 6.424517,0.446896c1.928599,-20.125349 3.928225,-49.717426 1.930673,-50.70039c-0.061694,-0.03007 -0.125463,-0.043031 -0.194415,-0.018145c-1.165973,0.424084 -2.943188,1.993923 -5.711143,3.922004c-1.948819,1.357278 -4.393785,2.890307 -7.462954,4.330017c-1.081986,0.508072 -2.236553,1.00422 -3.480292,1.476001c-2.713519,1.029623 -5.825718,1.945189 -9.398293,2.622791c-1.279512,0.24263 -2.617089,0.455191 -4.016879,0.631461c-1.480667,0.185602 -3.037026,0.326618 -4.658708,0.425121c-0.554213,0.033699 -1.109463,0.066879 -1.680785,0.089172c-0.503406,0.019701 -0.997998,0.020738 -1.494146,0.025404c-2.796988,0.026959 -5.484066,-0.174196 -8.055532,-0.549547c-1.057619,-0.154495 -2.100722,-0.330247 -3.118421,-0.538141c-9.159292,-1.876237 -16.666313,-5.776985 -22.095424,-8.748687c-2.066505,-1.131756 -3.831277,-2.125607 -5.270987,-2.823946c-1.863794,-0.903642 -3.186855,-1.312173 -3.907488,-0.861648c-5.021617,3.13864 1.883495,69.679467 6.277798,70.620955c4.393785,0.941488 16.948863,-7.532943 31.700575,-10.357927c6.874524,-1.316321 15.384728,0.775587 22.640824,3.257881c-0.461931,-3.201371 -0.916603,-6.607008 -1.177897,-8.595747c-2.315356,-0.390386 -3.781506,-0.842466 -3.781506,-1.305434" id="svg_176"/>
   <path fill="#f9b00b" fill-rule="nonzero" d="m126.375443,181.2324c0.302769,0.605539 -1.211077,11.203503 -2.27077,12.010716c-1.059693,0.807212 -15.089217,0.807212 -17.006929,-0.55525c-1.917712,-1.362462 -2.687078,-11.877476 -1.716039,-12.313485c2.472962,-1.1105 5.854232,1.766327 9.992426,0.605539c4.138194,-1.160789 10.698542,-0.353058 11.001312,0.252481zm-23.866418,-3.925633c0.261294,1.988739 0.715967,5.394375 1.177897,8.595747c0.521551,3.617679 1.051398,6.965251 1.317876,7.675515c0.627832,1.673527 17.995077,2.510808 20.296953,1.046213c1.830096,-1.164418 2.601017,-11.844296 2.840537,-16.597361c-6.45666,0.956005 -19.263183,0.354095 -25.633263,-0.720114" id="svg_175"/>
   <path fill="#fdd605" fill-rule="nonzero" d="m102.702922,157.849169c0,-6.934144 -8.852893,-12.555078 -19.773328,-12.555078c-10.920953,0 -19.773847,5.620934 -19.773847,12.555078c0,6.933626 8.852893,12.55456 19.773847,12.55456c10.920435,0 19.773328,-5.620934 19.773328,-12.55456" id="svg_174"/>
   <path fill="#fdd605" fill-rule="nonzero" d="m127.235018,176.334172c-2.296692,1.186192 -23.842051,-0.159161 -23.818721,-0.991777c0.022811,-0.832616 2.031769,-1.659529 11.950577,-1.002664c6.477917,0.429269 14.164837,0.808249 11.868144,1.994441zm-5.5525,-3.234033c-2.100203,-0.16279 -4.308242,-0.29914 -6.424517,-0.446896c-13.777043,-0.961189 -16.530482,1.255145 -16.530482,3.34809c0,0.462968 1.46615,0.915048 3.781506,1.305434c6.370081,1.074209 19.176603,1.676119 25.633263,0.720114c1.803137,-0.266997 3.112718,-0.655309 3.646193,-1.188785c2.40038,-2.40038 -3.278101,-3.209666 -10.105965,-3.737957" id="svg_173"/>
   <path fill="#f9b00b" fill-rule="nonzero" d="m115.366873,174.33973c-9.918807,-0.656864 -11.927765,0.170049 -11.950577,1.002664c-0.02333,0.832616 21.522029,2.177969 23.818721,0.991777c2.296692,-1.186192 -5.390228,-1.565172 -11.868144,-1.994441" id="svg_172"/>
   <path fill="#ef2e3b" fill-rule="nonzero" d="m115.374131,180.979919c-4.138194,1.160789 -7.519464,-1.716039 -9.992426,-0.605539c-0.971039,0.436009 -0.201673,10.951023 1.716039,12.313485c1.917712,1.362462 15.947236,1.362462 17.006929,0.55525c1.059693,-0.807212 2.57354,-11.405177 2.27077,-12.010716c-0.302769,-0.605539 -6.863118,-1.413269 -11.001312,-0.252481" id="svg_171"/>
  </g>
  <g transform="rotate(11.160558700561523 497.79965209960955,280.4153442382813) " stroke="null" id="svg_210">
   <path fill="#e9e9e9" fill-rule="nonzero" d="m473.856658,269.455897l4.7987,0c0.833108,11.040065 4.368261,56.78809 5.846333,58.142931c1.681142,1.541249 27.880642,1.401009 29.421544,-0.560265c1.370809,-1.744666 4.736217,-47.485054 5.463798,-57.582666l4.901103,0c0.541173,0 0.983761,-0.442588 0.983761,-0.983414l0,-2.796465c0,-0.541173 -0.442588,-0.983761 -0.983761,-0.983761l-24.041752,0c0.121842,-4.982331 0.427662,-16.603836 0.647394,-17.372725c0.280132,-0.980637 19.053867,-12.04882 19.334346,-12.609432c0.280132,-0.560265 -0.980984,-4.063136 -1.961621,-4.063136c-0.980637,0 -21.43586,11.769034 -21.996125,14.430813c-0.457168,2.171634 -0.63455,14.97268 -0.684537,19.614479l-21.729184,0c-0.541173,0 -0.983761,0.442588 -0.983761,0.983761l0,2.796465c0,0.540826 0.442588,0.983414 0.983761,0.983414" id="svg_199"/>
   <path fill="#ef2e3b" fill-rule="nonzero" d="m498.34794,248.823639c0.28048,-0.980637 19.054214,-12.04882 19.334346,-12.609432c0.28048,-0.560265 -0.980637,-4.062788 -1.961274,-4.062788c-0.980637,0 -21.43586,11.768687 -21.996472,14.430466c-0.457168,2.171981 -0.63455,14.973028 -0.68419,19.614826l4.660543,0c0.121842,-4.982678 0.427662,-16.604183 0.647047,-17.373072" id="svg_192"/>
   <path fill="#f9b00b" fill-rule="nonzero" d="m497.835561,283.463514c6.344809,0 11.488555,5.143746 11.488555,11.488555c0,6.344809 -5.143746,11.488555 -11.488555,11.488555c-6.345156,0 -11.488555,-5.143746 -11.488555,-11.488555c0,-6.344809 5.143398,-11.488555 11.488555,-11.488555zm-14.851186,45.673739c1.681489,1.541249 27.880642,1.401009 29.421891,-0.560265c1.370809,-1.744666 4.736217,-47.484707 5.463798,-57.582666l-40.732022,0c0.833108,11.040065 4.368608,56.78809 5.846333,58.142931" id="svg_191"/>
   <path fill="#fdd605" fill-rule="nonzero" d="m471.31082,270.960004l50.431825,0c0.540826,0 0.983414,-0.442588 0.983414,-0.983414l0,-2.796465c0,-0.541173 -0.442588,-0.983414 -0.983414,-0.983414l-24.041752,0l-4.660543,0l-21.729531,0c-0.540826,0 -0.983414,0.442241 -0.983414,0.983414l0,2.796465c0,0.540826 0.442588,0.983414 0.983414,0.983414" id="svg_170"/>
   <path fill="#ef2e3b" fill-rule="nonzero" d="m496.807038,306.406305c6.344809,0 11.488555,-5.143746 11.488555,-11.488555c0,-6.344809 -5.143746,-11.488555 -11.488555,-11.488555c-6.345156,0 -11.488555,5.143746 -11.488555,11.488555c0,6.344809 5.143398,11.488555 11.488555,11.488555" id="svg_169"/>
  </g>
  <g transform="rotate(-22.890830993652344 414.65969848632784,366.7059936523435) " stroke="null" id="svg_211">
   <path fill="#e9e9e9" fill-rule="nonzero" d="m429.331038,357.280144c6.565529,-10.413911 -1.810952,-15.39439 -1.810952,-15.39439c-0.452954,-15.39439 -18.563916,-13.809626 -18.563916,-13.809626c4.527812,6.112288 -2.716572,10.187434 -7.017908,13.809626c-4.301623,3.622192 -1.132097,9.73448 -1.132097,9.73448c-7.017908,6.112576 0.90562,13.809914 0.90562,13.809914c-2.620744,2.870243 -2.626212,5.532426 -2.104192,7.345105l-1.048643,0c0,0 0,7.201219 0.232232,8.594901c0.232232,1.393682 2.55542,1.393682 3.949102,3.71687c1.393682,2.3229 2.090667,17.886471 3.019885,18.583513c0.92893,0.696611 17.422034,0.464378 19.280181,0.232146c1.858435,-0.232146 0.696985,-11.84696 2.090667,-16.724992c1.39397,-4.878319 2.090667,-3.71687 4.413567,-5.807537c2.323187,-2.090667 0.929217,-8.594901 0.929217,-8.594901l-0.578998,0c4.810405,-6.322074 -2.563765,-15.49511 -2.563765,-15.49511" id="svg_202"/>
   <path fill="#ef2e3b" fill-rule="nonzero" d="m427.220802,358.527063c6.565242,-10.413911 -1.810952,-15.39439 -1.810952,-15.39439c-0.452954,-15.39439 -18.563916,-13.809626 -18.563916,-13.809626c4.527812,6.112576 -2.71686,10.187434 -7.018196,13.809626c-4.301335,3.622192 -1.131809,9.734768 -1.131809,9.734768c-7.018196,6.112288 0.90562,13.809626 0.90562,13.809626c-2.620744,2.870243 -2.626212,5.532426 -2.10448,7.345105l32.28721,0c4.810693,-6.322074 -2.563477,-15.49511 -2.563477,-15.49511" id="svg_196"/>
   <path fill="#f9b00b" fill-rule="nonzero" d="m396.448714,374.022172c0,0 0,7.201219 0.232232,8.594901c0.232232,1.39397 2.555132,1.39397 3.948814,3.71687c1.39397,2.3229 2.090667,17.886528 3.019885,18.583484c0.929217,0.696927 17.422034,0.464695 19.280469,0.232232c1.858435,-0.232232 0.696985,-11.847018 2.090667,-16.72505c1.393682,-4.878319 2.090667,-3.71687 4.413567,-5.807537c2.3229,-2.090667 0.929217,-8.594901 0.929217,-8.594901l-0.579286,0l-32.28721,0l-1.048355,0" id="svg_142"/>
  </g>
  <g stroke="null" transform="rotate(-18.875728607177734 449.9419250488281,130.29933166503915) " id="svg_212">
   <path fill="#e9e9e9" fill-rule="nonzero" d="m446.978785,98.611563c-23.490838,-0.1285 -46.810834,16.941018 -44.80454,48.148486c1.199579,18.66233 8.138213,25.683439 12.998755,26.216954c8.092925,9.337792 20.039747,15.244044 33.366195,15.244044c22.877425,0 41.687401,-17.406453 43.914981,-39.697712c0.673797,-0.875936 1.218725,-2.078092 1.557465,-3.76958c2.006663,-10.031103 -6.240905,-45.919434 -47.032856,-46.142192" id="svg_197"/>
   <path fill="#f9b00b" fill-rule="nonzero" d="m480.837625,158.386173c0.891032,9.139335 -9.809818,9.585219 -10.032576,3.566705c-0.223126,-6.018515 -8.024809,-10.476619 -11.14563,-1.56041c-3.12082,8.916577 -15.380608,8.916577 -10.699745,0.891768c1.454738,-2.493416 2.736425,-4.469887 3.753011,-6.271465c-1.92345,1.419023 -4.300149,2.258876 -6.873463,2.258876c-6.401806,0 -11.591514,-5.18934 -11.591514,-11.591145c0,-0.754431 0.074744,-1.490821 0.21208,-2.204751c-1.451793,4.719523 -1.179328,10.762339 1.794214,14.019023c4.681231,5.126747 1.114526,10.030735 -2.897694,15.380608c-4.012589,5.349873 -8.247935,-0.891768 -10.253861,-6.464399c-2.006294,-5.572631 -8.470693,-7.801683 -6.018515,2.006294c0.985658,3.942632 -1.343543,6.513737 -4.610905,6.155115c8.092557,9.337755 20.039747,15.243971 33.366195,15.243971c22.877425,0 41.688506,-17.40638 43.916085,-39.697639c-3.317437,4.316718 -9.661436,0.669747 -8.917682,8.26745" id="svg_141"/>
   <path fill="#ef2e3b" fill-rule="nonzero" d="m482.840606,142.559681c-0.73639,0 -1.336548,-0.598685 -1.336548,-1.337284c0,-0.738967 0.600158,-1.337652 1.336548,-1.337652c0.740072,0 1.34023,0.598685 1.34023,1.337652c0,0.738599 -0.600158,1.337284 -1.34023,1.337284zm-8.46922,-5.795757c-0.738599,0 -1.337284,-0.598685 -1.337284,-1.337284c0,-0.738599 0.598685,-1.337284 1.337284,-1.337284c0.738599,0 1.337652,0.598685 1.337652,1.337284c0,0.738599 -0.599053,1.337284 -1.337652,1.337284zm-1.337284,12.482914c-0.738599,0 -1.337652,-0.598685 -1.337652,-1.337284c0,-0.738599 0.599053,-1.337284 1.337652,-1.337284c0.738599,0 1.337284,0.598685 1.337284,1.337284c0,0.738599 -0.598685,1.337284 -1.337284,1.337284zm-2.674936,-29.64669c-0.738599,0 -1.337652,-0.598685 -1.337652,-1.337652c0,-0.738599 0.599053,-1.337284 1.337652,-1.337284c0.738599,0 1.337284,0.598685 1.337284,1.337284c0,0.738967 -0.598685,1.337652 -1.337284,1.337652zm-5.572631,29.64669c-0.738967,0 -1.337652,-0.598685 -1.337652,-1.337284c0,-0.738599 0.598685,-1.337284 1.337652,-1.337284c0.738599,0 1.337284,0.598685 1.337284,1.337284c0,0.738599 -0.598685,1.337284 -1.337284,1.337284zm-2.452178,-15.157482c-0.738599,0 -1.337284,-0.599053 -1.337284,-1.337652c0,-0.738599 0.598685,-1.337284 1.337284,-1.337284c0.738599,0 1.337652,0.598685 1.337652,1.337284c0,0.738599 -0.599053,1.337652 -1.337652,1.337652zm-2.897694,-9.585219c-0.738599,0 -1.337652,-0.598685 -1.337652,-1.337652c0,-0.738599 0.599053,-1.337284 1.337652,-1.337284c0.738599,0 1.337284,0.598685 1.337284,1.337284c0,0.738967 -0.598685,1.337652 -1.337284,1.337652zm-26.080353,-7.356167c0,-0.738599 0.598685,-1.337284 1.337284,-1.337284c0.738599,0 1.337652,0.598685 1.337652,1.337284c0,0.738599 -0.599053,1.337652 -1.337652,1.337652c-0.738599,0 -1.337284,-0.599053 -1.337284,-1.337652zm-3.343947,11.591514c-0.738599,0 -1.337284,-0.599053 -1.337284,-1.337652c0,-0.738599 0.598685,-1.337284 1.337284,-1.337284c0.738967,0 1.337652,0.598685 1.337652,1.337284c0,0.738599 -0.598685,1.337652 -1.337652,1.337652zm-4.458105,14.934724c-0.738599,0 -1.337284,-0.598685 -1.337284,-1.337284c0,-0.738599 0.598685,-1.337652 1.337284,-1.337652c0.738599,0 1.337652,0.599053 1.337652,1.337652c0,0.738599 -0.599053,1.337284 -1.337652,1.337284zm-0.891768,-37.671499c-0.738599,0 -1.337284,-0.598685 -1.337284,-1.337284c0,-0.738599 0.598685,-1.337652 1.337284,-1.337652c0.738967,0 1.337652,0.599053 1.337652,1.337652c0,0.738599 -0.598685,1.337284 -1.337652,1.337284zm-6.241273,29.423932c-0.738599,0 -1.337284,-0.598685 -1.337284,-1.337284c0,-0.738967 0.598685,-1.337652 1.337284,-1.337652c0.738599,0 1.337652,0.598685 1.337652,1.337652c0,0.738599 -0.599053,1.337284 -1.337652,1.337284zm4.01222,-11.145261c-0.738599,0 -1.337284,-0.599053 -1.337284,-1.337652c0,-0.738599 0.598685,-1.337284 1.337284,-1.337284c0.738599,0 1.337284,0.598685 1.337284,1.337284c0,0.738599 -0.598685,1.337652 -1.337284,1.337652zm-5.349873,-10.253861c0,0.738599 -0.598685,1.337284 -1.337284,1.337284c-0.738967,0 -1.337652,-0.598685 -1.337652,-1.337284c0,-0.738599 0.598685,-1.337652 1.337652,-1.337652c0.738599,0 1.337284,0.599053 1.337284,1.337652zm37.002857,-32.098868c0,-0.738967 0.599053,-1.337652 1.337652,-1.337652c0.738599,0 1.337284,0.598685 1.337284,1.337652c0,0.738599 -0.598685,1.337284 -1.337284,1.337284c-0.738599,0 -1.337652,-0.598685 -1.337652,-1.337284zm1.56041,12.03703c-0.738599,0 -1.337284,-0.599053 -1.337284,-1.337652c0,-0.738599 0.598685,-1.337284 1.337284,-1.337284c0.738599,0 1.337652,0.598685 1.337652,1.337284c0,0.738599 -0.599053,1.337652 -1.337652,1.337652zm-5.126747,-23.182659c-23.491206,-0.1285 -46.811202,16.941018 -44.804908,48.148486c1.199947,18.66233 8.138213,25.683439 12.999123,26.216954c3.267362,0.358622 5.596563,-2.212483 4.610905,-6.155115c-2.452178,-9.807977 4.01222,-7.578925 6.018515,-2.006294c2.005926,5.572631 6.241273,11.814272 10.253861,6.464399c4.01222,-5.349873 7.578925,-10.253861 2.897694,-15.380608c-2.973542,-3.256684 -3.246007,-9.2995 -1.794214,-14.019023c0.833962,-2.710651 2.234575,-4.985728 4.023266,-6.042816c4.903989,-2.898063 14.043324,-4.235347 16.049618,4.458105c1.382572,5.992373 0.435206,9.125344 -1.819988,13.121732c-1.016586,1.801578 -2.298273,3.778048 -3.753011,6.271465c-4.680862,8.024809 7.578925,8.024809 10.699745,-0.891768c3.12082,-8.916209 10.922503,-4.458105 11.14563,1.56041c0.222758,6.018515 10.923608,5.572631 10.032576,-3.566705c-0.743754,-7.597703 5.600245,-3.950732 8.917682,-8.26745c0.670115,-0.875568 1.218725,-2.077724 1.557465,-3.76958c2.006663,-10.030735 -6.240905,-45.919066 -47.03396,-46.142192" id="svg_140"/>
   <path fill="#fdd605" fill-rule="nonzero" d="m416.192164,151.030374c-0.738599,0 -1.337284,0.598685 -1.337284,1.337284c0,0.738599 0.598685,1.337652 1.337284,1.337652c0.738599,0 1.337284,-0.599053 1.337284,-1.337652c0,-0.738599 -0.598685,-1.337284 -1.337284,-1.337284" id="svg_139"/>
   <path fill="#fdd605" fill-rule="nonzero" d="m425.554257,140.999271c-0.738599,0 -1.337284,0.599053 -1.337284,1.337652c0,0.738599 0.598685,1.337284 1.337284,1.337284c0.738599,0 1.337652,-0.598685 1.337652,-1.337284c0,-0.738599 -0.599053,-1.337652 -1.337652,-1.337652" id="svg_138"/>
   <path fill="#fdd605" fill-rule="nonzero" d="m418.421216,132.751704c-0.738599,0 -1.337284,0.598685 -1.337284,1.337652c0,0.738599 0.598685,1.337284 1.337284,1.337284c0.738599,0 1.337652,-0.598685 1.337652,-1.337284c0,-0.738967 -0.599053,-1.337652 -1.337652,-1.337652" id="svg_137"/>
   <path fill="#fdd605" fill-rule="nonzero" d="m420.204384,118.262496c-0.738599,0 -1.337284,0.599053 -1.337284,1.337652c0,0.738599 0.598685,1.337284 1.337284,1.337284c0.738967,0 1.337652,-0.598685 1.337652,-1.337284c0,-0.738599 -0.598685,-1.337652 -1.337652,-1.337652" id="svg_136"/>
   <path fill="#fdd605" fill-rule="nonzero" d="m430.012362,126.064547c-0.738599,0 -1.337284,0.598685 -1.337284,1.337284c0,0.738599 0.598685,1.337652 1.337284,1.337652c0.738967,0 1.337652,-0.599053 1.337652,-1.337652c0,-0.738599 -0.598685,-1.337284 -1.337652,-1.337284" id="svg_135"/>
   <path fill="#fdd605" fill-rule="nonzero" d="m436.031244,117.14797c0,-0.738599 -0.599053,-1.337284 -1.337652,-1.337284c-0.738599,0 -1.337284,0.598685 -1.337284,1.337284c0,0.738599 0.598685,1.337652 1.337284,1.337652c0.738599,0 1.337652,-0.599053 1.337652,-1.337652" id="svg_134"/>
   <path fill="#fdd605" fill-rule="nonzero" d="m449.1828,112.689865c0.738599,0 1.337284,-0.598685 1.337284,-1.337284c0,-0.738967 -0.598685,-1.337652 -1.337284,-1.337652c-0.738599,0 -1.337652,0.598685 -1.337652,1.337652c0,0.738599 0.599053,1.337284 1.337652,1.337284" id="svg_133"/>
   <path fill="#fdd605" fill-rule="nonzero" d="m449.405558,120.714674c-0.738599,0 -1.337284,0.598685 -1.337284,1.337284c0,0.738599 0.598685,1.337652 1.337284,1.337652c0.738599,0 1.337652,-0.599053 1.337652,-1.337652c0,-0.738599 -0.599053,-1.337284 -1.337652,-1.337284" id="svg_132"/>
   <path fill="#fdd605" fill-rule="nonzero" d="m459.436661,121.8292c-0.738599,0 -1.337652,0.598685 -1.337652,1.337284c0,0.738967 0.599053,1.337652 1.337652,1.337652c0.738599,0 1.337284,-0.598685 1.337284,-1.337652c0,-0.738599 -0.598685,-1.337284 -1.337284,-1.337284" id="svg_131"/>
   <path fill="#fdd605" fill-rule="nonzero" d="m462.334356,131.41442c-0.738599,0 -1.337284,0.598685 -1.337284,1.337284c0,0.738599 0.598685,1.337652 1.337284,1.337652c0.738599,0 1.337652,-0.599053 1.337652,-1.337652c0,-0.738599 -0.599053,-1.337284 -1.337652,-1.337284" id="svg_130"/>
   <path fill="#fdd605" fill-rule="nonzero" d="m464.786534,146.57227c-0.738967,0 -1.337652,0.598685 -1.337652,1.337284c0,0.738599 0.598685,1.337284 1.337652,1.337284c0.738599,0 1.337284,-0.598685 1.337284,-1.337284c0,-0.738599 -0.598685,-1.337284 -1.337284,-1.337284" id="svg_129"/>
   <path fill="#fdd605" fill-rule="nonzero" d="m473.034101,146.57227c-0.738599,0 -1.337652,0.598685 -1.337652,1.337284c0,0.738599 0.599053,1.337284 1.337652,1.337284c0.738599,0 1.337284,-0.598685 1.337284,-1.337284c0,-0.738599 -0.598685,-1.337284 -1.337284,-1.337284" id="svg_128"/>
   <path fill="#fdd605" fill-rule="nonzero" d="m482.840606,139.884745c-0.73639,0 -1.336548,0.598685 -1.336548,1.337652c0,0.738599 0.600158,1.337284 1.336548,1.337284c0.740072,0 1.34023,-0.598685 1.34023,-1.337284c0,-0.738967 -0.600158,-1.337652 -1.34023,-1.337652" id="svg_127"/>
   <path fill="#fdd605" fill-rule="nonzero" d="m474.371385,134.089356c-0.738599,0 -1.337284,0.598685 -1.337284,1.337284c0,0.738599 0.598685,1.337284 1.337284,1.337284c0.738599,0 1.337652,-0.598685 1.337652,-1.337284c0,-0.738599 -0.599053,-1.337284 -1.337652,-1.337284" id="svg_126"/>
   <path fill="#fdd605" fill-rule="nonzero" d="m470.359165,116.925212c-0.738599,0 -1.337652,0.598685 -1.337652,1.337284c0,0.738967 0.599053,1.337652 1.337652,1.337652c0.738599,0 1.337284,-0.598685 1.337284,-1.337652c0,-0.738599 -0.598685,-1.337284 -1.337284,-1.337284" id="svg_125"/>
   <path fill="#fdd605" fill-rule="nonzero" d="m408.167355,143.451449c0,0.738599 0.598685,1.337284 1.337652,1.337284c0.738599,0 1.337284,-0.598685 1.337284,-1.337284c0,-0.738599 -0.598685,-1.337652 -1.337284,-1.337652c-0.738967,0 -1.337652,0.599053 -1.337652,1.337652" id="svg_124"/>
  </g>
 </g>
</svg>