<svg width="580" height="400" xmlns="http://www.w3.org/2000/svg">
 <!-- Created with Method Draw - http://github.com/duopixel/Method-Draw/ -->

 <g>
  <title>background</title>
  <rect fill="none" id="canvas_background" height="402" width="582" y="-1" x="-1"/>
  <g display="none" overflow="visible" y="0" x="0" height="100%" width="100%" id="canvasGrid">
   <rect fill="url(#gridpattern)" stroke-width="0" y="0" x="0" height="100%" width="100%"/>
  </g>
 </g>
 <g>
  <title>Layer 1</title>
  <metadata transform="matrix(0.008324897347947113,0,0,0.008324897347947113,0,0) " id="svg_203">image/svg+xml</metadata>

  <g stroke="null" transform="rotate(11.754117965698242 56.681838989257315,321.25659179687506) " id="svg_207">
   <path stroke="null" fill="#e9e9e9" fill-rule="nonzero" d="m10.176322,370.035295c28.063713,5.527353 123.310235,16.582734 128.412666,-23.386879c0.057513,-0.448603 -1.667882,-0.845105 -4.791184,-1.190861c0.587987,-3.242389 0.71181,-7.402958 0.482434,-11.652165l0.007443,0.006766c2.184823,2.184823 4.677511,-2.466976 4.316193,-7.398898c0.751054,-0.357935 1.427003,-0.935773 2.033259,-1.818092c3.368918,-4.899444 0.096081,-12.317288 -7.246658,-16.776926c0.7179,-0.011503 1.102223,-0.017592 1.102223,-0.017592c2.048145,-11.879511 -15.566443,-46.289294 -79.879006,-43.831114c-64.31324,2.457503 -72.915381,43.011721 -70.867304,44.649831c0.147775,0.118409 1.060678,0.215167 2.620638,0.292979c-4.499288,1.738251 -9.761133,4.704576 -9.993959,9.129029c-0.218076,4.140947 2.695134,4.686984 7.195978,3.983293c-1.060407,3.87571 0.311112,9.026859 2.576454,10.75699c-0.255291,4.532037 -0.201634,9.39156 0.734544,12.698228c-1.978859,0.228699 -3.191777,0.476344 -3.492063,0.743611c-3.826858,3.401396 -1.275506,18.28377 26.788342,23.8118" id="svg_201"/>
   <path stroke="null" fill="#ef2e3b" fill-rule="nonzero" d="m128.83611,348.389373c0.587987,-3.241712 0.71181,-7.402958 0.482434,-11.652165c-2.351273,-2.344507 -11.447824,-7.882685 -15.653728,-10.390936c-2.170614,-0.104877 -4.522564,-0.020975 -7.073441,0.361995c-15.224747,2.283611 -17.014421,8.096499 -24.090569,3.6531c-8.274451,5.879874 -21.110034,14.441215 -27.933801,13.551453c-6.520639,-0.850518 -18.335194,-7.781192 -24.994541,-11.970179c-5.717484,0.093374 -11.211006,-1.252434 -15.559,-4.41498c-6.396816,-4.652476 -8.462553,-6.619426 -13.223289,-6.637695c-3.312081,3.313434 -12.973615,12.844379 -16.680371,15.035292c-1.049784,0.620465 -2.053355,0.455369 -2.926405,-0.211107c-0.25502,4.53136 -0.201364,9.39156 0.734544,12.698228c20.512371,-2.368189 123.406789,-2.628013 146.918167,-0.023005" id="svg_195"/>
   <path stroke="null" fill="#f9b00b" fill-rule="nonzero" d="m5.213951,372.967113c28.063713,5.527353 123.310911,16.583411 128.413343,-23.386879c0.056837,-0.448603 -1.668558,-0.845105 -4.791184,-1.190861c-23.511378,-2.605008 -126.405796,-2.345183 -146.918167,0.023005c-1.978588,0.228023 -3.191506,0.476344 -3.492063,0.742935c-3.826587,3.401396 -1.275506,18.284447 26.788071,23.8118" id="svg_194"/>
   <path stroke="null" fill="#fdd605" fill-rule="nonzero" d="m47.603177,327.117626c-5.511114,2.967679 -11.89981,4.724198 -18.030712,4.825015c6.659347,4.188988 18.473902,11.119661 24.994541,11.970179c6.823767,0.889762 19.65935,-7.671578 27.933801,-13.551453c-0.539947,-0.338989 -1.106959,-0.730755 -1.716599,-1.195597c-8.602615,-6.553793 -22.530271,-7.782545 -33.181031,-2.048145" id="svg_193"/>
   <path stroke="null" fill="#fdd605" fill-rule="nonzero" d="m-15.890196,335.925258c3.706757,-2.190913 13.36829,-11.721858 16.680371,-15.035292c-1.945975,-0.00812 -4.339875,0.307865 -7.668195,0.902618c-5.367669,0.958778 -10.555423,2.544788 -14.514764,3.1639c-1.060407,3.876387 0.310842,9.026859 2.576183,10.757667c0.87305,0.666476 1.87662,0.831573 2.926405,0.211107" id="svg_168"/>
   <path stroke="null" fill="#fdd605" fill-rule="nonzero" d="m113.664817,326.346273c4.205903,2.50825 13.302454,8.046429 15.653728,10.390936l0.007443,0.007443c2.184823,2.184147 4.677511,-2.466976 4.316193,-7.399575c-3.960288,1.890491 -10.081041,-2.521106 -19.977364,-2.998804" id="svg_167"/>
   <path stroke="null" fill="#80cc28" fill-rule="nonzero" d="m-6.87802,321.792584c3.32832,-0.594754 5.722221,-0.910738 7.668195,-0.902618c4.760736,0.018269 6.826473,1.985219 13.223289,6.637695c4.347995,3.162547 9.841516,4.508355 15.559,4.41498c6.130902,-0.100817 12.519599,-1.857337 18.030712,-4.825015c10.65076,-5.7344 24.578416,-4.505648 33.181031,2.048145c0.609639,0.464842 1.176651,0.856608 1.716599,1.195597c7.076148,4.443399 8.865822,-1.36949 24.090569,-3.6531c2.550878,-0.38297 4.902827,-0.466871 7.073441,-0.361995c9.896322,0.477698 16.017075,4.889295 19.977364,2.998804c0.751054,-0.357935 1.427003,-0.935773 2.033259,-1.817416c3.368918,-4.900121 0.096081,-12.317965 -7.247334,-16.776926c-12.500653,0.202311 -128.026313,2.043409 -147.023179,1.093427c-4.499017,1.738251 -9.760862,4.704576 -9.993959,9.129029c-0.217806,4.140947 2.695405,4.686984 7.196249,3.983293c3.959341,-0.619112 9.147095,-2.205122 14.514764,-3.1639" id="svg_166"/>
   <path stroke="null" fill="#f9b00b" fill-rule="nonzero" d="m38.898391,276.425531c-0.511529,0.511529 -3.154427,0.923594 -3.071879,0.10217c0.10217,-1.023734 3.584085,-0.614376 3.071879,-0.10217zm-0.10217,-6.247282c0.819393,0.410035 4.301307,0.614376 1.843127,1.228752c-2.457503,0.615052 -3.071879,-1.843127 -1.843127,-1.228752zm8.674337,-0.766617c1.006819,-0.629938 3.021809,-0.755791 2.140166,0.251705c-0.880966,1.007495 -3.499506,0.59746 -2.140166,-0.251705zm2.871598,5.705305c-0.806537,0.690834 -3.269454,0.228699 -2.304586,-0.460782c0.806537,-0.576485 3.110447,-0.230729 2.304586,0.460782zm5.863635,-4.938688c1.024411,-0.307188 3.891272,0.410035 2.45818,0.819393c-1.433769,0.409358 -4.319576,-0.261177 -2.45818,-0.819393zm3.433197,5.29324c1.152293,-1.024411 3.32832,-0.128559 2.688233,0.383647c-0.640088,0.512205 -3.905482,0.698277 -2.688233,-0.383647zm4.247854,-3.859471c2.457503,-1.433769 4.09629,0.10217 3.379067,0.717223c-0.716546,0.614376 -4.289805,-0.186072 -3.379067,-0.717223zm11.085153,-0.262531c-0.281476,0.704367 -3.097591,-1.126581 -3.097591,-1.126581c0.704367,-0.422214 3.379744,0.422891 3.097591,1.126581zm1.060272,5.277678c-0.880966,1.007495 -3.499506,0.59746 -2.140166,-0.251705c1.006819,-0.629938 3.021809,-0.755791 2.140166,0.251705zm52.395838,34.12357c0.718576,-0.012179 1.102899,-0.018269 1.102899,-0.018269c2.048145,-11.879511 -15.566443,-46.289294 -79.879683,-43.831114c-64.312699,2.457503 -72.91511,43.011721 -70.866763,44.650507c0.147504,0.117733 1.060407,0.21449 2.620367,0.292302c18.996866,0.949982 134.522526,-0.891116 147.023179,-1.093427" id="svg_165"/>
   <path stroke="null" fill="#fdd605" fill-rule="nonzero" d="m40.639348,271.407c2.45818,-0.614376 -1.023734,-0.818717 -1.843127,-1.228752c-1.228752,-0.614376 -0.614376,1.843804 1.843127,1.228752" id="svg_164"/>
   <path stroke="null" fill="#fdd605" fill-rule="nonzero" d="m58.663971,270.997642c1.433093,-0.409358 -1.433769,-1.126581 -2.45818,-0.819393c-1.861396,0.558216 1.024411,1.228752 2.45818,0.819393" id="svg_163"/>
   <path stroke="null" fill="#fdd605" fill-rule="nonzero" d="m49.610724,269.663337c0.881643,-1.007495 -1.133347,-0.881643 -2.140166,-0.251705c-1.35934,0.849165 1.2592,1.2592 2.140166,0.251705" id="svg_162"/>
   <path stroke="null" fill="#fdd605" fill-rule="nonzero" d="m76.032268,276.627165c0.881643,-1.007495 -1.133347,-0.881643 -2.140166,-0.251705c-1.35934,0.849165 1.2592,1.2592 2.140166,0.251705" id="svg_161"/>
   <path stroke="null" fill="#fdd605" fill-rule="nonzero" d="m67.265909,272.329241c0.717223,-0.615052 -0.921564,-2.150992 -3.379067,-0.717223c-0.910738,0.531151 2.662521,1.331599 3.379067,0.717223" id="svg_160"/>
   <path stroke="null" fill="#fdd605" fill-rule="nonzero" d="m48.03757,274.656155c-0.964868,0.689481 1.498049,1.151616 2.304586,0.460782c0.805861,-0.691511 -1.498049,-1.037267 -2.304586,-0.460782" id="svg_159"/>
   <path stroke="null" fill="#fdd605" fill-rule="nonzero" d="m74.971996,271.349487c0.282153,-0.70369 -2.393224,-1.548795 -3.097591,-1.126581c0,0 2.816115,1.830948 3.097591,1.126581" id="svg_158"/>
   <path stroke="null" fill="#fdd605" fill-rule="nonzero" d="m62.327221,275.855135c0.640088,-0.512205 -1.53594,-1.408057 -2.688233,-0.383647c-1.217249,1.081924 2.048145,0.895852 2.688233,0.383647" id="svg_157"/>
   <path stroke="null" fill="#fdd605" fill-rule="nonzero" d="m38.898391,276.425531c0.512205,-0.512205 -2.969709,-0.921564 -3.071879,0.10217c-0.082548,0.821423 2.56035,0.409358 3.071879,-0.10217" id="svg_156"/>
  </g>
  <g stroke="null" id="svg_208">
   <path stroke="null" fill="#e9e9e9" fill-rule="nonzero" d="m341.545876,256.94909c0.908613,-4.247729 -0.002307,-8.091682 -3.676443,-11.191302c-3.08393,-2.602167 -7.016021,-2.661234 -11.514784,-0.933531c-1.762312,-1.121345 -3.551388,-2.204851 -5.340464,-3.256977c-6.94588,-4.085757 -23.187849,-10.895507 -33.804173,7.543008c-10.616324,18.438514 -29.892847,32.68652 -39.391518,36.597384c-6.271227,2.582324 -8.519962,20.751346 1.446674,35.533721c-1.064586,3.538928 -0.606357,7.04417 1.812611,10.935653c2.020729,3.250055 6.052034,3.286972 11.216682,1.263013c3.753507,2.224693 8.119831,4.06453 13.182036,5.34877c37.435855,9.49867 27.65754,-14.248006 43.582026,-25.423156c15.924024,-11.174689 32.127693,-21.232186 31.289684,-37.156672c-0.397316,-7.546238 -3.808882,-13.836384 -8.802329,-19.259911" id="svg_198"/>
   <path stroke="null" fill="#f9b00b" fill-rule="nonzero" d="m280.073548,282.698036c-2.357132,-0.766945 -5.573962,-1.725856 -3.913633,2.259303c0.36363,0.909536 0.802939,1.776155 1.306852,2.605859c1.336846,-1.433753 2.686614,-2.887348 4.046072,-4.348789c-0.476226,-0.183199 -0.954759,-0.358554 -1.43929,-0.516373" id="svg_155"/>
   <path stroke="null" fill="#f9b00b" fill-rule="nonzero" d="m310.31249,294.61429c1.690785,0.444846 3.411104,0.704648 5.151727,0.695419c6.160938,-0.033225 5.069588,-4.396781 2.752602,-8.58129c-1.041051,1.056741 -2.078872,2.098715 -3.101004,3.120847c-1.34423,1.34423 -2.965335,2.958413 -4.803326,4.765025" id="svg_154"/>
   <path stroke="null" fill="#f9b00b" fill-rule="nonzero" d="m247.443788,308.873832c-1.720319,-1.267628 -0.05076,-4.178972 1.69217,-2.894732c1.943204,1.431907 3.933014,2.804747 5.962511,4.117136c5.236636,-5.448907 12.199128,-11.783354 19.922566,-19.926258c-0.924764,-1.36961 -1.687555,-2.801979 -2.093639,-4.321563c-0.419928,-1.570345 -1.567114,-5.366767 0.359476,-6.386591c3.202063,-1.694016 7.080626,-0.86662 10.903351,0.87631c5.947744,-6.376439 12.015929,-12.776875 17.874611,-18.314382c-1.122268,-1.831992 -1.992118,-3.804729 -1.386223,-6.007272c1.49928,-5.450753 8.614977,-5.648257 13.010373,-3.860104c3.279127,-2.384358 6.396282,-4.224656 9.281785,-5.332619c-1.762773,-1.121345 -3.551849,-2.204851 -5.340926,-3.256977c-6.945418,-4.085757 -23.187849,-10.895507 -33.803712,7.543008c-10.616324,18.438514 -29.892847,32.68652 -39.391518,36.597846c-6.271319,2.582324 -8.520054,20.750885 1.446674,35.533721c1.023516,-3.401875 3.45725,-6.83513 6.909886,-10.670315c-1.811688,-1.17672 -3.595226,-2.406508 -5.347386,-3.697209" id="svg_153"/>
   <path stroke="null" fill="#f9b00b" fill-rule="nonzero" d="m286.473522,320.142659c0.212733,-1.276395 0.358554,-2.57771 0.416236,-3.882715c-2.267609,1.933513 -4.5546,3.825494 -6.828669,5.632568c2.676923,0.972755 5.776543,2.065029 6.412433,-1.749852" id="svg_152"/>
   <path stroke="null" fill="#f9b00b" fill-rule="nonzero" d="m338.161997,258.948591c-0.435156,2.035034 -1.287009,4.161898 -2.454961,6.345522c0.754947,1.02167 0.352093,2.810285 -1.238556,2.673693c-0.102905,-0.009229 -0.20258,-0.022611 -0.304101,-0.033687c-3.361267,5.322006 -8.292417,10.878433 -13.378617,16.159368c3.293894,4.901617 5.995274,10.689696 0.257033,13.798545c-3.77981,2.047493 -8.790331,1.225635 -13.537359,-0.535292c-4.94684,4.803326 -11.021023,10.536492 -17.402077,16.124759c0.131977,1.776155 0.122287,3.580921 -0.054914,5.412452c-0.215501,2.228847 -0.778943,6.687924 -3.566616,7.454869c-2.845356,0.782634 -6.585942,-0.636352 -9.691099,-1.909517c-6.508417,4.951454 -12.752879,8.991527 -17.880149,11.000719c3.753045,2.224232 8.119831,4.064069 13.181574,5.348309c37.435855,9.49867 27.658002,-14.248006 43.582026,-25.423156c15.924486,-11.174689 32.128154,-21.232186 31.289684,-37.156211c-0.396855,-7.546699 -3.808882,-13.836846 -8.801867,-19.260372" id="svg_151"/>
   <path stroke="null" fill="#f9b00b" fill-rule="nonzero" d="m305.51747,255.17801c-1.721703,1.21133 -1.634949,2.879965 -0.9363,4.511684c2.012884,-1.83153 3.99485,-3.543082 5.931593,-5.097737c-1.725856,-0.462382 -3.499243,-0.466535 -4.995293,0.586053" id="svg_150"/>
   <path stroke="null" fill="#ef2e3b" fill-rule="nonzero" d="m310.31249,294.61429c1.837991,-1.806612 3.459096,-3.420795 4.803326,-4.765025c1.022132,-1.022132 2.059953,-2.064106 3.101004,-3.120847c-1.555578,-2.810285 -3.663522,-5.539814 -4.500609,-6.823593c-3.419411,-5.245865 -6.838821,-10.49173 -10.258232,-15.737595c-0.453153,-0.694957 -0.942761,-1.408373 -1.393144,-2.143477c-5.858682,5.537507 -11.926867,11.937942 -17.874611,18.314382c4.691191,2.138401 9.297474,5.655641 12.464928,7.60069c4.136518,2.53987 8.77095,5.390763 13.657338,6.675465" id="svg_149"/>
   <path stroke="null" fill="#ef2e3b" fill-rule="nonzero" d="m281.512839,283.214408c-1.359458,1.46144 -2.709225,2.915036 -4.046072,4.348789c0.237651,0.39224 0.485455,0.778481 0.754485,1.152263c1.293469,1.764619 2.720762,3.407413 4.038688,5.149882c4.407856,5.826842 7.314124,12.478772 7.843417,19.616157c6.381054,-5.588268 12.455238,-11.321433 17.402077,-16.124759c-4.17205,-1.547733 -8.140597,-3.820418 -10.889508,-5.508435c-4.84901,-2.977333 -9.730784,-6.568406 -15.103089,-8.633896" id="svg_148"/>
   <path stroke="null" fill="#ef2e3b" fill-rule="nonzero" d="m274.248091,323.410711c-7.565619,-2.866121 -14.717309,-6.462732 -21.456917,-10.83967c-3.452636,3.835185 -5.88637,7.268439 -6.909886,10.670315c-1.064586,3.538467 -0.606357,7.043709 1.812611,10.935192c2.020267,3.250055 6.051572,3.286972 11.216682,1.263475c5.12727,-2.009192 11.371732,-6.049265 17.880149,-11.000719c-0.915073,-0.375628 -1.778001,-0.738796 -2.542639,-1.028592" id="svg_147"/>
   <path stroke="null" fill="#ef2e3b" fill-rule="nonzero" d="m310.512763,254.591957c-1.936743,1.554655 -3.918709,3.266206 -5.931593,5.097737c0.75587,1.764157 2.227001,3.484015 2.911344,4.534295c3.03963,4.662581 6.07926,9.326085 9.118428,13.988666c1.000904,1.535274 2.651081,3.613223 4.174819,5.880832c5.0862,-5.280936 10.01735,-10.837363 13.378617,-16.159368c-8.057996,-0.843547 -12.38002,-7.247674 -18.942427,-11.176535c-1.304544,-0.780788 -2.98287,-1.702322 -4.709188,-2.165627" id="svg_146"/>
   <path stroke="null" fill="#ef2e3b" fill-rule="nonzero" d="m314.55422,252.551848c6.801904,3.493705 11.919022,11.374962 19.91426,12.063459c0.55975,0.047992 0.970448,0.316099 1.238556,0.678806c1.167953,-2.183624 2.019806,-4.310488 2.454961,-6.345522c0.908151,-4.247729 -0.002769,-8.091682 -3.676443,-11.191302c-3.084391,-2.602167 -7.016483,-2.660772 -11.514784,-0.933531c-2.885503,1.107963 -6.002658,2.948261 -9.281785,5.332619c0.302256,0.12321 0.59159,0.254725 0.865235,0.39547" id="svg_145"/>
   <path stroke="null" fill="#ef2e3b" fill-rule="nonzero" d="m280.061089,321.892511c2.27407,-1.807073 4.56106,-3.699055 6.828669,-5.632568c0.080294,-1.830146 -0.019381,-3.668137 -0.401008,-5.457675c-1.061356,-4.973143 -2.986562,-9.776007 -6.074645,-13.858534c-1.617875,-2.138401 -3.760429,-4.356634 -5.39307,-6.773755c-7.723438,8.142904 -14.68593,14.477351 -19.922566,19.926258c7.349195,4.753027 15.247064,8.668506 23.601778,11.32051c0.43008,0.136592 0.88877,0.304563 1.360842,0.475764" id="svg_144"/>
   <path stroke="null" fill="#fdd605" fill-rule="nonzero" d="m334.46848,264.615307c-7.995237,-0.688497 -13.112355,-8.569754 -19.91426,-12.063459c-0.273645,-0.140745 -0.56298,-0.272261 -0.865235,-0.39547c-4.395396,-1.788153 -11.511093,-1.590649 -13.010373,3.860104c-0.605896,2.202543 0.263955,4.17528 1.386223,6.007272c0.450384,0.735104 0.939992,1.44852 1.393144,2.143477c3.419411,5.245865 6.838821,10.49173 10.258232,15.737595c0.837086,1.283779 2.945031,4.013308 4.500609,6.823593c2.316985,4.184509 3.408336,8.548065 -2.752602,8.58129c-1.740623,0.009229 -3.460942,-0.250572 -5.151727,-0.695419c-4.886389,-1.284702 -9.52082,-4.135595 -13.657338,-6.675465c-3.167454,-1.945049 -7.773737,-5.462289 -12.464928,-7.60069c-3.822726,-1.74293 -7.701288,-2.570326 -10.903351,-0.87631c-1.926591,1.019824 -0.779404,4.816247 -0.359476,6.386591c0.406084,1.519584 1.168875,2.951953 2.093639,4.321563c1.632642,2.417122 3.775195,4.635355 5.39307,6.773755c3.088083,4.082527 5.01329,8.885392 6.074645,13.858534c0.381627,1.789538 0.481302,3.627529 0.401008,5.457675c-0.057682,1.305006 -0.203503,2.60632 -0.416236,3.882715c-0.63589,3.814881 -3.73551,2.722608 -6.412433,1.749852c-0.472072,-0.171201 -0.930763,-0.339172 -1.360842,-0.475764c-8.354714,-2.652004 -16.252583,-6.567483 -23.601778,-11.32051c-2.029496,-1.312389 -4.019307,-2.685229 -5.962511,-4.117136c-1.74293,-1.28424 -3.412489,1.627104 -1.69217,2.894732c1.75216,1.290701 3.535698,2.520489 5.347386,3.697209c6.739608,4.376938 13.891298,7.973549 21.456917,10.83967c0.764637,0.289796 1.627566,0.652964 2.542639,1.028592c3.105157,1.273165 6.845743,2.692151 9.691099,1.909517c2.787673,-0.766945 3.351115,-5.226022 3.566616,-7.454869c0.1772,-1.83153 0.186891,-3.636296 0.054914,-5.412452c-0.529293,-7.137385 -3.435562,-13.789315 -7.843417,-19.616157c-1.317927,-1.742469 -2.745219,-3.385263 -4.038688,-5.149882c-0.269031,-0.373782 -0.516834,-0.760023 -0.754485,-1.152263c-0.503913,-0.829703 -0.943222,-1.696323 -1.306852,-2.605859c-1.660329,-3.985159 1.556501,-3.026248 3.913633,-2.259303c0.484532,0.157819 0.963065,0.333173 1.43929,0.516373c5.372305,2.06549 10.254079,5.656563 15.103089,8.633896c2.748911,1.688017 6.717458,3.960702 10.889508,5.508435c4.747028,1.760927 9.757549,2.582786 13.537359,0.535292c5.738242,-3.108849 3.036861,-8.896928 -0.257033,-13.798545c-1.523737,-2.267609 -3.173914,-4.345559 -4.174819,-5.880832c-3.039168,-4.662581 -6.078798,-9.326085 -9.118428,-13.988666c-0.684344,-1.050281 -2.155475,-2.770138 -2.911344,-4.534295c-0.698649,-1.631719 -0.785403,-3.300354 0.9363,-4.511684c1.49605,-1.052588 3.269436,-1.048435 4.995293,-0.586053c1.726318,0.463305 3.404644,1.384838 4.709188,2.165627c6.562407,3.928861 10.884432,10.332988 18.942427,11.176535c0.101521,0.011075 0.201196,0.024457 0.304101,0.033687c1.590649,0.136592 1.993503,-1.652023 1.238556,-2.673693c-0.268108,-0.362707 -0.678806,-0.630814 -1.238556,-0.678806" id="svg_143"/>
  </g>
  <g stroke="null" transform="rotate(-28.151418685913086 105.1662979125976,147.41116333007812) " id="svg_209">
   <path stroke="null" fill="#e9e9e9" fill-rule="nonzero" d="m140.524026,190.798168c1.821607,-19.003267 3.709304,-46.946166 1.823566,-47.874349l6.731282,-14.638459l-4.74176,-2.37088l-5.474124,12.929447l7.449939,-27.64966l-2.174082,-0.683409l2.569147,-9.690109l-4.544472,-1.975325l-3.186467,10.043563l-3.037644,-0.955108l-2.824691,19.434069l-6.180541,19.482534l3.191362,-33.668161l4.924851,-22.833489l-7.705972,-1.58026l-2.14324,9.2784l-1.709501,-0.189455l-1.450041,13.86791l-7.098933,30.734791l3.214371,-34.822515l-2.776226,-0.41122l1.886717,-19.445818l-8.69339,-0.79062l-1.838252,23.282404l0.158613,-19.824728l-9.187833,0.889019l0.246732,14.868546l-1.827482,-25.340463l-9.088945,1.185685l1.552356,19.426236l-6.294116,0.233514l0.791109,16.522239l-2.766924,-20.177692l-7.11313,1.58075l1.728104,20.663813l-2.419835,-6.437554l-9.187344,2.963722l5.050175,12.836433l-2.679295,0.796984l4.282075,13.261361c-1.759924,-0.853771 -3.008761,-1.239046 -3.689232,-0.813628c-4.74225,2.963722 1.778038,65.795715 5.927445,66.684734c4.149407,0.889508 16.004297,-7.11313 29.93389,-9.780186c6.491894,-1.242962 14.527331,0.732364 21.379042,3.076318c0.492975,3.416065 0.993293,6.576585 1.244431,7.247266c0.592842,1.58075 16.992694,2.37137 19.165797,0.987907c1.728104,-1.099524 2.456551,-11.184209 2.682722,-15.671894c1.702647,-0.252117 2.938756,-0.618788 3.4425,-1.122533c2.266606,-2.266606 -3.094921,-3.03079 -9.542755,-3.530129" id="svg_200"/>
   <path stroke="null" fill="#f9b00b" fill-rule="nonzero" d="m126.535687,115.303532l4.924851,-22.832999l-7.705972,-1.58075l-2.14324,9.278889l6.292648,0.699074l-1.368286,14.435786" id="svg_190"/>
   <path stroke="null" fill="#f9b00b" fill-rule="nonzero" d="m126.133768,152.820028l3.391098,-23.33087l-6.180541,19.482534l-0.496891,5.242078c1.174425,-0.445489 2.264648,-0.913986 3.286334,-1.393743" id="svg_189"/>
   <path stroke="null" fill="#f9b00b" fill-rule="nonzero" d="m113.972911,156.690393l4.478873,-42.843756l-7.099422,30.73528l-1.172467,12.704745c1.321779,-0.166446 2.584812,-0.367161 3.793016,-0.596269" id="svg_188"/>
   <path stroke="null" fill="#f9b00b" fill-rule="nonzero" d="m104.193704,157.772294c0.539482,-0.021051 1.063787,-0.052382 1.587114,-0.084202l0.783766,-49.114374l5.225923,0.773975l1.887207,-19.445818l-8.69388,-0.79062l-1.837762,23.282404l-0.363244,45.402622c0.468497,-0.004406 0.935526,-0.005385 1.410877,-0.023988" id="svg_187"/>
   <path stroke="null" fill="#f9b00b" fill-rule="nonzero" d="m143.11765,102.942449l-4.543983,-1.975815l-3.186467,10.043563l5.161303,1.621872l2.569147,-9.68962" id="svg_186"/>
   <path stroke="null" fill="#f9b00b" fill-rule="nonzero" d="m64.787553,131.783669l-2.679785,0.796494l4.282564,13.261361c1.359474,0.659421 3.025895,1.597884 4.977233,2.666567l-6.580012,-16.724422" id="svg_185"/>
   <path stroke="null" fill="#f9b00b" fill-rule="nonzero" d="m138.573668,145.027896c0.06511,-0.023498 0.125324,-0.01126 0.18358,0.017134l6.731772,-14.638459l-4.74225,-2.37088l-5.473634,12.929447l-2.092327,7.766186c2.613696,-1.820628 4.291866,-3.302979 5.392859,-3.703429" id="svg_184"/>
   <path stroke="null" fill="#f9b00b" fill-rule="nonzero" d="m92.231603,156.76921c0.960982,0.196309 1.945953,0.362265 2.94463,0.508151l-0.812649,-48.950375l-1.827482,-25.340953l-9.088945,1.185685l1.552356,19.426726l1.708032,-0.063152l5.524057,53.233918" id="svg_183"/>
   <path stroke="null" fill="#f9b00b" fill-rule="nonzero" d="m79.496017,120.353707l-2.766924,-20.177692l-7.11264,1.58075l1.727614,20.663813l9.455126,25.157372l-1.303176,-27.224243" id="svg_182"/>
   <path stroke="null" fill="#fdd605" fill-rule="nonzero" d="m122.847434,154.213771l0.496891,-5.242078l3.191362,-33.668161l1.368286,-14.435786l-6.292648,-0.699074l-1.709501,-0.189945l-1.450041,13.86791l-4.478873,42.843756c3.373474,-0.639839 6.312229,-1.50438 8.874523,-2.476622" id="svg_181"/>
   <path stroke="null" fill="#fdd605" fill-rule="nonzero" d="m92.231603,156.76921l-5.524057,-53.233918l-1.708032,0.063152l-6.294606,0.233025l0.791109,16.522239l1.303176,27.224243l-9.455126,-25.157372l-2.419345,-6.437554l-9.187833,2.963722l5.050665,12.836923l6.580012,16.724422c5.126545,2.806088 12.215197,6.489446 20.864038,8.261119" id="svg_180"/>
   <path stroke="null" fill="#fdd605" fill-rule="nonzero" d="m105.780818,157.688092c1.531306,-0.093014 3.000928,-0.226171 4.399077,-0.401429l1.172467,-12.704745l3.214371,-34.823004l-2.776226,-0.41122l-5.225923,-0.773975l-0.783766,49.114374" id="svg_179"/>
   <path stroke="null" fill="#fdd605" fill-rule="nonzero" d="m133.180809,148.731325l2.092327,-7.766186l7.449449,-27.64966l-2.174082,-0.683409l-5.161303,-1.621872l-3.037644,-0.954618l-2.824691,19.433579l-3.391098,23.33087c2.898123,-1.359474 5.206831,-2.807067 7.047041,-4.088703" id="svg_178"/>
   <path stroke="null" fill="#fdd605" fill-rule="nonzero" d="m102.782827,157.796282l0.363244,-45.402622l0.158613,-19.824239l-9.187833,0.889019l0.246732,14.868546l0.812649,48.950375c2.428157,0.354433 4.965483,0.544377 7.606594,0.518921" id="svg_177"/>
   <path stroke="null" fill="#ef2e3b" fill-rule="nonzero" d="m100.340963,190.37373c-10.312325,0 -18.671843,-5.307677 -18.671843,-11.85489c0,-6.547702 8.359518,-11.855379 18.671843,-11.855379c10.311835,0 18.671353,5.307677 18.671353,11.855379c0,6.547212 -8.359518,11.85489 -18.671353,11.85489zm14.917501,5.285648c0,-1.976305 2.599988,-4.069121 15.609232,-3.1615c1.998334,0.139521 4.083318,0.268272 6.066476,0.42199c1.821118,-19.003756 3.709304,-46.946656 1.823076,-47.874839c-0.058256,-0.028394 -0.118471,-0.040632 -0.18358,-0.017134c-1.100993,0.40045 -2.779163,1.882801 -5.392859,3.703429c-1.84021,1.281636 -4.148918,2.729229 -7.047041,4.088703c-1.021686,0.479757 -2.111909,0.948254 -3.286334,1.393743c-2.562293,0.972242 -5.501049,1.836783 -8.874523,2.476622c-1.208204,0.229108 -2.471237,0.429823 -3.793016,0.596269c-1.398149,0.175258 -2.867771,0.308415 -4.399077,0.401429c-0.523327,0.031821 -1.047632,0.063152 -1.587114,0.084202c-0.475351,0.018603 -0.94238,0.019582 -1.410877,0.023988c-2.64111,0.025456 -5.178437,-0.164488 -7.606594,-0.518921c-0.998678,-0.145885 -1.983648,-0.311842 -2.94463,-0.508151c-8.648841,-1.771674 -15.737493,-5.455031 -20.864038,-8.261119c-1.951338,-1.068683 -3.617758,-2.007146 -4.977233,-2.666567c-1.759924,-0.853282 -3.00925,-1.239046 -3.689722,-0.813628c-4.74176,2.963722 1.778527,65.796205 5.927934,66.685224c4.148918,0.889019 16.004297,-7.11313 29.93389,-9.780676c6.491404,-1.242962 14.527331,0.732364 21.379042,3.076318c-0.436187,-3.022958 -0.865521,-6.238797 -1.112253,-8.116703c-2.186321,-0.36863 -3.570762,-0.795515 -3.570762,-1.232681" id="svg_176"/>
   <path stroke="null" fill="#f9b00b" fill-rule="nonzero" d="m141.365559,200.598915c0.285896,0.571792 -1.143584,10.579128 -2.144219,11.341354c-1.000636,0.762226 -14.248289,0.762226 -16.059126,-0.524306c-1.810837,-1.286532 -2.537326,-11.21554 -1.620403,-11.62725c2.335143,-1.048611 5.527974,1.667889 9.435544,0.571792c3.907571,-1.096098 10.102309,-0.333382 10.388205,0.23841zm-22.536333,-3.706856c0.246732,1.877905 0.676066,5.093745 1.112253,8.116703c0.492485,3.416065 0.992803,6.577075 1.244431,7.247755c0.592842,1.58026 16.992204,2.37088 19.165797,0.987907c1.728104,-1.099524 2.456061,-11.184209 2.682232,-15.672384c-6.096828,0.902726 -18.189638,0.334361 -24.204712,-0.679982" id="svg_175"/>
   <path stroke="null" fill="#fdd605" fill-rule="nonzero" d="m119.012316,178.51884c0,-6.547702 -8.359518,-11.855379 -18.671353,-11.855379c-10.312325,0 -18.671843,5.307677 -18.671843,11.855379c0,6.547212 8.359518,11.85489 18.671843,11.85489c10.311835,0 18.671353,-5.307677 18.671353,-11.85489" id="svg_174"/>
   <path stroke="null" fill="#fdd605" fill-rule="nonzero" d="m142.177229,195.973668c-2.168697,1.120085 -22.513325,-0.150291 -22.491295,-0.936505c0.02154,-0.786214 1.918538,-1.567043 11.284567,-0.946785c6.1169,0.405346 13.375425,0.763205 11.206728,1.88329zm-5.243057,-3.053799c-1.983158,-0.153718 -4.068142,-0.282469 -6.066476,-0.42199c-13.009244,-0.907622 -15.609232,1.185195 -15.609232,3.1615c0,0.437166 1.384441,0.864052 3.570762,1.232681c6.015074,1.014343 18.107884,1.582708 24.204712,0.679982c1.702647,-0.252117 2.939245,-0.618788 3.44299,-1.122533c2.266606,-2.266606 -3.095411,-3.03079 -9.542755,-3.52964" id="svg_173"/>
   <path stroke="null" fill="#f9b00b" fill-rule="nonzero" d="m130.970501,194.090377c-9.366029,-0.620257 -11.263026,0.160572 -11.284567,0.946785c-0.02203,0.786214 20.322598,2.05659 22.491295,0.936505c2.168697,-1.120085 -5.089829,-1.477945 -11.206728,-1.88329" id="svg_172"/>
   <path stroke="null" fill="#ef2e3b" fill-rule="nonzero" d="m130.977354,200.360506c-3.907571,1.096098 -7.100401,-1.620403 -9.435544,-0.571792c-0.916923,0.41171 -0.190434,10.340718 1.620403,11.62725c1.810837,1.286532 15.058491,1.286532 16.059126,0.524306c1.000636,-0.762226 2.430115,-10.769562 2.144219,-11.341354c-0.285896,-0.571792 -6.480634,-1.334507 -10.388205,-0.23841" id="svg_171"/>
  </g>
  <g stroke="null" transform="rotate(11.160558700561523 323.7485961914064,87.73679351806625) " id="svg_210">
   <path stroke="null" fill="#e9e9e9" fill-rule="nonzero" d="m294.458707,74.329906l5.870336,0c1.019155,13.505509 5.343772,69.469885 7.151924,71.127286c2.056571,1.885438 34.106888,1.71388 35.991901,-0.685382c1.676935,-2.134281 5.793899,-58.089315 6.683961,-70.441904l5.995607,0c0.662026,0 1.203453,-0.541426 1.203453,-1.203028l0,-3.420965c0,-0.662026 -0.541426,-1.203453 -1.203453,-1.203453l-29.410704,0c0.149051,-6.094974 0.523166,-20.311769 0.791969,-21.252364c0.342691,-1.199631 23.308935,-14.739536 23.652051,-15.425343c0.342691,-0.685382 -1.200056,-4.970506 -2.399687,-4.970506c-1.199631,0 -26.222871,14.39727 -26.908253,17.653472c-0.559262,2.656599 -0.776257,18.316347 -0.837406,23.994742l-26.581698,0c-0.662026,0 -1.203453,0.541426 -1.203453,1.203453l0,3.420965c0,0.661602 0.541426,1.203028 1.203453,1.203028" id="svg_199"/>
   <path stroke="null" fill="#ef2e3b" fill-rule="nonzero" d="m324.41933,49.090095c0.343116,-1.199631 23.30936,-14.739536 23.652051,-15.425343c0.343116,-0.685382 -1.199631,-4.970082 -2.399262,-4.970082c-1.199631,0 -26.222871,14.396845 -26.908677,17.653047c-0.559262,2.657023 -0.776257,18.316772 -0.836981,23.995167l5.701326,0c0.149051,-6.095399 0.523166,-20.312194 0.791544,-21.252789" id="svg_192"/>
   <path stroke="null" fill="#f9b00b" fill-rule="nonzero" d="m323.792528,91.465674c7.761718,0 14.054154,6.292436 14.054154,14.054154c0,7.761718 -6.292436,14.054154 -14.054154,14.054154c-7.762143,0 -14.054154,-6.292436 -14.054154,-14.054154c0,-7.761718 6.292011,-14.054154 14.054154,-14.054154zm-18.167721,55.873501c2.056995,1.885438 34.106888,1.71388 35.992325,-0.685382c1.676935,-2.134281 5.793899,-58.08889 6.683961,-70.441904l-49.82821,0c1.019155,13.505509 5.344197,69.469885 7.151924,71.127286" id="svg_191"/>
   <path stroke="null" fill="#fdd605" fill-rule="nonzero" d="m291.344337,76.169906l61.694153,0c0.661602,0 1.203028,-0.541426 1.203028,-1.203028l0,-3.420965c0,-0.662026 -0.541426,-1.203028 -1.203028,-1.203028l-29.410704,0l-5.701326,0l-26.582123,0c-0.661602,0 -1.203028,0.541002 -1.203028,1.203028l0,3.420965c0,0.661602 0.541426,1.203028 1.203028,1.203028" id="svg_170"/>
   <path stroke="null" fill="#ef2e3b" fill-rule="nonzero" d="m322.534317,119.532c7.761719,0 14.054155,-6.292436 14.054155,-14.054155c0,-7.761718 -6.292435,-14.054153 -14.054155,-14.054153c-7.762143,0 -14.054153,6.292435 -14.054153,14.054153c0,7.761718 6.292011,14.054155 14.054153,14.054155" id="svg_169"/>
  </g>
  <g stroke="null" transform="rotate(-22.890830993652344 441.9423522949215,315.8069152832031) " id="svg_211">
   <path stroke="null" fill="#e9e9e9" fill-rule="nonzero" d="m465.140837,300.902689c10.381461,-16.466549 -2.863491,-24.341717 -2.863491,-24.341717c-0.716214,-24.341717 -29.353394,-21.835878 -29.353394,-21.835878c7.159409,9.664792 -4.295463,16.108442 -11.096765,21.835878c-6.801757,5.727436 -1.79008,15.392228 -1.79008,15.392228c-11.096765,9.665247 1.431973,21.836333 1.431973,21.836333c-4.143939,4.538448 -4.152585,8.747911 -3.327164,11.614132l-1.658122,0c0,0 0,11.386618 0.367208,13.590318c0.367208,2.2037 4.040648,2.2037 6.244348,5.87714c2.2037,3.672985 3.305778,28.282213 4.775063,29.384382c1.46883,1.101486 27.547844,0.734279 30.485959,0.367071c2.93857,-0.367071 1.102078,-18.732497 3.305778,-26.445675c2.204155,-7.713633 3.305778,-5.87714 6.978763,-9.182918c3.67344,-3.305778 1.469285,-13.590318 1.469285,-13.590318l-0.915516,0c7.606246,-9.996508 -4.053843,-24.500977 -4.053843,-24.500977" id="svg_202"/>
   <path stroke="null" fill="#ef2e3b" fill-rule="nonzero" d="m461.804118,302.874324c10.381006,-16.466549 -2.863491,-24.341717 -2.863491,-24.341717c-0.716214,-24.341717 -29.353394,-21.835878 -29.353394,-21.835878c7.159409,9.665247 -4.295918,16.108442 -11.09722,21.835878c-6.801302,5.727436 -1.789625,15.392683 -1.789625,15.392683c-11.09722,9.664792 1.431973,21.835878 1.431973,21.835878c-4.143939,4.538448 -4.152585,8.747911 -3.327619,11.614132l51.052764,0c7.606701,-9.996508 -4.053388,-24.500977 -4.053388,-24.500977" id="svg_196"/>
   <path stroke="null" fill="#f9b00b" fill-rule="nonzero" d="m413.147075,327.375301c0,0 0,11.386618 0.367208,13.590318c0.367208,2.204155 4.040193,2.204155 6.243893,5.87714c2.204155,3.672985 3.305778,28.282304 4.775063,29.384336c1.469285,1.101987 27.547844,0.734779 30.486414,0.367208c2.93857,-0.367208 1.102078,-18.732588 3.305778,-26.445766c2.2037,-7.713633 3.305778,-5.87714 6.978763,-9.182918c3.672985,-3.305778 1.469285,-13.590318 1.469285,-13.590318l-0.915971,0l-51.052764,0l-1.657667,0" id="svg_142"/>
  </g>
  <g stroke="null" transform="rotate(-18.875728607177734 478.0899353027346,172.52134704589838) " id="svg_212">
   <path fill="#e9e9e9" fill-rule="nonzero" d="m475.126795,140.833578c-23.490838,-0.1285 -46.810834,16.941018 -44.80454,48.148486c1.199579,18.66233 8.138213,25.683439 12.998755,26.216954c8.092925,9.337792 20.039747,15.244044 33.366195,15.244044c22.877425,0 41.687401,-17.406453 43.914981,-39.697712c0.673797,-0.875936 1.218725,-2.078092 1.557465,-3.76958c2.006663,-10.031103 -6.240905,-45.919434 -47.032856,-46.142192" id="svg_197"/>
   <path fill="#f9b00b" fill-rule="nonzero" d="m508.985635,200.608188c0.891032,9.139335 -9.809818,9.585219 -10.032576,3.566705c-0.223126,-6.018515 -8.024809,-10.476619 -11.14563,-1.56041c-3.12082,8.916577 -15.380608,8.916577 -10.699745,0.891768c1.454738,-2.493416 2.736425,-4.469887 3.753011,-6.271465c-1.92345,1.419023 -4.300149,2.258876 -6.873463,2.258876c-6.401806,0 -11.591514,-5.18934 -11.591514,-11.591145c0,-0.754431 0.074744,-1.490821 0.21208,-2.204751c-1.451793,4.719523 -1.179328,10.762339 1.794214,14.019023c4.681231,5.126747 1.114526,10.030735 -2.897694,15.380608c-4.012589,5.349873 -8.247935,-0.891768 -10.253861,-6.464399c-2.006294,-5.572631 -8.470693,-7.801683 -6.018515,2.006294c0.985658,3.942632 -1.343543,6.513737 -4.610905,6.155115c8.092557,9.337755 20.039747,15.243971 33.366195,15.243971c22.877425,0 41.688506,-17.40638 43.916085,-39.697639c-3.317437,4.316718 -9.661436,0.669747 -8.917682,8.26745" id="svg_141"/>
   <path fill="#ef2e3b" fill-rule="nonzero" d="m510.988616,184.781696c-0.73639,0 -1.336548,-0.598685 -1.336548,-1.337284c0,-0.738967 0.600158,-1.337652 1.336548,-1.337652c0.740072,0 1.34023,0.598685 1.34023,1.337652c0,0.738599 -0.600158,1.337284 -1.34023,1.337284zm-8.46922,-5.795757c-0.738599,0 -1.337284,-0.598685 -1.337284,-1.337284c0,-0.738599 0.598685,-1.337284 1.337284,-1.337284c0.738599,0 1.337652,0.598685 1.337652,1.337284c0,0.738599 -0.599053,1.337284 -1.337652,1.337284zm-1.337284,12.482914c-0.738599,0 -1.337652,-0.598685 -1.337652,-1.337284c0,-0.738599 0.599053,-1.337284 1.337652,-1.337284c0.738599,0 1.337284,0.598685 1.337284,1.337284c0,0.738599 -0.598685,1.337284 -1.337284,1.337284zm-2.674936,-29.64669c-0.738599,0 -1.337652,-0.598685 -1.337652,-1.337652c0,-0.738599 0.599053,-1.337284 1.337652,-1.337284c0.738599,0 1.337284,0.598685 1.337284,1.337284c0,0.738967 -0.598685,1.337652 -1.337284,1.337652zm-5.572631,29.64669c-0.738967,0 -1.337652,-0.598685 -1.337652,-1.337284c0,-0.738599 0.598685,-1.337284 1.337652,-1.337284c0.738599,0 1.337284,0.598685 1.337284,1.337284c0,0.738599 -0.598685,1.337284 -1.337284,1.337284zm-2.452178,-15.157482c-0.738599,0 -1.337284,-0.599053 -1.337284,-1.337652c0,-0.738599 0.598685,-1.337284 1.337284,-1.337284c0.738599,0 1.337652,0.598685 1.337652,1.337284c0,0.738599 -0.599053,1.337652 -1.337652,1.337652zm-2.897694,-9.585219c-0.738599,0 -1.337652,-0.598685 -1.337652,-1.337652c0,-0.738599 0.599053,-1.337284 1.337652,-1.337284c0.738599,0 1.337284,0.598685 1.337284,1.337284c0,0.738967 -0.598685,1.337652 -1.337284,1.337652zm-26.080353,-7.356167c0,-0.738599 0.598685,-1.337284 1.337284,-1.337284c0.738599,0 1.337652,0.598685 1.337652,1.337284c0,0.738599 -0.599053,1.337652 -1.337652,1.337652c-0.738599,0 -1.337284,-0.599053 -1.337284,-1.337652zm-3.343947,11.591514c-0.738599,0 -1.337284,-0.599053 -1.337284,-1.337652c0,-0.738599 0.598685,-1.337284 1.337284,-1.337284c0.738967,0 1.337652,0.598685 1.337652,1.337284c0,0.738599 -0.598685,1.337652 -1.337652,1.337652zm-4.458105,14.934724c-0.738599,0 -1.337284,-0.598685 -1.337284,-1.337284c0,-0.738599 0.598685,-1.337652 1.337284,-1.337652c0.738599,0 1.337652,0.599053 1.337652,1.337652c0,0.738599 -0.599053,1.337284 -1.337652,1.337284zm-0.891768,-37.671499c-0.738599,0 -1.337284,-0.598685 -1.337284,-1.337284c0,-0.738599 0.598685,-1.337652 1.337284,-1.337652c0.738967,0 1.337652,0.599053 1.337652,1.337652c0,0.738599 -0.598685,1.337284 -1.337652,1.337284zm-6.241273,29.423932c-0.738599,0 -1.337284,-0.598685 -1.337284,-1.337284c0,-0.738967 0.598685,-1.337652 1.337284,-1.337652c0.738599,0 1.337652,0.598685 1.337652,1.337652c0,0.738599 -0.599053,1.337284 -1.337652,1.337284zm4.01222,-11.145261c-0.738599,0 -1.337284,-0.599053 -1.337284,-1.337652c0,-0.738599 0.598685,-1.337284 1.337284,-1.337284c0.738599,0 1.337284,0.598685 1.337284,1.337284c0,0.738599 -0.598685,1.337652 -1.337284,1.337652zm-5.349873,-10.253861c0,0.738599 -0.598685,1.337284 -1.337284,1.337284c-0.738967,0 -1.337652,-0.598685 -1.337652,-1.337284c0,-0.738599 0.598685,-1.337652 1.337652,-1.337652c0.738599,0 1.337284,0.599053 1.337284,1.337652zm37.002857,-32.098868c0,-0.738967 0.599053,-1.337652 1.337652,-1.337652c0.738599,0 1.337284,0.598685 1.337284,1.337652c0,0.738599 -0.598685,1.337284 -1.337284,1.337284c-0.738599,0 -1.337652,-0.598685 -1.337652,-1.337284zm1.56041,12.03703c-0.738599,0 -1.337284,-0.599053 -1.337284,-1.337652c0,-0.738599 0.598685,-1.337284 1.337284,-1.337284c0.738599,0 1.337652,0.598685 1.337652,1.337284c0,0.738599 -0.599053,1.337652 -1.337652,1.337652zm-5.126747,-23.182659c-23.491206,-0.1285 -46.811202,16.941018 -44.804908,48.148486c1.199947,18.66233 8.138213,25.683439 12.999123,26.216954c3.267362,0.358622 5.596563,-2.212483 4.610905,-6.155115c-2.452178,-9.807977 4.01222,-7.578925 6.018515,-2.006294c2.005926,5.572631 6.241273,11.814272 10.253861,6.464399c4.01222,-5.349873 7.578925,-10.253861 2.897694,-15.380608c-2.973542,-3.256684 -3.246007,-9.2995 -1.794214,-14.019023c0.833962,-2.710651 2.234575,-4.985728 4.023266,-6.042816c4.903989,-2.898063 14.043324,-4.235347 16.049618,4.458105c1.382572,5.992373 0.435206,9.125344 -1.819988,13.121732c-1.016586,1.801578 -2.298273,3.778048 -3.753011,6.271465c-4.680862,8.024809 7.578925,8.024809 10.699745,-0.891768c3.12082,-8.916209 10.922503,-4.458105 11.14563,1.56041c0.222758,6.018515 10.923608,5.572631 10.032576,-3.566705c-0.743754,-7.597703 5.600245,-3.950732 8.917682,-8.26745c0.670115,-0.875568 1.218725,-2.077724 1.557465,-3.76958c2.006663,-10.030735 -6.240905,-45.919066 -47.03396,-46.142192" id="svg_140"/>
   <path fill="#fdd605" fill-rule="nonzero" d="m444.340174,193.252389c-0.738599,0 -1.337284,0.598685 -1.337284,1.337284c0,0.738599 0.598685,1.337652 1.337284,1.337652c0.738599,0 1.337284,-0.599053 1.337284,-1.337652c0,-0.738599 -0.598685,-1.337284 -1.337284,-1.337284" id="svg_139"/>
   <path fill="#fdd605" fill-rule="nonzero" d="m453.702267,183.221286c-0.738599,0 -1.337284,0.599053 -1.337284,1.337652c0,0.738599 0.598685,1.337284 1.337284,1.337284c0.738599,0 1.337652,-0.598685 1.337652,-1.337284c0,-0.738599 -0.599053,-1.337652 -1.337652,-1.337652" id="svg_138"/>
   <path fill="#fdd605" fill-rule="nonzero" d="m446.569226,174.973719c-0.738599,0 -1.337284,0.598685 -1.337284,1.337652c0,0.738599 0.598685,1.337284 1.337284,1.337284c0.738599,0 1.337652,-0.598685 1.337652,-1.337284c0,-0.738967 -0.599053,-1.337652 -1.337652,-1.337652" id="svg_137"/>
   <path fill="#fdd605" fill-rule="nonzero" d="m448.352395,160.484511c-0.738599,0 -1.337284,0.599053 -1.337284,1.337652c0,0.738599 0.598685,1.337284 1.337284,1.337284c0.738967,0 1.337652,-0.598685 1.337652,-1.337284c0,-0.738599 -0.598685,-1.337652 -1.337652,-1.337652" id="svg_136"/>
   <path fill="#fdd605" fill-rule="nonzero" d="m458.160372,168.286562c-0.738599,0 -1.337284,0.598685 -1.337284,1.337284c0,0.738599 0.598685,1.337652 1.337284,1.337652c0.738967,0 1.337652,-0.599053 1.337652,-1.337652c0,-0.738599 -0.598685,-1.337284 -1.337652,-1.337284" id="svg_135"/>
   <path fill="#fdd605" fill-rule="nonzero" d="m464.179255,159.369985c0,-0.738599 -0.599053,-1.337284 -1.337652,-1.337284c-0.738599,0 -1.337284,0.598685 -1.337284,1.337284c0,0.738599 0.598685,1.337652 1.337284,1.337652c0.738599,0 1.337652,-0.599053 1.337652,-1.337652" id="svg_134"/>
   <path fill="#fdd605" fill-rule="nonzero" d="m477.33081,154.91188c0.738599,0 1.337284,-0.598685 1.337284,-1.337284c0,-0.738967 -0.598685,-1.337652 -1.337284,-1.337652c-0.738599,0 -1.337652,0.598685 -1.337652,1.337652c0,0.738599 0.599053,1.337284 1.337652,1.337284" id="svg_133"/>
   <path fill="#fdd605" fill-rule="nonzero" d="m477.553568,162.936689c-0.738599,0 -1.337284,0.598685 -1.337284,1.337284c0,0.738599 0.598685,1.337652 1.337284,1.337652c0.738599,0 1.337652,-0.599053 1.337652,-1.337652c0,-0.738599 -0.599053,-1.337284 -1.337652,-1.337284" id="svg_132"/>
   <path fill="#fdd605" fill-rule="nonzero" d="m487.584672,164.051216c-0.738599,0 -1.337652,0.598685 -1.337652,1.337284c0,0.738967 0.599053,1.337652 1.337652,1.337652c0.738599,0 1.337284,-0.598685 1.337284,-1.337652c0,-0.738599 -0.598685,-1.337284 -1.337284,-1.337284" id="svg_131"/>
   <path fill="#fdd605" fill-rule="nonzero" d="m490.482366,173.636435c-0.738599,0 -1.337284,0.598685 -1.337284,1.337284c0,0.738599 0.598685,1.337652 1.337284,1.337652c0.738599,0 1.337652,-0.599053 1.337652,-1.337652c0,-0.738599 -0.599053,-1.337284 -1.337652,-1.337284" id="svg_130"/>
   <path fill="#fdd605" fill-rule="nonzero" d="m492.934544,188.794285c-0.738967,0 -1.337652,0.598685 -1.337652,1.337284c0,0.738599 0.598685,1.337284 1.337652,1.337284c0.738599,0 1.337284,-0.598685 1.337284,-1.337284c0,-0.738599 -0.598685,-1.337284 -1.337284,-1.337284" id="svg_129"/>
   <path fill="#fdd605" fill-rule="nonzero" d="m501.182111,188.794285c-0.738599,0 -1.337652,0.598685 -1.337652,1.337284c0,0.738599 0.599053,1.337284 1.337652,1.337284c0.738599,0 1.337284,-0.598685 1.337284,-1.337284c0,-0.738599 -0.598685,-1.337284 -1.337284,-1.337284" id="svg_128"/>
   <path fill="#fdd605" fill-rule="nonzero" d="m510.988616,182.10676c-0.73639,0 -1.336548,0.598685 -1.336548,1.337652c0,0.738599 0.600158,1.337284 1.336548,1.337284c0.740072,0 1.34023,-0.598685 1.34023,-1.337284c0,-0.738967 -0.600158,-1.337652 -1.34023,-1.337652" id="svg_127"/>
   <path fill="#fdd605" fill-rule="nonzero" d="m502.519396,176.311371c-0.738599,0 -1.337284,0.598685 -1.337284,1.337284c0,0.738599 0.598685,1.337284 1.337284,1.337284c0.738599,0 1.337652,-0.598685 1.337652,-1.337284c0,-0.738599 -0.599053,-1.337284 -1.337652,-1.337284" id="svg_126"/>
   <path fill="#fdd605" fill-rule="nonzero" d="m498.507175,159.147227c-0.738599,0 -1.337652,0.598685 -1.337652,1.337284c0,0.738967 0.599053,1.337652 1.337652,1.337652c0.738599,0 1.337284,-0.598685 1.337284,-1.337652c0,-0.738599 -0.598685,-1.337284 -1.337284,-1.337284" id="svg_125"/>
   <path fill="#fdd605" fill-rule="nonzero" d="m436.315365,185.673464c0,0.738599 0.598685,1.337284 1.337652,1.337284c0.738599,0 1.337284,-0.598685 1.337284,-1.337284c0,-0.738599 -0.598685,-1.337652 -1.337284,-1.337652c-0.738967,0 -1.337652,0.599053 -1.337652,1.337652" id="svg_124"/>
  </g>
 </g>
</svg>