<svg width="580" height="400" xmlns="http://www.w3.org/2000/svg">
 <!-- Created with Method Draw - http://github.com/duopixel/Method-Draw/ -->

 <g>
  <title>background</title>
  <rect fill="none" id="canvas_background" height="402" width="582" y="-1" x="-1"/>
  <g display="none" overflow="visible" y="0" x="0" height="100%" width="100%" id="canvasGrid">
   <rect fill="url(#gridpattern)" stroke-width="0" y="0" x="0" height="100%" width="100%"/>
  </g>
 </g>
 <g>
  <title>Layer 1</title>
  <metadata transform="matrix(0.008324897347947113,0,0,0.008324897347947113,0,0) " id="svg_203">image/svg+xml</metadata>

  <g stroke="null" transform="rotate(11.754117965698242 96.24874877929695,320.9601135253906) " id="svg_207">
   <path stroke="null" fill="#e9e9e9" fill-rule="nonzero" d="m53.301169,366.006954c25.916675,5.104478 113.87628,15.314058 118.588345,-21.597646c0.053113,-0.414282 -1.540279,-0.78045 -4.42463,-1.099753c0.543003,-2.994327 0.657352,-6.836588 0.445525,-10.760706l0.006873,0.006249c2.017671,2.017671 4.319654,-2.278238 3.985979,-6.832839c0.693594,-0.330551 1.317829,-0.864181 1.877703,-1.678998c3.111176,-4.524608 0.08873,-11.374943 -6.692246,-15.493393c0.662976,-0.010623 1.017896,-0.016246 1.017896,-0.016246c1.89145,-10.970659 -14.375519,-42.747892 -73.767795,-40.477777c-59.392901,2.26949 -67.336927,39.721072 -65.44554,41.233857c0.136469,0.10935 0.97953,0.198705 2.420144,0.270564c-4.155066,1.605264 -9.014349,4.344648 -9.229363,8.430605c-0.201392,3.82414 2.488941,4.328402 6.645444,3.678548c-0.97928,3.579196 0.28731,8.336251 2.37934,9.934017c-0.23576,4.185309 -0.186208,8.673051 0.678348,11.726739c-1.827464,0.211203 -2.947587,0.439901 -3.2249,0.686721c-3.534081,3.141169 -1.177923,16.884955 24.738877,21.990057" id="svg_201"/>
   <path stroke="null" fill="#ef2e3b" fill-rule="nonzero" d="m162.882788,346.017072c0.543003,-2.993702 0.657352,-6.836588 0.445525,-10.760706c-2.171387,-2.165138 -10.571999,-7.279614 -14.456126,-9.595968c-2.004549,-0.096853 -4.176561,-0.019371 -6.532282,0.3343c-14.059965,2.108901 -15.712718,7.477069 -22.2475,3.373617c-7.641407,5.43003 -19.494993,13.336377 -25.796702,12.514687c-6.021772,-0.785448 -16.932444,-7.185885 -23.082312,-11.05439c-5.280063,0.086231 -10.353298,-1.156615 -14.368645,-4.077209c-5.907422,-4.296534 -7.815118,-6.113001 -12.21163,-6.129872c-3.058688,3.059937 -11.981057,11.861709 -15.404225,13.885004c-0.96947,0.572996 -1.896261,0.42053 -2.702518,-0.194956c-0.23551,4.184684 -0.185958,8.673051 0.678348,11.726739c18.943055,-2.187008 113.965447,-2.426955 135.678067,-0.021245" id="svg_195"/>
   <path stroke="null" fill="#f9b00b" fill-rule="nonzero" d="m48.718449,368.71447c25.916675,5.104478 113.876904,15.314683 118.58897,-21.597646c0.052488,-0.414282 -1.540904,-0.78045 -4.42463,-1.099753c-21.71262,-2.405709 -116.735012,-2.165763 -135.678067,0.021245c-1.827214,0.210578 -2.947338,0.439901 -3.2249,0.686096c-3.533831,3.141169 -1.177923,16.88558 24.738627,21.990057" id="svg_194"/>
   <path stroke="null" fill="#fdd605" fill-rule="nonzero" d="m87.86465,326.372737c-5.089481,2.740634 -10.989405,4.362769 -16.651257,4.455873c6.149868,3.868505 17.06054,10.268942 23.082312,11.05439c6.301709,0.82169 18.155294,-7.084658 25.796702,-12.514687c-0.498638,-0.313055 -1.02227,-0.674848 -1.585269,-1.104127c-7.944464,-6.05239 -20.806573,-7.187135 -30.642488,-1.89145" id="svg_193"/>
   <path stroke="null" fill="#fdd605" fill-rule="nonzero" d="m29.228892,334.506534c3.423168,-2.023295 12.345538,-10.825067 15.404225,-13.885004c-1.797096,-0.007498 -4.007849,0.284311 -7.081533,0.833563c-4.957011,0.885426 -9.747872,2.350097 -13.4043,2.921843c-0.97928,3.57982 0.28706,8.336251 2.37909,9.934642c0.806256,0.615487 1.733048,0.767952 2.702518,0.194956" id="svg_168"/>
   <path stroke="null" fill="#fdd605" fill-rule="nonzero" d="m148.872187,325.660397c3.884127,2.316354 12.284739,7.43083 14.456126,9.595968l0.006873,0.006873c2.017671,2.017047 4.319654,-2.278238 3.985979,-6.833464c-3.657303,1.745858 -9.309782,-2.328227 -18.448978,-2.769378" id="svg_167"/>
   <path stroke="null" fill="#80cc28" fill-rule="nonzero" d="m37.551584,321.455092c3.073684,-0.549252 5.284437,-0.841061 7.081533,-0.833563c4.396512,0.016871 6.304208,1.833338 12.21163,6.129872c4.015347,2.920594 9.088582,4.163439 14.368645,4.077209c5.661852,-0.093104 11.561776,-1.715239 16.651257,-4.455873c9.835914,-5.295685 22.698023,-4.16094 30.642488,1.89145c0.562998,0.429279 1.086631,0.791072 1.585269,1.104127c6.534781,4.103453 8.187535,-1.264716 22.2475,-3.373617c2.355721,-0.353671 4.527732,-0.431153 6.532282,-0.3343c9.139196,0.441151 14.791675,4.515235 18.448978,2.769378c0.693594,-0.330551 1.317829,-0.864181 1.877703,-1.678373c3.111176,-4.525233 0.08873,-11.375568 -6.692871,-15.493393c-11.54428,0.186833 -118.231551,1.887076 -135.775045,1.009773c-4.154816,1.605264 -9.014099,4.344648 -9.229363,8.430605c-0.201142,3.82414 2.489191,4.328402 6.645694,3.678548c3.656428,-0.571746 8.447289,-2.036417 13.4043,-2.921843" id="svg_166"/>
   <path stroke="null" fill="#f9b00b" fill-rule="nonzero" d="m79.825832,279.558884c-0.472394,0.472394 -2.913095,0.852933 -2.836862,0.094354c0.094354,-0.945413 3.309881,-0.567372 2.836862,-0.094354zm-0.094354,-5.769328c0.756705,0.378665 3.972232,0.567372 1.702117,1.134745c-2.26949,0.567997 -2.836862,-1.702117 -1.702117,-1.134745zm8.010699,-0.707966c0.929791,-0.581744 2.790623,-0.697968 1.976431,0.232448c-0.813567,0.930416 -3.231774,0.551751 -1.976431,-0.232448zm2.651904,5.268816c-0.744833,0.637982 -3.019321,0.211203 -2.128272,-0.425529c0.744833,-0.53238 2.872479,-0.213077 2.128272,0.425529zm5.415033,-4.56085c0.946037,-0.283686 3.593567,0.378665 2.270115,0.756705c-1.324077,0.37804 -3.989103,-0.241196 -2.270115,-0.756705zm3.170537,4.888276c1.064136,-0.946037 3.073684,-0.118723 2.482567,0.354295c-0.591117,0.473019 -3.606689,0.644855 -2.482567,-0.354295zm3.922868,-3.564199c2.26949,-1.324077 3.7829,0.094354 3.120549,0.662351c-0.661726,0.567372 -3.96161,-0.171836 -3.120549,-0.662351zm10.237074,-0.242446c-0.259942,0.650479 -2.860607,-1.040391 -2.860607,-1.040391c0.650479,-0.389912 3.121173,0.390537 2.860607,1.040391zm0.979155,4.873905c-0.813567,0.930416 -3.231774,0.551751 -1.976431,-0.232448c0.929791,-0.581744 2.790623,-0.697968 1.976431,0.232448zm48.387249,31.512917c0.663601,-0.011247 1.018521,-0.016871 1.018521,-0.016871c1.89145,-10.970659 -14.375519,-42.747892 -73.768419,-40.477777c-59.392401,2.26949 -67.336678,39.721072 -65.44504,41.234482c0.136219,0.108726 0.97928,0.19808 2.419894,0.269939c17.543494,0.877303 124.230765,-0.82294 135.775045,-1.009773" id="svg_165"/>
   <path stroke="null" fill="#fdd605" fill-rule="nonzero" d="m81.433595,274.924301c2.270115,-0.567372 -0.945413,-0.75608 -1.702117,-1.134745c-1.134745,-0.567372 -0.567372,1.702742 1.702117,1.134745" id="svg_164"/>
   <path stroke="null" fill="#fdd605" fill-rule="nonzero" d="m98.079229,274.546261c1.323453,-0.37804 -1.324077,-1.040391 -2.270115,-0.756705c-1.718989,0.515509 0.946037,1.134745 2.270115,0.756705" id="svg_163"/>
   <path stroke="null" fill="#fdd605" fill-rule="nonzero" d="m89.718608,273.314038c0.814192,-0.930416 -1.04664,-0.814192 -1.976431,-0.232448c-1.255343,0.784199 1.162864,1.162864 1.976431,0.232448" id="svg_162"/>
   <path stroke="null" fill="#fdd605" fill-rule="nonzero" d="m114.118749,279.745092c0.814192,-0.930416 -1.04664,-0.814192 -1.976431,-0.232448c-1.255343,0.784199 1.162864,1.162864 1.976431,0.232448" id="svg_161"/>
   <path stroke="null" fill="#fdd605" fill-rule="nonzero" d="m106.023068,275.775984c0.662351,-0.567997 -0.851059,-1.986429 -3.120549,-0.662351c-0.841061,0.490515 2.458822,1.229724 3.120549,0.662351" id="svg_160"/>
   <path stroke="null" fill="#fdd605" fill-rule="nonzero" d="m88.26581,277.924876c-0.89105,0.636732 1.383439,1.063511 2.128272,0.425529c0.744208,-0.638606 -1.383439,-0.95791 -2.128272,-0.425529" id="svg_159"/>
   <path stroke="null" fill="#fdd605" fill-rule="nonzero" d="m113.139594,274.871188c0.260566,-0.649854 -2.210128,-1.430304 -2.860607,-1.040391c0,0 2.600665,1.69087 2.860607,1.040391" id="svg_158"/>
   <path stroke="null" fill="#fdd605" fill-rule="nonzero" d="m101.462219,279.032127c0.591117,-0.473019 -1.418431,-1.300333 -2.482567,-0.354295c-1.124122,0.99915 1.89145,0.827314 2.482567,0.354295" id="svg_157"/>
   <path stroke="null" fill="#fdd605" fill-rule="nonzero" d="m79.825832,279.558884c0.473019,-0.473019 -2.742509,-0.851059 -2.836862,0.094354c-0.076233,0.758579 2.364469,0.37804 2.836862,-0.094354" id="svg_156"/>
  </g>
  <g stroke="null" id="svg_208">
   <path stroke="null" fill="#e9e9e9" fill-rule="nonzero" d="m341.545876,256.94909c0.908613,-4.247729 -0.002307,-8.091682 -3.676443,-11.191302c-3.08393,-2.602167 -7.016021,-2.661234 -11.514784,-0.933531c-1.762312,-1.121345 -3.551388,-2.204851 -5.340464,-3.256977c-6.94588,-4.085757 -23.187849,-10.895507 -33.804173,7.543008c-10.616324,18.438514 -29.892847,32.68652 -39.391518,36.597384c-6.271227,2.582324 -8.519962,20.751346 1.446674,35.533721c-1.064586,3.538928 -0.606357,7.04417 1.812611,10.935653c2.020729,3.250055 6.052034,3.286972 11.216682,1.263013c3.753507,2.224693 8.119831,4.06453 13.182036,5.34877c37.435855,9.49867 27.65754,-14.248006 43.582026,-25.423156c15.924024,-11.174689 32.127693,-21.232186 31.289684,-37.156672c-0.397316,-7.546238 -3.808882,-13.836384 -8.802329,-19.259911" id="svg_198"/>
   <path stroke="null" fill="#f9b00b" fill-rule="nonzero" d="m280.073548,282.698036c-2.357132,-0.766945 -5.573962,-1.725856 -3.913633,2.259303c0.36363,0.909536 0.802939,1.776155 1.306852,2.605859c1.336846,-1.433753 2.686614,-2.887348 4.046072,-4.348789c-0.476226,-0.183199 -0.954759,-0.358554 -1.43929,-0.516373" id="svg_155"/>
   <path stroke="null" fill="#f9b00b" fill-rule="nonzero" d="m310.31249,294.61429c1.690785,0.444846 3.411104,0.704648 5.151727,0.695419c6.160938,-0.033225 5.069588,-4.396781 2.752602,-8.58129c-1.041051,1.056741 -2.078872,2.098715 -3.101004,3.120847c-1.34423,1.34423 -2.965335,2.958413 -4.803326,4.765025" id="svg_154"/>
   <path stroke="null" fill="#f9b00b" fill-rule="nonzero" d="m247.443788,308.873832c-1.720319,-1.267628 -0.05076,-4.178972 1.69217,-2.894732c1.943204,1.431907 3.933014,2.804747 5.962511,4.117136c5.236636,-5.448907 12.199128,-11.783354 19.922566,-19.926258c-0.924764,-1.36961 -1.687555,-2.801979 -2.093639,-4.321563c-0.419928,-1.570345 -1.567114,-5.366767 0.359476,-6.386591c3.202063,-1.694016 7.080626,-0.86662 10.903351,0.87631c5.947744,-6.376439 12.015929,-12.776875 17.874611,-18.314382c-1.122268,-1.831992 -1.992118,-3.804729 -1.386223,-6.007272c1.49928,-5.450753 8.614977,-5.648257 13.010373,-3.860104c3.279127,-2.384358 6.396282,-4.224656 9.281785,-5.332619c-1.762773,-1.121345 -3.551849,-2.204851 -5.340926,-3.256977c-6.945418,-4.085757 -23.187849,-10.895507 -33.803712,7.543008c-10.616324,18.438514 -29.892847,32.68652 -39.391518,36.597846c-6.271319,2.582324 -8.520054,20.750885 1.446674,35.533721c1.023516,-3.401875 3.45725,-6.83513 6.909886,-10.670315c-1.811688,-1.17672 -3.595226,-2.406508 -5.347386,-3.697209" id="svg_153"/>
   <path stroke="null" fill="#f9b00b" fill-rule="nonzero" d="m286.473522,320.142659c0.212733,-1.276395 0.358554,-2.57771 0.416236,-3.882715c-2.267609,1.933513 -4.5546,3.825494 -6.828669,5.632568c2.676923,0.972755 5.776543,2.065029 6.412433,-1.749852" id="svg_152"/>
   <path stroke="null" fill="#f9b00b" fill-rule="nonzero" d="m338.161997,258.948591c-0.435156,2.035034 -1.287009,4.161898 -2.454961,6.345522c0.754947,1.02167 0.352093,2.810285 -1.238556,2.673693c-0.102905,-0.009229 -0.20258,-0.022611 -0.304101,-0.033687c-3.361267,5.322006 -8.292417,10.878433 -13.378617,16.159368c3.293894,4.901617 5.995274,10.689696 0.257033,13.798545c-3.77981,2.047493 -8.790331,1.225635 -13.537359,-0.535292c-4.94684,4.803326 -11.021023,10.536492 -17.402077,16.124759c0.131977,1.776155 0.122287,3.580921 -0.054914,5.412452c-0.215501,2.228847 -0.778943,6.687924 -3.566616,7.454869c-2.845356,0.782634 -6.585942,-0.636352 -9.691099,-1.909517c-6.508417,4.951454 -12.752879,8.991527 -17.880149,11.000719c3.753045,2.224232 8.119831,4.064069 13.181574,5.348309c37.435855,9.49867 27.658002,-14.248006 43.582026,-25.423156c15.924486,-11.174689 32.128154,-21.232186 31.289684,-37.156211c-0.396855,-7.546699 -3.808882,-13.836846 -8.801867,-19.260372" id="svg_151"/>
   <path stroke="null" fill="#f9b00b" fill-rule="nonzero" d="m305.51747,255.17801c-1.721703,1.21133 -1.634949,2.879965 -0.9363,4.511684c2.012884,-1.83153 3.99485,-3.543082 5.931593,-5.097737c-1.725856,-0.462382 -3.499243,-0.466535 -4.995293,0.586053" id="svg_150"/>
   <path stroke="null" fill="#ef2e3b" fill-rule="nonzero" d="m310.31249,294.61429c1.837991,-1.806612 3.459096,-3.420795 4.803326,-4.765025c1.022132,-1.022132 2.059953,-2.064106 3.101004,-3.120847c-1.555578,-2.810285 -3.663522,-5.539814 -4.500609,-6.823593c-3.419411,-5.245865 -6.838821,-10.49173 -10.258232,-15.737595c-0.453153,-0.694957 -0.942761,-1.408373 -1.393144,-2.143477c-5.858682,5.537507 -11.926867,11.937942 -17.874611,18.314382c4.691191,2.138401 9.297474,5.655641 12.464928,7.60069c4.136518,2.53987 8.77095,5.390763 13.657338,6.675465" id="svg_149"/>
   <path stroke="null" fill="#ef2e3b" fill-rule="nonzero" d="m281.512839,283.214408c-1.359458,1.46144 -2.709225,2.915036 -4.046072,4.348789c0.237651,0.39224 0.485455,0.778481 0.754485,1.152263c1.293469,1.764619 2.720762,3.407413 4.038688,5.149882c4.407856,5.826842 7.314124,12.478772 7.843417,19.616157c6.381054,-5.588268 12.455238,-11.321433 17.402077,-16.124759c-4.17205,-1.547733 -8.140597,-3.820418 -10.889508,-5.508435c-4.84901,-2.977333 -9.730784,-6.568406 -15.103089,-8.633896" id="svg_148"/>
   <path stroke="null" fill="#ef2e3b" fill-rule="nonzero" d="m274.248091,323.410711c-7.565619,-2.866121 -14.717309,-6.462732 -21.456917,-10.83967c-3.452636,3.835185 -5.88637,7.268439 -6.909886,10.670315c-1.064586,3.538467 -0.606357,7.043709 1.812611,10.935192c2.020267,3.250055 6.051572,3.286972 11.216682,1.263475c5.12727,-2.009192 11.371732,-6.049265 17.880149,-11.000719c-0.915073,-0.375628 -1.778001,-0.738796 -2.542639,-1.028592" id="svg_147"/>
   <path stroke="null" fill="#ef2e3b" fill-rule="nonzero" d="m310.512763,254.591957c-1.936743,1.554655 -3.918709,3.266206 -5.931593,5.097737c0.75587,1.764157 2.227001,3.484015 2.911344,4.534295c3.03963,4.662581 6.07926,9.326085 9.118428,13.988666c1.000904,1.535274 2.651081,3.613223 4.174819,5.880832c5.0862,-5.280936 10.01735,-10.837363 13.378617,-16.159368c-8.057996,-0.843547 -12.38002,-7.247674 -18.942427,-11.176535c-1.304544,-0.780788 -2.98287,-1.702322 -4.709188,-2.165627" id="svg_146"/>
   <path stroke="null" fill="#ef2e3b" fill-rule="nonzero" d="m314.55422,252.551848c6.801904,3.493705 11.919022,11.374962 19.91426,12.063459c0.55975,0.047992 0.970448,0.316099 1.238556,0.678806c1.167953,-2.183624 2.019806,-4.310488 2.454961,-6.345522c0.908151,-4.247729 -0.002769,-8.091682 -3.676443,-11.191302c-3.084391,-2.602167 -7.016483,-2.660772 -11.514784,-0.933531c-2.885503,1.107963 -6.002658,2.948261 -9.281785,5.332619c0.302256,0.12321 0.59159,0.254725 0.865235,0.39547" id="svg_145"/>
   <path stroke="null" fill="#ef2e3b" fill-rule="nonzero" d="m280.061089,321.892511c2.27407,-1.807073 4.56106,-3.699055 6.828669,-5.632568c0.080294,-1.830146 -0.019381,-3.668137 -0.401008,-5.457675c-1.061356,-4.973143 -2.986562,-9.776007 -6.074645,-13.858534c-1.617875,-2.138401 -3.760429,-4.356634 -5.39307,-6.773755c-7.723438,8.142904 -14.68593,14.477351 -19.922566,19.926258c7.349195,4.753027 15.247064,8.668506 23.601778,11.32051c0.43008,0.136592 0.88877,0.304563 1.360842,0.475764" id="svg_144"/>
   <path stroke="null" fill="#fdd605" fill-rule="nonzero" d="m334.46848,264.615307c-7.995237,-0.688497 -13.112355,-8.569754 -19.91426,-12.063459c-0.273645,-0.140745 -0.56298,-0.272261 -0.865235,-0.39547c-4.395396,-1.788153 -11.511093,-1.590649 -13.010373,3.860104c-0.605896,2.202543 0.263955,4.17528 1.386223,6.007272c0.450384,0.735104 0.939992,1.44852 1.393144,2.143477c3.419411,5.245865 6.838821,10.49173 10.258232,15.737595c0.837086,1.283779 2.945031,4.013308 4.500609,6.823593c2.316985,4.184509 3.408336,8.548065 -2.752602,8.58129c-1.740623,0.009229 -3.460942,-0.250572 -5.151727,-0.695419c-4.886389,-1.284702 -9.52082,-4.135595 -13.657338,-6.675465c-3.167454,-1.945049 -7.773737,-5.462289 -12.464928,-7.60069c-3.822726,-1.74293 -7.701288,-2.570326 -10.903351,-0.87631c-1.926591,1.019824 -0.779404,4.816247 -0.359476,6.386591c0.406084,1.519584 1.168875,2.951953 2.093639,4.321563c1.632642,2.417122 3.775195,4.635355 5.39307,6.773755c3.088083,4.082527 5.01329,8.885392 6.074645,13.858534c0.381627,1.789538 0.481302,3.627529 0.401008,5.457675c-0.057682,1.305006 -0.203503,2.60632 -0.416236,3.882715c-0.63589,3.814881 -3.73551,2.722608 -6.412433,1.749852c-0.472072,-0.171201 -0.930763,-0.339172 -1.360842,-0.475764c-8.354714,-2.652004 -16.252583,-6.567483 -23.601778,-11.32051c-2.029496,-1.312389 -4.019307,-2.685229 -5.962511,-4.117136c-1.74293,-1.28424 -3.412489,1.627104 -1.69217,2.894732c1.75216,1.290701 3.535698,2.520489 5.347386,3.697209c6.739608,4.376938 13.891298,7.973549 21.456917,10.83967c0.764637,0.289796 1.627566,0.652964 2.542639,1.028592c3.105157,1.273165 6.845743,2.692151 9.691099,1.909517c2.787673,-0.766945 3.351115,-5.226022 3.566616,-7.454869c0.1772,-1.83153 0.186891,-3.636296 0.054914,-5.412452c-0.529293,-7.137385 -3.435562,-13.789315 -7.843417,-19.616157c-1.317927,-1.742469 -2.745219,-3.385263 -4.038688,-5.149882c-0.269031,-0.373782 -0.516834,-0.760023 -0.754485,-1.152263c-0.503913,-0.829703 -0.943222,-1.696323 -1.306852,-2.605859c-1.660329,-3.985159 1.556501,-3.026248 3.913633,-2.259303c0.484532,0.157819 0.963065,0.333173 1.43929,0.516373c5.372305,2.06549 10.254079,5.656563 15.103089,8.633896c2.748911,1.688017 6.717458,3.960702 10.889508,5.508435c4.747028,1.760927 9.757549,2.582786 13.537359,0.535292c5.738242,-3.108849 3.036861,-8.896928 -0.257033,-13.798545c-1.523737,-2.267609 -3.173914,-4.345559 -4.174819,-5.880832c-3.039168,-4.662581 -6.078798,-9.326085 -9.118428,-13.988666c-0.684344,-1.050281 -2.155475,-2.770138 -2.911344,-4.534295c-0.698649,-1.631719 -0.785403,-3.300354 0.9363,-4.511684c1.49605,-1.052588 3.269436,-1.048435 4.995293,-0.586053c1.726318,0.463305 3.404644,1.384838 4.709188,2.165627c6.562407,3.928861 10.884432,10.332988 18.942427,11.176535c0.101521,0.011075 0.201196,0.024457 0.304101,0.033687c1.590649,0.136592 1.993503,-1.652023 1.238556,-2.673693c-0.268108,-0.362707 -0.678806,-0.630814 -1.238556,-0.678806" id="svg_143"/>
  </g>
  <g stroke="null" transform="rotate(-28.151418685913086 154.88954162597656,129.8688507080078) " id="svg_209">
   <path stroke="null" fill="#e9e9e9" fill-rule="nonzero" d="m205.182797,191.583033c2.591076,-27.030473 5.276158,-66.776785 2.593861,-68.097043l9.574656,-20.821918l-6.744736,-3.372368l-7.786459,18.391l10.596881,-39.329206l-3.09244,-0.972089l3.654385,-13.783327l-6.464111,-2.809726l-4.532468,14.286083l-4.320781,-1.358557l-4.017874,27.643251l-8.791275,27.712188l4.539432,-47.889993l7.005167,-32.478626l-10.961066,-2.247781l-3.048571,13.197706l-2.431614,-0.269483l-2.062555,19.725881l-10.097606,43.717532l4.572159,-49.531959l-3.948936,-0.584924l2.683689,-27.659963l-12.365581,-1.124587l-2.614752,33.117169l0.225614,-28.198929l-13.068883,1.264551l0.350955,21.149197l-2.599432,-36.044576l-12.928223,1.686532l2.20809,27.632109l-8.952826,0.332154l1.125283,23.501429l-3.935706,-28.700989l-10.1178,2.248477l2.458075,29.392453l-3.442002,-9.156853l-13.068187,4.215634l7.183429,18.258695l-3.811061,1.133639l6.090874,18.863117c-2.503337,-1.214415 -4.279697,-1.762433 -5.247608,-1.157315c-6.745432,4.215634 2.529102,93.588608 8.431268,94.853159c5.902166,1.265247 22.764702,-10.1178 42.578322,-13.911453c9.234147,-1.768004 20.663849,1.041723 30.409804,4.375792c0.701213,4.859051 1.412871,9.354613 1.770093,10.308597c0.843266,2.248477 24.17061,3.373064 27.261657,1.405211c2.458075,-1.563977 3.494227,-15.908552 3.815936,-22.291888c2.421866,-0.358614 4.180121,-0.880172 4.896653,-1.596704c3.224048,-3.224048 -4.402253,-4.311032 -13.573729,-5.021298" id="svg_200"/>
   <path stroke="null" fill="#f9b00b" fill-rule="nonzero" d="m185.285617,84.198564l7.005167,-32.47793l-10.961066,-2.248477l-3.048571,13.198402l8.950737,0.994372l-1.946266,20.533633" id="svg_190"/>
   <path stroke="null" fill="#f9b00b" fill-rule="nonzero" d="m184.713923,137.562475l4.823538,-33.186106l-8.791275,27.712188l-0.706784,7.456394c1.670516,-0.633668 3.221262,-1.300064 4.674521,-1.982476" id="svg_189"/>
   <path stroke="null" fill="#f9b00b" fill-rule="nonzero" d="m167.416175,143.067728l6.370802,-60.941468l-10.098303,43.718228l-1.667731,18.07138c1.880114,-0.236755 3.676668,-0.522254 5.395232,-0.84814" id="svg_188"/>
   <path stroke="null" fill="#f9b00b" fill-rule="nonzero" d="m153.506115,144.606637c0.767365,-0.029943 1.513144,-0.074508 2.25753,-0.11977l1.114838,-69.860869l7.433415,1.100911l2.684385,-27.659963l-12.366278,-1.124587l-2.614055,33.117169l-0.516683,64.58123c0.666396,-0.006267 1.330703,-0.00766 2.006848,-0.034121" id="svg_187"/>
   <path stroke="null" fill="#f9b00b" fill-rule="nonzero" d="m208.871999,66.616014l-6.463415,-2.810423l-4.532468,14.286083l7.341498,2.30697l3.654385,-13.78263" id="svg_186"/>
   <path stroke="null" fill="#f9b00b" fill-rule="nonzero" d="m97.454337,107.640108l-3.811758,1.132943l6.09157,18.863117c1.933732,0.937968 4.304069,2.272849 7.079675,3.792957l-9.359487,-23.789017" id="svg_185"/>
   <path stroke="null" fill="#f9b00b" fill-rule="nonzero" d="m202.408584,126.478853c0.092613,-0.033424 0.178263,-0.016016 0.261127,0.024372l9.575352,-20.821918l-6.745432,-3.372368l-7.785762,18.391l-2.976151,11.046716c3.717752,-2.589683 6.104801,-4.698197 7.670866,-5.267802" id="svg_184"/>
   <path stroke="null" fill="#f9b00b" fill-rule="nonzero" d="m136.491081,143.179839c1.366913,0.279232 2.767946,0.515291 4.188477,0.722799l-1.155922,-69.627596l-2.599432,-36.045273l-12.928223,1.686532l2.20809,27.632806l2.429525,-0.089828l7.857485,75.720559" id="svg_183"/>
   <path stroke="null" fill="#f9b00b" fill-rule="nonzero" d="m118.375831,91.381994l-3.935706,-28.700989l-10.117104,2.248477l2.457379,29.392453l13.449084,35.784146l-1.853653,-38.724087" id="svg_182"/>
   <path stroke="null" fill="#fdd605" fill-rule="nonzero" d="m180.039402,139.544951l0.706784,-7.456394l4.539432,-47.889993l1.946266,-20.533633l-8.950737,-0.994372l-2.431614,-0.270179l-2.062555,19.725881l-6.370802,60.941468c4.798469,-0.910115 8.97859,-2.139849 12.623227,-3.522777" id="svg_181"/>
   <path stroke="null" fill="#fdd605" fill-rule="nonzero" d="m136.491081,143.179839l-7.857485,-75.720559l-2.429525,0.089828l-8.953522,0.331457l1.125283,23.501429l1.853653,38.724087l-13.449084,-35.784146l-3.441305,-9.156853l-13.068883,4.215634l7.184126,18.259392l9.359487,23.789017c7.292058,3.991413 17.375041,9.230665 29.677256,11.750714" id="svg_180"/>
   <path stroke="null" fill="#fdd605" fill-rule="nonzero" d="m155.763645,144.486866c2.178147,-0.132304 4.268556,-0.321708 6.257299,-0.570998l1.667731,-18.07138l4.572159,-49.532656l-3.948936,-0.584924l-7.433415,-1.100911l-1.114838,69.860869" id="svg_179"/>
   <path stroke="null" fill="#fdd605" fill-rule="nonzero" d="m194.737718,131.746655l2.976151,-11.046716l10.596185,-39.329206l-3.09244,-0.972089l-7.341498,-2.30697l-4.320781,-1.35786l-4.017874,27.642555l-4.823538,33.186106c4.122325,-1.933732 7.406258,-3.992806 10.023795,-5.81582" id="svg_178"/>
   <path stroke="null" fill="#fdd605" fill-rule="nonzero" d="m151.499267,144.640757l0.516683,-64.58123l0.225614,-28.198233l-13.068883,1.264551l0.350955,21.149197l1.155922,69.627596c3.45384,0.504149 7.062963,0.774329 10.81971,0.738119" id="svg_177"/>
   <path stroke="null" fill="#ef2e3b" fill-rule="nonzero" d="m148.02593,190.979307c-14.668373,0 -26.559052,-7.549703 -26.559052,-16.862536c0,-9.313529 11.890678,-16.863233 26.559052,-16.863233c14.667677,0 26.558355,7.549703 26.558355,16.863233c0,9.312833 -11.890678,16.862536 -26.558355,16.862536zm21.218831,7.518368c0,-2.811119 3.698254,-5.787967 22.202757,-4.496955c2.842454,0.198457 5.80816,0.381594 8.629028,0.600244c2.59038,-27.031169 5.276158,-66.777482 2.593165,-68.09774c-0.082864,-0.040388 -0.168514,-0.057796 -0.261127,-0.024372c-1.566066,0.569605 -3.953114,2.678118 -7.670866,5.267802c-2.617537,1.823015 -5.90147,3.882088 -10.023795,5.81582c-1.453259,0.682412 -3.004005,1.348808 -4.674521,1.982476c-3.644636,1.382929 -7.824757,2.612663 -12.623227,3.522777c-1.718564,0.325886 -3.515117,0.611385 -5.395232,0.84814c-1.988743,0.249289 -4.079152,0.438693 -6.257299,0.570998c-0.744386,0.045262 -1.490165,0.089828 -2.25753,0.11977c-0.676145,0.026461 -1.340452,0.027854 -2.006848,0.034121c-3.756747,0.03621 -7.36587,-0.23397 -10.81971,-0.738119c-1.420531,-0.207509 -2.821564,-0.443568 -4.188477,-0.722799c-12.302215,-2.520049 -22.385198,-7.759301 -29.677256,-11.750714c-2.775606,-1.520107 -5.145942,-2.854988 -7.079675,-3.792957c-2.503337,-1.213718 -4.280394,-1.762433 -5.248304,-1.157315c-6.744736,4.215634 2.529798,93.589304 8.431964,94.853855c5.90147,1.264551 22.764702,-10.1178 42.578322,-13.912149c9.23345,-1.768004 20.663849,1.041723 30.409804,4.375792c-0.620438,-4.299891 -1.231127,-8.874139 -1.582081,-11.545294c-3.109848,-0.524343 -5.079094,-1.13155 -5.079094,-1.753381" id="svg_176"/>
   <path stroke="null" fill="#f9b00b" fill-rule="nonzero" d="m206.379803,205.523732c0.406662,0.813324 -1.626647,15.047878 -3.049963,16.132077c-1.423316,1.084199 -20.266936,1.084199 -22.842692,-0.745779c-2.575757,-1.829978 -3.609123,-15.953118 -2.304881,-16.538739c3.321535,-1.491557 7.863056,2.372426 13.421231,0.813324c5.558175,-1.559102 14.369644,-0.474207 14.776306,0.339117zm-32.055949,-5.272676c0.350955,2.671155 0.961644,7.245403 1.582081,11.545294c0.700517,4.859051 1.412175,9.355309 1.770093,10.309293c0.843266,2.247781 24.169914,3.372368 27.261657,1.405211c2.458075,-1.563977 3.493531,-15.908552 3.815239,-22.292585c-8.672201,1.284048 -25.873158,0.475599 -34.429071,-0.967214" id="svg_175"/>
   <path stroke="null" fill="#fdd605" fill-rule="nonzero" d="m174.584285,174.116771c0,-9.313529 -11.890678,-16.863233 -26.558355,-16.863233c-14.668373,0 -26.559052,7.549703 -26.559052,16.863233c0,9.312833 11.890678,16.862536 26.559052,16.862536c14.667677,0 26.558355,-7.549703 26.558355,-16.862536" id="svg_174"/>
   <path stroke="null" fill="#fdd605" fill-rule="nonzero" d="m207.534333,198.944725c-3.08478,1.593223 -32.023221,-0.213776 -31.991886,-1.332096c0.030639,-1.11832 2.728951,-2.22898 16.051302,-1.346719c8.700751,0.576568 19.025364,1.085592 15.940584,2.678815zm-7.457787,-4.34376c-2.820868,-0.21865 -5.786574,-0.401787 -8.629028,-0.600244c-18.504503,-1.291012 -22.202757,1.685836 -22.202757,4.496955c0,0.62183 1.969246,1.229038 5.079094,1.753381c8.555913,1.442814 25.75687,2.251263 34.429071,0.967214c2.421866,-0.358614 4.180817,-0.880172 4.89735,-1.596704c3.224048,-3.224048 -4.402949,-4.311032 -13.573729,-5.020602" id="svg_173"/>
   <path stroke="null" fill="#f9b00b" fill-rule="nonzero" d="m191.593749,196.26591c-13.322351,-0.882261 -16.020663,0.228399 -16.051302,1.346719c-0.031335,1.11832 28.907105,2.925319 31.991886,1.332096c3.08478,-1.593223 -7.239833,-2.102246 -15.940584,-2.678815" id="svg_172"/>
   <path stroke="null" fill="#ef2e3b" fill-rule="nonzero" d="m191.603498,205.184615c-5.558175,1.559102 -10.099695,-2.304881 -13.421231,-0.813324c-1.304242,0.585621 -0.270876,14.708761 2.304881,16.538739c2.575757,1.829978 21.419376,1.829978 22.842692,0.745779c1.423316,-1.084199 3.456625,-15.318753 3.049963,-16.132077c-0.406662,-0.813324 -9.218131,-1.898219 -14.776306,-0.339117" id="svg_171"/>
  </g>
  <g stroke="null" transform="rotate(11.160558700561523 323.7485961914064,87.73679351806625) " id="svg_210">
   <path stroke="null" fill="#e9e9e9" fill-rule="nonzero" d="m294.458707,74.329906l5.870336,0c1.019155,13.505509 5.343772,69.469885 7.151924,71.127286c2.056571,1.885438 34.106888,1.71388 35.991901,-0.685382c1.676935,-2.134281 5.793899,-58.089315 6.683961,-70.441904l5.995607,0c0.662026,0 1.203453,-0.541426 1.203453,-1.203028l0,-3.420965c0,-0.662026 -0.541426,-1.203453 -1.203453,-1.203453l-29.410704,0c0.149051,-6.094974 0.523166,-20.311769 0.791969,-21.252364c0.342691,-1.199631 23.308935,-14.739536 23.652051,-15.425343c0.342691,-0.685382 -1.200056,-4.970506 -2.399687,-4.970506c-1.199631,0 -26.222871,14.39727 -26.908253,17.653472c-0.559262,2.656599 -0.776257,18.316347 -0.837406,23.994742l-26.581698,0c-0.662026,0 -1.203453,0.541426 -1.203453,1.203453l0,3.420965c0,0.661602 0.541426,1.203028 1.203453,1.203028" id="svg_199"/>
   <path stroke="null" fill="#ef2e3b" fill-rule="nonzero" d="m324.41933,49.090095c0.343116,-1.199631 23.30936,-14.739536 23.652051,-15.425343c0.343116,-0.685382 -1.199631,-4.970082 -2.399262,-4.970082c-1.199631,0 -26.222871,14.396845 -26.908677,17.653047c-0.559262,2.657023 -0.776257,18.316772 -0.836981,23.995167l5.701326,0c0.149051,-6.095399 0.523166,-20.312194 0.791544,-21.252789" id="svg_192"/>
   <path stroke="null" fill="#f9b00b" fill-rule="nonzero" d="m323.792528,91.465674c7.761718,0 14.054154,6.292436 14.054154,14.054154c0,7.761718 -6.292436,14.054154 -14.054154,14.054154c-7.762143,0 -14.054154,-6.292436 -14.054154,-14.054154c0,-7.761718 6.292011,-14.054154 14.054154,-14.054154zm-18.167721,55.873501c2.056995,1.885438 34.106888,1.71388 35.992325,-0.685382c1.676935,-2.134281 5.793899,-58.08889 6.683961,-70.441904l-49.82821,0c1.019155,13.505509 5.344197,69.469885 7.151924,71.127286" id="svg_191"/>
   <path stroke="null" fill="#fdd605" fill-rule="nonzero" d="m291.344337,76.169906l61.694153,0c0.661602,0 1.203028,-0.541426 1.203028,-1.203028l0,-3.420965c0,-0.662026 -0.541426,-1.203028 -1.203028,-1.203028l-29.410704,0l-5.701326,0l-26.582123,0c-0.661602,0 -1.203028,0.541002 -1.203028,1.203028l0,3.420965c0,0.661602 0.541426,1.203028 1.203028,1.203028" id="svg_170"/>
   <path stroke="null" fill="#ef2e3b" fill-rule="nonzero" d="m322.534317,119.532c7.761719,0 14.054155,-6.292436 14.054155,-14.054155c0,-7.761718 -6.292435,-14.054153 -14.054155,-14.054153c-7.762143,0 -14.054153,6.292435 -14.054153,14.054153c0,7.761718 6.292011,14.054155 14.054153,14.054155" id="svg_169"/>
  </g>
  <g stroke="null" transform="rotate(-22.890830993652344 485.64584350585903,309.8810119628905) " id="svg_211">
   <path stroke="null" fill="#e9e9e9" fill-rule="nonzero" d="m508.844325,294.976792c10.381461,-16.466549 -2.863491,-24.341717 -2.863491,-24.341717c-0.716214,-24.341717 -29.353394,-21.835878 -29.353394,-21.835878c7.159409,9.664792 -4.295463,16.108442 -11.096765,21.835878c-6.801757,5.727436 -1.79008,15.392228 -1.79008,15.392228c-11.096765,9.665247 1.431973,21.836333 1.431973,21.836333c-4.143939,4.538448 -4.152585,8.747911 -3.327164,11.614132l-1.658122,0c0,0 0,11.386618 0.367208,13.590318c0.367208,2.2037 4.040648,2.2037 6.244348,5.87714c2.2037,3.672985 3.305778,28.282213 4.775063,29.384382c1.46883,1.101486 27.547844,0.734279 30.485959,0.367071c2.93857,-0.367071 1.102078,-18.732497 3.305778,-26.445675c2.204155,-7.713633 3.305778,-5.87714 6.978763,-9.182918c3.67344,-3.305778 1.469285,-13.590318 1.469285,-13.590318l-0.915516,0c7.606246,-9.996508 -4.053843,-24.500977 -4.053843,-24.500977" id="svg_202"/>
   <path stroke="null" fill="#ef2e3b" fill-rule="nonzero" d="m505.507605,296.948428c10.381006,-16.466549 -2.863491,-24.341717 -2.863491,-24.341717c-0.716214,-24.341717 -29.353394,-21.835878 -29.353394,-21.835878c7.159409,9.665247 -4.295918,16.108442 -11.09722,21.835878c-6.801302,5.727436 -1.789625,15.392683 -1.789625,15.392683c-11.09722,9.664792 1.431973,21.835878 1.431973,21.835878c-4.143939,4.538448 -4.152585,8.747911 -3.327619,11.614132l51.052764,0c7.606701,-9.996508 -4.053388,-24.500977 -4.053388,-24.500977" id="svg_196"/>
   <path stroke="null" fill="#f9b00b" fill-rule="nonzero" d="m456.850563,321.449405c0,0 0,11.386618 0.367208,13.590318c0.367208,2.204155 4.040193,2.204155 6.243893,5.87714c2.204155,3.672985 3.305778,28.282304 4.775063,29.384336c1.469285,1.101987 27.547844,0.734779 30.486414,0.367208c2.93857,-0.367208 1.102078,-18.732588 3.305778,-26.445766c2.2037,-7.713633 3.305778,-5.87714 6.978763,-9.182918c3.672985,-3.305778 1.469285,-13.590318 1.469285,-13.590318l-0.915971,0l-51.052764,0l-1.657667,0" id="svg_142"/>
  </g>
  <g stroke="null" transform="rotate(-18.875728607177734 449.9419250488281,130.29933166503915) " id="svg_212">
   <path fill="#e9e9e9" fill-rule="nonzero" d="m446.978785,98.611563c-23.490838,-0.1285 -46.810834,16.941018 -44.80454,48.148486c1.199579,18.66233 8.138213,25.683439 12.998755,26.216954c8.092925,9.337792 20.039747,15.244044 33.366195,15.244044c22.877425,0 41.687401,-17.406453 43.914981,-39.697712c0.673797,-0.875936 1.218725,-2.078092 1.557465,-3.76958c2.006663,-10.031103 -6.240905,-45.919434 -47.032856,-46.142192" id="svg_197"/>
   <path fill="#f9b00b" fill-rule="nonzero" d="m480.837625,158.386173c0.891032,9.139335 -9.809818,9.585219 -10.032576,3.566705c-0.223126,-6.018515 -8.024809,-10.476619 -11.14563,-1.56041c-3.12082,8.916577 -15.380608,8.916577 -10.699745,0.891768c1.454738,-2.493416 2.736425,-4.469887 3.753011,-6.271465c-1.92345,1.419023 -4.300149,2.258876 -6.873463,2.258876c-6.401806,0 -11.591514,-5.18934 -11.591514,-11.591145c0,-0.754431 0.074744,-1.490821 0.21208,-2.204751c-1.451793,4.719523 -1.179328,10.762339 1.794214,14.019023c4.681231,5.126747 1.114526,10.030735 -2.897694,15.380608c-4.012589,5.349873 -8.247935,-0.891768 -10.253861,-6.464399c-2.006294,-5.572631 -8.470693,-7.801683 -6.018515,2.006294c0.985658,3.942632 -1.343543,6.513737 -4.610905,6.155115c8.092557,9.337755 20.039747,15.243971 33.366195,15.243971c22.877425,0 41.688506,-17.40638 43.916085,-39.697639c-3.317437,4.316718 -9.661436,0.669747 -8.917682,8.26745" id="svg_141"/>
   <path fill="#ef2e3b" fill-rule="nonzero" d="m482.840606,142.559681c-0.73639,0 -1.336548,-0.598685 -1.336548,-1.337284c0,-0.738967 0.600158,-1.337652 1.336548,-1.337652c0.740072,0 1.34023,0.598685 1.34023,1.337652c0,0.738599 -0.600158,1.337284 -1.34023,1.337284zm-8.46922,-5.795757c-0.738599,0 -1.337284,-0.598685 -1.337284,-1.337284c0,-0.738599 0.598685,-1.337284 1.337284,-1.337284c0.738599,0 1.337652,0.598685 1.337652,1.337284c0,0.738599 -0.599053,1.337284 -1.337652,1.337284zm-1.337284,12.482914c-0.738599,0 -1.337652,-0.598685 -1.337652,-1.337284c0,-0.738599 0.599053,-1.337284 1.337652,-1.337284c0.738599,0 1.337284,0.598685 1.337284,1.337284c0,0.738599 -0.598685,1.337284 -1.337284,1.337284zm-2.674936,-29.64669c-0.738599,0 -1.337652,-0.598685 -1.337652,-1.337652c0,-0.738599 0.599053,-1.337284 1.337652,-1.337284c0.738599,0 1.337284,0.598685 1.337284,1.337284c0,0.738967 -0.598685,1.337652 -1.337284,1.337652zm-5.572631,29.64669c-0.738967,0 -1.337652,-0.598685 -1.337652,-1.337284c0,-0.738599 0.598685,-1.337284 1.337652,-1.337284c0.738599,0 1.337284,0.598685 1.337284,1.337284c0,0.738599 -0.598685,1.337284 -1.337284,1.337284zm-2.452178,-15.157482c-0.738599,0 -1.337284,-0.599053 -1.337284,-1.337652c0,-0.738599 0.598685,-1.337284 1.337284,-1.337284c0.738599,0 1.337652,0.598685 1.337652,1.337284c0,0.738599 -0.599053,1.337652 -1.337652,1.337652zm-2.897694,-9.585219c-0.738599,0 -1.337652,-0.598685 -1.337652,-1.337652c0,-0.738599 0.599053,-1.337284 1.337652,-1.337284c0.738599,0 1.337284,0.598685 1.337284,1.337284c0,0.738967 -0.598685,1.337652 -1.337284,1.337652zm-26.080353,-7.356167c0,-0.738599 0.598685,-1.337284 1.337284,-1.337284c0.738599,0 1.337652,0.598685 1.337652,1.337284c0,0.738599 -0.599053,1.337652 -1.337652,1.337652c-0.738599,0 -1.337284,-0.599053 -1.337284,-1.337652zm-3.343947,11.591514c-0.738599,0 -1.337284,-0.599053 -1.337284,-1.337652c0,-0.738599 0.598685,-1.337284 1.337284,-1.337284c0.738967,0 1.337652,0.598685 1.337652,1.337284c0,0.738599 -0.598685,1.337652 -1.337652,1.337652zm-4.458105,14.934724c-0.738599,0 -1.337284,-0.598685 -1.337284,-1.337284c0,-0.738599 0.598685,-1.337652 1.337284,-1.337652c0.738599,0 1.337652,0.599053 1.337652,1.337652c0,0.738599 -0.599053,1.337284 -1.337652,1.337284zm-0.891768,-37.671499c-0.738599,0 -1.337284,-0.598685 -1.337284,-1.337284c0,-0.738599 0.598685,-1.337652 1.337284,-1.337652c0.738967,0 1.337652,0.599053 1.337652,1.337652c0,0.738599 -0.598685,1.337284 -1.337652,1.337284zm-6.241273,29.423932c-0.738599,0 -1.337284,-0.598685 -1.337284,-1.337284c0,-0.738967 0.598685,-1.337652 1.337284,-1.337652c0.738599,0 1.337652,0.598685 1.337652,1.337652c0,0.738599 -0.599053,1.337284 -1.337652,1.337284zm4.01222,-11.145261c-0.738599,0 -1.337284,-0.599053 -1.337284,-1.337652c0,-0.738599 0.598685,-1.337284 1.337284,-1.337284c0.738599,0 1.337284,0.598685 1.337284,1.337284c0,0.738599 -0.598685,1.337652 -1.337284,1.337652zm-5.349873,-10.253861c0,0.738599 -0.598685,1.337284 -1.337284,1.337284c-0.738967,0 -1.337652,-0.598685 -1.337652,-1.337284c0,-0.738599 0.598685,-1.337652 1.337652,-1.337652c0.738599,0 1.337284,0.599053 1.337284,1.337652zm37.002857,-32.098868c0,-0.738967 0.599053,-1.337652 1.337652,-1.337652c0.738599,0 1.337284,0.598685 1.337284,1.337652c0,0.738599 -0.598685,1.337284 -1.337284,1.337284c-0.738599,0 -1.337652,-0.598685 -1.337652,-1.337284zm1.56041,12.03703c-0.738599,0 -1.337284,-0.599053 -1.337284,-1.337652c0,-0.738599 0.598685,-1.337284 1.337284,-1.337284c0.738599,0 1.337652,0.598685 1.337652,1.337284c0,0.738599 -0.599053,1.337652 -1.337652,1.337652zm-5.126747,-23.182659c-23.491206,-0.1285 -46.811202,16.941018 -44.804908,48.148486c1.199947,18.66233 8.138213,25.683439 12.999123,26.216954c3.267362,0.358622 5.596563,-2.212483 4.610905,-6.155115c-2.452178,-9.807977 4.01222,-7.578925 6.018515,-2.006294c2.005926,5.572631 6.241273,11.814272 10.253861,6.464399c4.01222,-5.349873 7.578925,-10.253861 2.897694,-15.380608c-2.973542,-3.256684 -3.246007,-9.2995 -1.794214,-14.019023c0.833962,-2.710651 2.234575,-4.985728 4.023266,-6.042816c4.903989,-2.898063 14.043324,-4.235347 16.049618,4.458105c1.382572,5.992373 0.435206,9.125344 -1.819988,13.121732c-1.016586,1.801578 -2.298273,3.778048 -3.753011,6.271465c-4.680862,8.024809 7.578925,8.024809 10.699745,-0.891768c3.12082,-8.916209 10.922503,-4.458105 11.14563,1.56041c0.222758,6.018515 10.923608,5.572631 10.032576,-3.566705c-0.743754,-7.597703 5.600245,-3.950732 8.917682,-8.26745c0.670115,-0.875568 1.218725,-2.077724 1.557465,-3.76958c2.006663,-10.030735 -6.240905,-45.919066 -47.03396,-46.142192" id="svg_140"/>
   <path fill="#fdd605" fill-rule="nonzero" d="m416.192164,151.030374c-0.738599,0 -1.337284,0.598685 -1.337284,1.337284c0,0.738599 0.598685,1.337652 1.337284,1.337652c0.738599,0 1.337284,-0.599053 1.337284,-1.337652c0,-0.738599 -0.598685,-1.337284 -1.337284,-1.337284" id="svg_139"/>
   <path fill="#fdd605" fill-rule="nonzero" d="m425.554257,140.999271c-0.738599,0 -1.337284,0.599053 -1.337284,1.337652c0,0.738599 0.598685,1.337284 1.337284,1.337284c0.738599,0 1.337652,-0.598685 1.337652,-1.337284c0,-0.738599 -0.599053,-1.337652 -1.337652,-1.337652" id="svg_138"/>
   <path fill="#fdd605" fill-rule="nonzero" d="m418.421216,132.751704c-0.738599,0 -1.337284,0.598685 -1.337284,1.337652c0,0.738599 0.598685,1.337284 1.337284,1.337284c0.738599,0 1.337652,-0.598685 1.337652,-1.337284c0,-0.738967 -0.599053,-1.337652 -1.337652,-1.337652" id="svg_137"/>
   <path fill="#fdd605" fill-rule="nonzero" d="m420.204384,118.262496c-0.738599,0 -1.337284,0.599053 -1.337284,1.337652c0,0.738599 0.598685,1.337284 1.337284,1.337284c0.738967,0 1.337652,-0.598685 1.337652,-1.337284c0,-0.738599 -0.598685,-1.337652 -1.337652,-1.337652" id="svg_136"/>
   <path fill="#fdd605" fill-rule="nonzero" d="m430.012362,126.064547c-0.738599,0 -1.337284,0.598685 -1.337284,1.337284c0,0.738599 0.598685,1.337652 1.337284,1.337652c0.738967,0 1.337652,-0.599053 1.337652,-1.337652c0,-0.738599 -0.598685,-1.337284 -1.337652,-1.337284" id="svg_135"/>
   <path fill="#fdd605" fill-rule="nonzero" d="m436.031244,117.14797c0,-0.738599 -0.599053,-1.337284 -1.337652,-1.337284c-0.738599,0 -1.337284,0.598685 -1.337284,1.337284c0,0.738599 0.598685,1.337652 1.337284,1.337652c0.738599,0 1.337652,-0.599053 1.337652,-1.337652" id="svg_134"/>
   <path fill="#fdd605" fill-rule="nonzero" d="m449.1828,112.689865c0.738599,0 1.337284,-0.598685 1.337284,-1.337284c0,-0.738967 -0.598685,-1.337652 -1.337284,-1.337652c-0.738599,0 -1.337652,0.598685 -1.337652,1.337652c0,0.738599 0.599053,1.337284 1.337652,1.337284" id="svg_133"/>
   <path fill="#fdd605" fill-rule="nonzero" d="m449.405558,120.714674c-0.738599,0 -1.337284,0.598685 -1.337284,1.337284c0,0.738599 0.598685,1.337652 1.337284,1.337652c0.738599,0 1.337652,-0.599053 1.337652,-1.337652c0,-0.738599 -0.599053,-1.337284 -1.337652,-1.337284" id="svg_132"/>
   <path fill="#fdd605" fill-rule="nonzero" d="m459.436661,121.8292c-0.738599,0 -1.337652,0.598685 -1.337652,1.337284c0,0.738967 0.599053,1.337652 1.337652,1.337652c0.738599,0 1.337284,-0.598685 1.337284,-1.337652c0,-0.738599 -0.598685,-1.337284 -1.337284,-1.337284" id="svg_131"/>
   <path fill="#fdd605" fill-rule="nonzero" d="m462.334356,131.41442c-0.738599,0 -1.337284,0.598685 -1.337284,1.337284c0,0.738599 0.598685,1.337652 1.337284,1.337652c0.738599,0 1.337652,-0.599053 1.337652,-1.337652c0,-0.738599 -0.599053,-1.337284 -1.337652,-1.337284" id="svg_130"/>
   <path fill="#fdd605" fill-rule="nonzero" d="m464.786534,146.57227c-0.738967,0 -1.337652,0.598685 -1.337652,1.337284c0,0.738599 0.598685,1.337284 1.337652,1.337284c0.738599,0 1.337284,-0.598685 1.337284,-1.337284c0,-0.738599 -0.598685,-1.337284 -1.337284,-1.337284" id="svg_129"/>
   <path fill="#fdd605" fill-rule="nonzero" d="m473.034101,146.57227c-0.738599,0 -1.337652,0.598685 -1.337652,1.337284c0,0.738599 0.599053,1.337284 1.337652,1.337284c0.738599,0 1.337284,-0.598685 1.337284,-1.337284c0,-0.738599 -0.598685,-1.337284 -1.337284,-1.337284" id="svg_128"/>
   <path fill="#fdd605" fill-rule="nonzero" d="m482.840606,139.884745c-0.73639,0 -1.336548,0.598685 -1.336548,1.337652c0,0.738599 0.600158,1.337284 1.336548,1.337284c0.740072,0 1.34023,-0.598685 1.34023,-1.337284c0,-0.738967 -0.600158,-1.337652 -1.34023,-1.337652" id="svg_127"/>
   <path fill="#fdd605" fill-rule="nonzero" d="m474.371385,134.089356c-0.738599,0 -1.337284,0.598685 -1.337284,1.337284c0,0.738599 0.598685,1.337284 1.337284,1.337284c0.738599,0 1.337652,-0.598685 1.337652,-1.337284c0,-0.738599 -0.599053,-1.337284 -1.337652,-1.337284" id="svg_126"/>
   <path fill="#fdd605" fill-rule="nonzero" d="m470.359165,116.925212c-0.738599,0 -1.337652,0.598685 -1.337652,1.337284c0,0.738967 0.599053,1.337652 1.337652,1.337652c0.738599,0 1.337284,-0.598685 1.337284,-1.337652c0,-0.738599 -0.598685,-1.337284 -1.337284,-1.337284" id="svg_125"/>
   <path fill="#fdd605" fill-rule="nonzero" d="m408.167355,143.451449c0,0.738599 0.598685,1.337284 1.337652,1.337284c0.738599,0 1.337284,-0.598685 1.337284,-1.337284c0,-0.738599 -0.598685,-1.337652 -1.337284,-1.337652c-0.738967,0 -1.337652,0.599053 -1.337652,1.337652" id="svg_124"/>
  </g>
 </g>
</svg>