<?xml version="1.0" encoding="utf-8"?>
<!-- Generator: Adobe Illustrator 18.0.0, SVG Export Plug-In . SVG Version: 6.00 Build 0)  -->
<!DOCTYPE svg PUBLIC "-//W3C//DTD SVG 1.1//EN" "http://www.w3.org/Graphics/SVG/1.1/DTD/svg11.dtd">
<svg version="1.1" id="Layer_1" xmlns="http://www.w3.org/2000/svg" xmlns:xlink="http://www.w3.org/1999/xlink" x="0px" y="0px"
	 viewBox="0 0 64 64" enable-background="new 0 0 64 64" xml:space="preserve">
<g>
	<g>
		<g>
			<path fill="#26C48F" d="M32,0c17.7,0,32,14.3,32,32S49.7,64,32,64S0,49.7,0,32S14.4,0,32,0z"/>
		</g>
	</g>
	<g>
		<g>
			<g>
				<path fill="#F7C948" d="M49.3,29l-35.5,0c-0.6,0-1.1-0.5-1.1-1v0c0-9,7.7-16.2,17.2-16.2h3.4c9.5,0,17.1,7.3,17.1,16.2v0
					C50.3,28.6,49.9,29,49.3,29z"/>
			</g>
		</g>
		<g>
			<g>
				<path fill="#F7C948" d="M45.5,47.3H17.4c-2.6,0-4.8-2.1-4.8-4.8V41c0-0.8,0.6-1.4,1.4-1.4h34.9c0.8,0,1.4,0.6,1.4,1.4v1.5
					C50.2,45.1,48.1,47.3,45.5,47.3z"/>
			</g>
		</g>
		<g>
			<g>
				<path fill="#7C4E3E" d="M49.8,36.6H13.2c-1.5,0-2.7-1.2-2.7-2.7v0c0-1.5,1.2-2.7,2.7-2.7h36.6c1.5,0,2.7,1.2,2.7,2.7v0
					C52.5,35.4,51.3,36.6,49.8,36.6z"/>
			</g>
		</g>
	</g>
	<g>
		<g>
			<polygon fill="#B22512" points="49.3,31.2 13.7,31.2 13.7,29.1 49.3,29 			"/>
		</g>
	</g>
	<g>
		<g>
			<path fill="#B7F94E" d="M50.4,40.7h-0.7l-1.1-0.6c-0.6-0.3-1.3-0.3-1.9,0l-0.2,0.1c-0.6,0.3-1.3,0.3-1.9,0l-0.2-0.1
				c-0.6-0.3-1.3-0.3-1.9,0l-0.2,0.1c-0.6,0.3-1.3,0.3-1.9,0l-0.2-0.1c-0.6-0.3-1.3-0.3-1.9,0l-0.2,0.1c-0.6,0.3-1.3,0.3-1.9,0
				l-0.2-0.1c-0.6-0.3-1.3-0.3-1.9,0l-0.2,0.1c-0.6,0.3-1.3,0.3-1.9,0L32,40.1c-0.6-0.3-1.3-0.3-1.9,0L30,40.2
				c-0.6,0.3-1.3,0.3-1.9,0l-0.2-0.1c-0.6-0.3-1.3-0.3-1.9,0l-0.2,0.1c-0.6,0.3-1.3,0.3-1.9,0l-0.2-0.1c-0.6-0.3-1.3-0.3-1.9,0
				l-0.2,0.1c-0.6,0.3-1.3,0.3-1.9,0l-0.2-0.1c-0.6-0.3-1.3-0.3-1.9,0l-0.2,0.1c-0.6,0.3-1.3,0.3-1.9,0l-0.2-0.1
				c-0.6-0.3-1.3-0.3-1.9,0l-1.1,0.5c-1.1,0-2.1-0.9-2.1-2v0c0-1.1,0.9-2,2.1-2h37.9c1.1,0,2.1,0.9,2.1,2v0
				C52.5,39.7,51.6,40.7,50.4,40.7z"/>
		</g>
	</g>
	<g>
		<g>
			<path fill="#FFFAF0" d="M23.3,21.2c-0.1,0.2-0.7,0.2-1.2-0.1c-0.5-0.3-0.8-0.7-0.7-0.9c0.1-0.2,0.7-0.2,1.2,0.1
				C23.2,20.5,23.5,20.9,23.3,21.2z"/>
		</g>
	</g>
	<g>
		<g>
			<path fill="#FFFAF0" d="M27.6,19.4c0.1,0.3-0.2,0.6-0.8,0.9c-0.5,0.2-1.1,0.2-1.2-0.1c-0.1-0.3,0.2-0.6,0.8-0.9
				C27,19.1,27.5,19.1,27.6,19.4z"/>
		</g>
	</g>
	<g>
		<g>
			<path fill="#FFFAF0" d="M31.8,21.3c-0.1,0.2-0.7,0.2-1.2-0.1c-0.5-0.3-0.8-0.7-0.7-0.9c0.1-0.2,0.7-0.2,1.2,0.1
				C31.7,20.7,32,21.1,31.8,21.3z"/>
		</g>
	</g>
	<g>
		<g>
			<path fill="#FFFAF0" d="M35.2,18.5c0.2,0.2,0.1,0.7-0.2,1.1c-0.4,0.4-0.9,0.7-1.1,0.5c-0.2-0.2-0.1-0.7,0.2-1.1
				C34.5,18.5,35,18.3,35.2,18.5z"/>
		</g>
	</g>
	<g>
		<g>
			<path fill="#FFFAF0" d="M39.4,21.3c-0.1,0.2-0.7,0.2-1.2-0.1c-0.5-0.3-0.8-0.7-0.7-0.9c0.1-0.2,0.7-0.2,1.2,0.1
				C39.2,20.7,39.5,21.1,39.4,21.3z"/>
		</g>
	</g>
	<g>
		<g>
			<path fill="#FFFAF0" d="M42.8,20.1c0.1,0.3-0.2,0.7-0.8,0.9c-0.5,0.2-1.1,0.2-1.2,0s0.2-0.7,0.8-0.9
				C42.2,19.9,42.7,19.9,42.8,20.1z"/>
		</g>
	</g>
	<g>
		<g>
			<path fill="#FFFAF0" d="M25.7,17.8c0,0.3-0.5,0.5-1.1,0.4c-0.6-0.1-1-0.3-1-0.6c0-0.3,0.5-0.5,1.1-0.4
				C25.3,17.3,25.7,17.6,25.7,17.8z"/>
		</g>
	</g>
	<g>
		<g>
			<path fill="#FFFAF0" d="M31,17.3c0.1,0.3-0.3,0.6-0.9,0.8s-1.1,0.1-1.2-0.2c-0.1-0.3,0.3-0.6,0.9-0.8S30.9,17,31,17.3z"/>
		</g>
	</g>
	<g>
		<g>
			<path fill="#FFFAF0" d="M38.5,17.7c0,0.3-0.5,0.5-1.1,0.4s-1-0.3-1-0.6s0.5-0.5,1.1-0.4C38.1,17.1,38.5,17.4,38.5,17.7z"/>
		</g>
	</g>
	<g>
		<g>
			<polygon fill="#F7EA92" points="29.9,31.1 38.5,35.4 46,31.1 			"/>
		</g>
	</g>
</g>
</svg>
