<?xml version="1.0" standalone="no"?>
<svg
  width="600"
  height="600"
  viewBox="0 0 600 600"
  xmlns="http://www.w3.org/2000/svg"
>
  <g transform="translate(300,300)">
    <path d="M112.2,-172C151.6,-149.3,194.1,-128.6,215.6,-94.6C237.2,-60.6,237.9,-13.1,233.6,35.3C229.3,83.8,220.1,133.2,192.3,168.5C164.6,203.7,118.4,224.7,70.3,238.3C22.2,252,-27.8,258.4,-64,238.4C-100.2,218.5,-122.7,172.1,-140.2,132.3C-157.8,92.6,-170.4,59.5,-181.6,22.4C-192.7,-14.7,-202.3,-55.8,-192.9,-92.9C-183.5,-130.1,-155,-163.5,-119.7,-188C-84.3,-212.6,-42.2,-228.3,-2.9,-223.8C36.4,-219.3,72.8,-194.6,112.2,-172Z" fill="#c7d8f7" />
  </g>
</svg>
  