<svg width="26" height="26" xmlns="http://www.w3.org/2000/svg">

 <g>
  <title>background</title>
  <rect fill="none" id="canvas_background" height="402" width="582" y="-1" x="-1"/>
 </g>
 <g>
  <title>Layer 1</title>
  <path id="svg_1" fill="#1D1D1B" d="m16.80359,14.46051c2.08209,-1.28113 3.47766,-3.57233 3.47766,-6.18854c0,-4.00976 -3.2666,-7.27197 -7.28125,-7.27197s-7.28125,3.26221 -7.28125,7.27197c0,2.61621 1.39557,4.90741 3.47766,6.18854c-4.49579,1.00714 -7.65051,3.75836 -7.65051,7.08783c0,2.72461 7.20019,3.45166 11.4541,3.45166s11.4541,-0.72705 11.4541,-3.45166c0,-3.32947 -3.15472,-6.08069 -7.65051,-7.08783zm-9.58484,-6.18854c0,-3.18261 2.59375,-5.77197 5.78125,-5.77197s5.78125,2.58936 5.78125,5.77197s-2.59375,5.77149 -5.78125,5.77149s-5.78125,-2.58887 -5.78125,-5.77149zm5.78125,15.22803c-6.11499,0 -9.77539,-1.28998 -9.95367,-1.95673c0.00463,-3.30871 4.46826,-5.99981 9.95367,-5.99981c5.48486,0 9.94812,2.69061 9.95361,5.99884c-0.17382,0.66626 -3.83459,1.9577 -9.95361,1.9577z"/>
  <ellipse ry="5.906033" rx="5.906033" id="svg_3" cy="8.247245" cx="13.062498" stroke-width="0" fill="#1D1D1B"/>
  <ellipse ry="4.656078" rx="4.656078" id="svg_4" cy="19.746822" cx="12.687511" stroke-width="0" fill="#1D1D1B"/>
  <ellipse ry="4.531083" rx="4.531083" id="svg_5" cy="19.871817" cx="9.437631" stroke-width="0" fill="#1D1D1B"/>
  <ellipse ry="3.906106" rx="3.906106" id="svg_6" cy="20.184306" cx="6.625235" stroke-width="0" fill="#1D1D1B"/>
  <ellipse ry="5.906033" rx="5.906033" id="svg_7" cy="8.247245" cx="13.062498" stroke-width="0" fill="#1D1D1B"/>
  <ellipse ry="3.374876" rx="3.374876" id="svg_8" cy="20.840531" cx="17.218595" stroke-width="0" fill="#1D1D1B"/>
  <ellipse ry="3.999853" rx="3.999853" id="svg_9" cy="18.840606" cx="15.468659" stroke-width="0" fill="#1D1D1B"/>
  <ellipse ry="3.843609" rx="3.843609" id="svg_10" cy="20.371799" cx="19.312268" stroke-width="0" fill="#1D1D1B"/>
 </g>
</svg>